<svg width="184" height="39" viewBox="0 0 184 39" fill="none" xmlns="http://www.w3.org/2000/svg">
<g opacity="0.65" clip-path="url(#clip0_3722_15969)">
<path fill-rule="evenodd" clip-rule="evenodd" d="M12.5445 5.73792C12.4591 5.88143 12.4591 6.05822 12.5445 6.20174L27.2141 30.7406C27.2952 30.8779 27.4429 30.9611 27.6031 30.9611H32.5221C32.8735 30.9611 33.0898 30.5783 32.911 30.2768L15.5978 1.30977C15.5063 1.15586 15.2837 1.15586 15.1922 1.30977L12.5445 5.73792Z" fill="white"/>
<path fill-rule="evenodd" clip-rule="evenodd" d="M12.3766 10.9775H14.8537C15.0285 10.9775 15.1366 11.1668 15.0492 11.3166L13.8097 13.463L12.5721 15.6095C12.4847 15.7592 12.2684 15.7592 12.181 15.6095L10.9414 13.463L9.70179 11.3166C9.61445 11.1668 9.7226 10.9775 9.89729 10.9775H12.3766Z" fill="white"/>
<path fill-rule="evenodd" clip-rule="evenodd" d="M9.41871 15.9539H11.8959C12.0706 15.9539 12.1787 16.1432 12.0914 16.2929L10.8518 18.4394L9.61212 20.5858C9.52478 20.7356 9.30847 20.7356 9.22107 20.5858L7.98148 18.4394L6.74183 16.2929C6.65449 16.1432 6.76264 15.9539 6.93733 15.9539H9.41871Z" fill="white"/>
<path fill-rule="evenodd" clip-rule="evenodd" d="M6.44115 21.0083H8.91833C9.09302 21.0083 9.20118 21.1976 9.11383 21.3473L7.87424 23.4938L6.63459 25.6402C6.54725 25.79 6.33091 25.79 6.24356 25.6402L5.00393 23.4938L3.7643 21.3473C3.67694 21.1976 3.7851 21.0083 3.95981 21.0083H6.44115Z" fill="white"/>
<path fill-rule="evenodd" clip-rule="evenodd" d="M3.55919 26.197H6.03637C6.21109 26.197 6.31924 26.3863 6.23188 26.5361L4.99225 28.6826L3.75262 30.829C3.66527 30.9788 3.44895 30.9788 3.3616 30.829L2.12405 28.6826L0.884415 26.5361C0.797058 26.3863 0.905214 26.197 1.07993 26.197H3.55919Z" fill="white"/>
<path fill-rule="evenodd" clip-rule="evenodd" d="M9.43824 26.197H11.9154C12.0901 26.197 12.1983 26.3863 12.1109 26.5361L10.8713 28.6826L9.63166 30.829C9.54431 30.9788 9.328 30.9788 9.2406 30.829L8.00101 28.6826L6.76136 26.5361C6.67402 26.3863 6.78217 26.197 6.95686 26.197H9.43824Z" fill="white"/>
<path fill-rule="evenodd" clip-rule="evenodd" d="M15.3942 26.197H17.8713C18.0461 26.197 18.1542 26.3863 18.0669 26.5361L16.8272 28.6826L15.5876 30.829C15.5002 30.9788 15.2839 30.9788 15.1966 30.829L13.959 28.6826L12.7194 26.5361C12.632 26.3863 12.7402 26.197 12.9149 26.197H15.3942Z" fill="white"/>
<path fill-rule="evenodd" clip-rule="evenodd" d="M21.3513 26.197H23.8285C24.0032 26.197 24.1114 26.3863 24.024 26.5361L22.7844 28.6826L21.5447 30.829C21.4574 30.9788 21.2411 30.9788 21.1537 30.829L19.9141 28.6826L18.6744 26.5361C18.5871 26.3863 18.6953 26.197 18.8699 26.197H21.3513Z" fill="white"/>
<path fill-rule="evenodd" clip-rule="evenodd" d="M12.4558 21.0083H14.933C15.1077 21.0083 15.2159 21.1976 15.1285 21.3473L13.8889 23.4938L12.6492 25.6402C12.5619 25.79 12.3456 25.79 12.2582 25.6402L11.0186 23.4938L9.77894 21.3473C9.69159 21.1976 9.79975 21.0083 9.97444 21.0083H12.4558Z" fill="white"/>
<path fill-rule="evenodd" clip-rule="evenodd" d="M18.2544 21.0083H20.7315C20.9062 21.0083 21.0144 21.1976 20.927 21.3473L19.6875 23.4938L18.4478 25.6402C18.3605 25.79 18.1442 25.79 18.0568 25.6402L16.8172 23.4938L15.5817 21.3473C15.4943 21.1976 15.6025 21.0083 15.7772 21.0083H18.2544Z" fill="white"/>
<path fill-rule="evenodd" clip-rule="evenodd" d="M15.4734 15.9539H17.9506C18.1253 15.9539 18.2335 16.1432 18.1461 16.2929L16.9065 18.4394L15.6668 20.5858C15.5795 20.7356 15.3632 20.7356 15.2758 20.5858L14.0362 18.4394L12.7965 16.2929C12.7092 16.1432 12.8173 15.9539 12.9921 15.9539H15.4734Z" fill="white"/>
<path d="M80.608 13.7149C81.7919 14.886 82.3847 16.4854 82.3847 18.5113V30.5228C82.3847 30.6455 82.3408 30.7495 82.2554 30.8347C82.1704 30.92 82.0664 30.9637 81.9438 30.9637H78.5743C78.4511 30.9637 78.3476 30.9221 78.2621 30.8347C78.1766 30.7495 78.1333 30.6455 78.1333 30.5228V19.3911C78.1333 18.2679 77.815 17.359 77.1806 16.6622C76.5462 15.9654 75.7036 15.6181 74.6536 15.6181C73.603 15.6181 72.7543 15.9592 72.1075 16.6435C71.4607 17.3277 71.1362 18.2304 71.1362 19.3536V30.5228C71.1362 30.6455 71.0929 30.7495 71.0074 30.8347C70.9219 30.92 70.8178 30.9637 70.6952 30.9637H67.3257C67.2031 30.9637 67.0991 30.9221 67.0141 30.8347C66.9286 30.7495 66.8848 30.6455 66.8848 30.5228V12.6896C66.8848 12.5669 66.9264 12.4649 67.0141 12.3775C67.0991 12.2923 67.2031 12.2486 67.3257 12.2486H70.6952C70.8178 12.2486 70.9202 12.2923 71.0074 12.3775C71.0929 12.4629 71.1362 12.5669 71.1362 12.6896V13.8605C71.1362 13.9333 71.1615 13.9833 71.2093 14.0062C71.2571 14.0311 71.2942 14.0062 71.3195 13.9333C72.3195 12.6147 73.8341 11.9553 75.86 11.9553C77.8442 11.9574 79.4247 12.544 80.608 13.7149Z" fill="white"/>
<path d="M119.937 21.551L119.9 22.6866C119.9 22.9799 119.754 23.1255 119.461 23.1255H108.001C107.878 23.1255 107.818 23.1858 107.818 23.3085C107.891 24.1135 108.001 24.6626 108.148 24.9558C108.735 26.7133 110.162 27.6056 112.433 27.6285C114.093 27.6285 115.411 26.9463 116.387 25.5777C116.485 25.4321 116.607 25.3572 116.753 25.3572C116.851 25.3572 116.936 25.3947 117.009 25.4674L119.278 27.3352C119.499 27.5058 119.534 27.7013 119.388 27.9218C118.631 28.9971 117.625 29.8249 116.368 30.4114C115.11 30.998 113.714 31.2912 112.175 31.2912C110.27 31.2912 108.654 30.8648 107.323 30.01C105.991 29.1552 105.022 27.9592 104.411 26.4222C103.849 25.1035 103.568 23.2731 103.568 20.9291C103.568 19.5148 103.714 18.3666 104.007 17.4868C104.496 15.7792 105.418 14.4293 106.771 13.4414C108.126 12.4534 109.756 11.9584 111.659 11.9584C116.468 11.9584 119.178 14.473 119.788 19.5023C119.889 20.1096 119.937 20.7939 119.937 21.551ZM109.411 16.2971C108.812 16.7485 108.392 17.3766 108.148 18.1836C108.003 18.5996 107.905 19.1362 107.855 19.7955C107.807 19.9182 107.855 19.9785 108.001 19.9785H115.434C115.557 19.9785 115.617 19.9182 115.617 19.7955C115.567 19.1861 115.495 18.7223 115.397 18.4041C115.176 17.5243 114.744 16.842 114.097 16.3532C113.45 15.8645 112.639 15.6211 111.661 15.6211C110.758 15.619 110.008 15.8437 109.411 16.2971Z" fill="white"/>
<path d="M135.421 30.1588C134.092 29.4454 133.063 28.4408 132.337 27.1471C131.611 25.8534 131.247 24.3579 131.247 22.6586V13.351C131.247 11.6517 131.611 10.1562 132.337 8.86254C133.063 7.56884 134.092 6.56632 135.421 5.85082C136.75 5.13741 138.29 4.77966 140.039 4.77966C141.788 4.77966 143.334 5.13741 144.675 5.85082C146.017 6.56632 147.052 7.56884 147.779 8.86254C148.505 10.1562 148.868 11.6517 148.868 13.351V22.6607C148.868 24.36 148.505 25.8555 147.779 27.1492C147.052 28.4429 146.017 29.4454 144.675 30.1609C143.331 30.8764 141.786 31.232 140.039 31.232C138.29 31.23 136.75 30.8743 135.421 30.1588ZM144.546 27.2781C145.68 26.1446 146.245 24.6429 146.245 22.7709V13.3136C146.245 11.4417 145.678 9.93368 144.546 8.78768C143.413 7.64162 141.911 7.06963 140.039 7.06963C138.192 7.06963 136.701 7.64162 135.569 8.78768C134.436 9.93368 133.87 11.4417 133.87 13.3136V22.7709C133.87 24.6429 134.436 26.1446 135.569 27.2781C136.703 28.4117 138.192 28.9774 140.039 28.9774C141.911 28.9774 143.413 28.4117 144.546 27.2781Z" fill="white"/>
<path d="M164.229 13.7186C165.398 14.8771 165.984 16.4287 165.984 18.3734V30.5638C165.984 30.8113 165.862 30.9341 165.614 30.9341H163.73C163.482 30.9341 163.36 30.8113 163.36 30.5638V18.8913C163.36 17.5373 162.948 16.4287 162.122 15.5655C161.297 14.7045 160.231 14.2718 158.927 14.2718C157.573 14.2718 156.477 14.6899 155.639 15.5281C154.801 16.3663 154.383 17.4624 154.383 18.8164V30.5638C154.383 30.8113 154.26 30.9341 154.013 30.9341H152.128C151.88 30.9341 151.758 30.8113 151.758 30.5638V12.61C151.758 12.3645 151.88 12.2397 152.128 12.2397H154.013C154.258 12.2397 154.383 12.3625 154.383 12.61V14.199C154.383 14.249 154.401 14.2864 154.439 14.3092C154.477 14.3342 154.505 14.3217 154.531 14.2718C155.614 12.7451 157.276 11.9818 159.518 11.9818C161.49 11.9818 163.06 12.5621 164.229 13.7186Z" fill="white"/>
<path d="M183.643 21.0343V22.2157C183.643 22.4632 183.52 22.5859 183.273 22.5859H171.341C171.243 22.5859 171.193 22.6359 171.193 22.7336C171.243 24.0877 171.315 24.9633 171.415 25.3564C171.686 26.465 172.264 27.3385 173.152 27.9791C174.038 28.6198 175.172 28.9401 176.55 28.9401C177.584 28.9401 178.495 28.7072 179.284 28.2392C180.072 27.7712 180.688 27.1056 181.131 26.2445C181.278 26.022 181.451 25.9741 181.648 26.0968L183.09 26.9475C183.288 27.0702 183.335 27.2429 183.238 27.4654C182.622 28.6468 181.698 29.5766 180.467 30.2546C179.236 30.9326 177.819 31.2696 176.218 31.2696C174.469 31.2446 173.004 30.8266 171.821 30.0133C170.639 29.2001 169.789 28.0686 169.271 26.6148C168.828 25.4333 168.605 23.7341 168.605 21.5169C168.605 20.4831 168.624 19.6387 168.662 18.9856C168.699 18.3325 168.791 17.748 168.938 17.2301C169.356 15.6286 170.201 14.3494 171.469 13.3885C172.738 12.4276 174.271 11.9471 176.068 11.9471C178.308 11.9471 180.032 12.515 181.241 13.6465C182.447 14.78 183.198 16.3795 183.495 18.449C183.593 19.1374 183.643 20.0006 183.643 21.0343ZM173.058 15.1794C172.258 15.8075 171.734 16.6519 171.488 17.7106C171.341 18.2285 171.24 19.0646 171.193 20.2232C171.193 20.3209 171.243 20.3708 171.341 20.3708H180.908C181.006 20.3708 181.056 20.3209 181.056 20.2232C181.006 19.1146 180.933 18.3263 180.833 17.8583C180.563 16.7497 180.014 15.8699 179.19 15.2168C178.364 14.5637 177.324 14.2371 176.068 14.2371C174.862 14.2371 173.859 14.5512 173.058 15.1794Z" fill="white"/>
<path d="M64.3076 30.4495L53.642 4.75628H53.64C53.3654 4.1115 52.7269 3.65808 51.9802 3.65808C51.2543 3.65808 50.6324 4.08863 50.3475 4.70428L39.6879 30.4495C39.6317 30.6201 39.6463 30.749 39.7295 30.8343C39.8127 30.9196 39.9396 30.9633 40.108 30.9633H44.3094C44.5881 30.9633 44.7712 30.8405 44.8565 30.5972L46.2438 26.6786C46.2999 26.5809 46.3706 26.533 46.4538 26.533H57.5461C57.6293 26.533 57.7002 26.583 57.7559 26.6786L59.1434 30.5972C59.2266 30.8405 59.4094 30.9633 59.6906 30.9633H63.892C64.1996 30.9633 64.3537 30.853 64.3537 30.6346C64.3492 30.5597 64.3351 30.4973 64.3076 30.4495ZM56.2419 22.8266H47.7143C47.5728 22.8266 47.5188 22.7538 47.5458 22.6061L51.8304 11.5202C51.8575 11.4224 51.9012 11.3746 51.9573 11.3746C52.0135 11.3746 52.055 11.4245 52.0821 11.5202L56.4083 22.6061C56.4645 22.7517 56.4083 22.8266 56.2419 22.8266Z" fill="white"/>
<path d="M128.718 27.4897H127.934C127.406 27.4897 126.98 27.0633 126.98 26.5371C126.98 22.4625 126.98 5.91262 126.98 5.91262C126.98 5.55071 126.686 5.25745 126.325 5.25745H123.384C123.022 5.25745 122.729 5.55071 122.729 5.91262V27.2879V27.8204C122.729 29.5447 124.126 30.9424 125.851 30.9424H128.718C128.956 30.9424 129.149 30.7489 129.149 30.5118V27.9202C129.149 27.6831 128.956 27.4897 128.718 27.4897Z" fill="white"/>
<path d="M100.941 12.3786C100.855 12.2932 100.752 12.2496 100.629 12.2496H97.2591C97.1365 12.2496 97.0324 12.2932 96.9475 12.3786C96.862 12.4638 96.8181 12.5678 96.8181 12.6905V13.5703C96.8181 13.6431 96.7934 13.6931 96.7456 13.7159C96.6955 13.7409 96.6477 13.7159 96.5999 13.6431C95.5245 12.52 94.0251 11.9584 92.0971 11.9584C90.4852 11.9584 89.0814 12.4035 87.8851 13.2958C86.6894 14.1881 85.8468 15.3778 85.3581 16.8649C84.9672 17.9402 84.7715 19.4898 84.7715 21.5156C84.7715 23.3231 84.9295 24.7998 85.2479 25.9458C85.7597 27.6056 86.677 28.839 87.9931 29.6439C89.312 30.4489 90.7636 30.8524 92.3508 30.8524C94.1809 30.8524 95.5977 30.3157 96.5977 29.2404C96.646 29.1926 96.6955 29.1739 96.7433 29.1863C96.7911 29.1988 96.8164 29.2404 96.8164 29.3153V29.6086C96.8164 31.3162 96.3817 32.5309 95.5161 33.2526C94.6488 33.9722 93.3013 34.3321 91.4711 34.3321C91.4604 34.3321 91.4481 34.3342 91.4374 34.3342H88.2867C87.9869 34.3342 87.8018 34.6628 87.956 34.9186L89.722 37.8472C89.8592 38.0739 90.1044 38.2132 90.3705 38.2132H91.704V38.2111C94.4784 38.1924 96.727 37.5393 98.4447 36.2539C100.19 34.9477 101.063 32.7701 101.063 29.7188V12.6885C101.07 12.5678 101.026 12.4638 100.941 12.3786ZM96.7664 23.5456C96.7287 23.972 96.6623 24.3692 96.5645 24.7353C96.3693 25.5174 95.9779 26.1517 95.3935 26.6385C94.8069 27.1272 94.0397 27.3706 93.087 27.3706C92.1843 27.3706 91.4087 27.121 90.7619 26.6197C90.1145 26.1205 89.6697 25.4778 89.4261 24.6979C89.1809 24.0885 89.0606 23.0257 89.0606 21.5114C89.0606 20.0472 89.2057 18.9719 89.4993 18.2897C89.7675 17.4847 90.2062 16.8379 90.8176 16.3491C91.4273 15.8603 92.1719 15.617 93.0515 15.617C93.9796 15.617 94.7428 15.8603 95.3395 16.3491C95.9362 16.8379 96.3339 17.4847 96.529 18.2897C96.6522 18.6807 96.7309 19.0759 96.7664 19.4794C96.8041 19.8829 96.8204 20.5484 96.8204 21.474C96.8226 22.4287 96.8041 23.1192 96.7664 23.5456Z" fill="white"/>
</g>
<defs>
<clipPath id="clip0_3722_15969">
<rect width="182.789" height="37.6827" fill="white" transform="translate(0.853516 0.85376)"/>
</clipPath>
</defs>
</svg>
