<svg width="389" height="40" viewBox="0 0 389 40" fill="none" xmlns="http://www.w3.org/2000/svg">
<g opacity="0.65" clip-path="url(#clip0_3722_16043)">
<path d="M359.046 37.5089C359.046 36.6465 359.747 35.9458 360.663 35.9458C361.579 35.9458 362.28 36.6465 362.28 37.5089C362.28 38.3712 361.579 39.1258 360.663 39.1258C359.747 39.1258 359.046 38.4251 359.046 37.5089ZM359.369 37.5089C359.369 38.2095 359.962 38.8024 360.717 38.8024C361.417 38.8024 362.01 38.2634 362.01 37.5089C362.01 36.8082 361.417 36.2692 360.717 36.2692C359.908 36.2692 359.369 36.8621 359.369 37.5089Z" fill="white"/>
<path d="M361.471 38.425H361.147L360.608 37.6165H360.285V38.425H360.069V36.6464H360.878C361.04 36.6464 361.201 36.6464 361.309 36.7542C361.471 36.8081 361.525 36.9698 361.525 37.1315C361.525 37.4548 361.255 37.6165 360.932 37.6165L361.471 38.425ZM360.608 37.4009C360.878 37.4009 361.201 37.4548 361.201 37.1315C361.201 36.9159 360.986 36.862 360.77 36.862H360.285V37.4009H360.608Z" fill="white"/>
<path d="M352.955 39.1256C364.273 29.4238 380.174 19.9915 388.905 16.5959C387.558 15.7335 385.456 14.4938 383.084 13.1464C371.819 16.8654 358.668 25.1119 346.918 34.4364C348.912 35.9455 351.014 37.5086 352.955 39.1256Z" fill="white"/>
<path d="M347.781 12.7694C346.11 11.9609 344.277 11.2064 342.876 10.5596C338.618 12.6616 333.066 15.8416 326.06 20.8542C327.569 21.6627 329.186 22.6329 330.91 23.6031C336.3 19.6146 341.744 15.8416 347.781 12.7694Z" fill="white"/>
<path d="M357.859 8.13403C355.811 7.00216 348.696 4.36112 343.791 3.22925C342.336 3.76824 340.288 4.57672 338.887 5.1696C340.665 5.65469 347.295 7.43335 352.954 10.29C354.41 9.5893 356.458 8.72692 357.859 8.13403Z" fill="white"/>
<path d="M333.767 7.43323C327.46 10.3438 320.831 14.3323 317.22 16.6499C318.513 17.2428 319.807 17.7279 321.586 18.5903C329.563 13.2004 335.815 9.91257 338.294 8.83459C336.515 8.18781 334.845 7.75662 333.767 7.43323Z" fill="white"/>
<path d="M362.602 6.46313C364.058 5.97804 365.728 5.54685 367.184 5.11566C362.98 3.337 357.698 1.45054 352.954 0.264771C352.2 0.480366 349.936 1.07325 348.373 1.55834C349.99 2.04343 355.326 3.2831 362.602 6.46313ZM336.03 26.7291C337.755 27.7531 339.588 29.1545 341.366 30.3403C353.17 21.1775 364.812 14.1167 377.586 10.1282C375.808 9.21196 374.244 8.40348 372.25 7.4333C364.597 9.37366 351.499 14.6018 336.03 26.7291Z" fill="white"/>
<path d="M0.833984 36.3229H9.45778C13.8236 36.3229 15.8717 34.0591 15.8717 30.8791C15.8717 28.292 14.5243 26.5672 11.7215 26.0282C14.2009 25.4353 15.3327 23.9262 15.3327 21.7163C15.3327 18.9136 13.2846 16.6498 8.9188 16.6498H0.887883V36.3229H0.833984ZM8.32591 27.9686C9.94287 27.9686 11.0747 28.777 11.0747 30.394C11.0747 32.1188 9.99677 32.8195 8.32591 32.8195H5.52318V27.9147H8.32591V27.9686ZM7.78692 20.0993C9.40389 20.0993 10.5358 20.8 10.5358 22.417C10.5358 24.034 9.45778 24.7346 7.78692 24.7346H5.52318V20.0993H7.78692ZM33.281 16.5959H28.4301L21.046 36.3229H25.9508L27.2983 32.2266H34.4129L35.7604 36.3229H40.7191L33.281 16.5959ZM30.8556 21.339L33.1732 28.6153H28.4301L30.8556 21.339ZM65.2969 16.5959H60.8233V29.8011L52.4151 16.5959H47.4025V36.3229H51.8761V23.1716L60.2843 36.3229H65.2969V16.5959ZM85.9401 36.3229L79.4723 26.2977V36.3229H74.6753V16.5959H79.4723V26.0821L85.6167 16.5959H90.9527L84.4848 26.0821L91.5456 36.3229H85.9401ZM108.524 26.4594C108.524 30.394 110.895 32.8195 113.967 32.8195C117.04 32.8195 119.411 30.394 119.411 26.4594C119.411 22.5248 117.04 20.0993 113.967 20.0993C110.895 20.0993 108.524 22.5248 108.524 26.4594ZM103.457 26.4594C103.511 20.6922 107.554 16.1647 113.967 16.1647C120.381 16.1647 124.424 20.6922 124.478 26.4594C124.424 32.2266 120.381 36.7541 113.967 36.7541C107.554 36.7541 103.511 32.2266 103.457 26.4594ZM131.053 36.3229H135.85V28.5615H142.103V24.7885H135.85V20.3688H143.396L144.259 16.5959H131.053V36.3229ZM166.627 16.5959H161.776L154.392 36.3229H159.296L160.644 32.2266H167.758L169.106 36.3229H174.065L166.627 16.5959ZM164.201 21.339L166.519 28.6153H161.776L164.201 21.339ZM202.523 16.5959H196.918L191.797 27.2679L186.677 16.5959H181.071V36.3229H185.383V23.1177L191.743 36.3229L198.103 23.1177V36.3229H202.577L202.523 16.5959ZM211.848 36.3229H225.322V32.55H216.645V28.1303H223.49V24.4651H216.645V20.3688H224.568L225.43 16.5959H211.848V36.3229ZM243.594 36.3229H248.822L243.917 27.9686C246.612 27.214 247.906 25.3275 247.906 22.5787C247.906 19.0214 245.75 16.6498 240.899 16.6498H233.299V36.3768H237.988V28.6153H239.282L243.594 36.3229ZM239.983 20.261C241.977 20.261 243.001 21.1234 243.001 22.7943C243.001 24.4651 241.977 25.3275 239.983 25.3275H237.935V20.261H239.983ZM255.991 36.3229H260.788V16.6498H255.991V36.3229ZM284.395 31.0408C282.563 32.3344 280.946 32.7656 279.275 32.7656C275.61 32.7656 273.023 30.2323 273.023 26.4594C273.023 22.6865 275.556 20.1532 279.113 20.1532C280.73 20.1532 282.347 20.5844 284.126 21.878V17.4044C282.509 16.4881 280.622 16.1108 278.52 16.1108C271.999 16.1108 267.902 20.6383 267.848 26.4055C267.902 32.2266 271.891 36.7002 278.52 36.7002C280.73 36.7002 282.617 36.3229 284.341 35.4066V31.0408H284.395ZM301.966 16.5959H297.115L289.731 36.3229H294.636L295.984 32.2266H303.098L304.446 36.3229H309.404L301.966 16.5959ZM299.541 21.339L301.859 28.6153H297.115L299.541 21.339Z" fill="white"/>
</g>
<defs>
<clipPath id="clip0_3722_16043">
<rect width="388.071" height="38.861" fill="white" transform="translate(0.833984 0.264648)"/>
</clipPath>
</defs>
</svg>
