<svg width="175" height="52" viewBox="0 0 175 52" fill="none" xmlns="http://www.w3.org/2000/svg">
<g clip-path="url(#clip0_3768_18809)">
<path d="M1.00696 28.5552C1.00734 22.5836 1.00179 16.7079 1.01003 10.8322C1.01846 4.94934 5.65285 0.33315 11.5462 0.331808C21.5094 0.329509 31.4725 0.333152 41.4357 0.333726C47.7407 0.33411 52.2919 4.75772 52.3368 11.0799C52.4042 20.563 52.377 30.0468 52.3994 39.5302C52.4065 42.5957 51.7525 45.4253 49.5682 47.7268C47.5673 49.8353 45.1647 51.0517 42.2037 51.0503C31.8575 51.0454 21.511 51.0549 11.1647 51.0478C5.66435 51.044 1.03149 46.419 1.01079 40.9133C0.995462 36.826 1.00734 32.7385 1.00696 28.5552ZM8.08052 18.8069C6.61787 22.3638 7.07565 25.6735 9.40521 28.7138C9.77198 29.1925 9.72388 29.6196 9.61063 30.1401C8.15813 36.8105 13.513 42.7941 20.3141 42.0556C21.0787 41.9726 21.5472 42.1692 22.0845 42.6492C27.1707 47.1945 35.1622 45.4237 37.8326 39.159C38.0911 38.5525 38.4895 38.3034 39.0726 38.1148C45.766 35.9505 48.1707 28.453 43.9784 22.8094C43.6363 22.3487 43.5516 21.9482 43.7124 21.4034C44.0899 20.1253 44.0905 18.7939 43.8609 17.5096C42.9047 12.1588 37.9871 8.75765 32.9177 9.41894C32.3152 9.49751 31.8358 9.38292 31.3543 8.94276C26.2245 4.25337 18.2779 5.94655 15.4614 12.3228C15.2353 12.8348 14.9429 13.128 14.3935 13.2886C11.5019 14.1348 9.42648 15.9517 8.08052 18.8069ZM133.098 26.6976C130.931 26.6863 131.138 26.871 131.136 24.7583C131.134 23.3262 131.139 23.3237 132.539 23.3225C134.582 23.3206 136.625 23.3442 138.667 23.3112C139.419 23.2991 139.682 23.586 139.671 24.3236C139.64 26.3021 139.649 28.2813 139.665 30.26C139.669 30.791 139.483 31.1752 139.046 31.4688C135.346 33.9528 131.385 34.7076 127.133 33.1572C125.059 32.4014 123.59 30.9219 122.678 28.9097C121.322 25.9146 121.189 22.8475 122.379 19.7936C123.95 15.7592 127.459 14.066 131.613 14.2222C132.854 14.2689 134.089 14.4193 135.266 14.8881C137.231 15.6704 138.511 17.0779 139.209 19.0578C139.437 19.7045 139.237 20.0216 138.576 20.1109C138.197 20.1619 137.815 20.2182 137.448 20.3194C136.291 20.6385 135.49 20.6628 134.685 19.3341C133.187 16.8629 128.66 17.1643 126.877 19.6629C125.396 21.7388 125.428 26.3739 126.937 28.4249C128.2 30.1399 130.366 30.8805 132.577 30.311C133.159 30.161 133.729 29.932 134.274 29.6754C135.554 29.0741 135.756 28.6314 135.541 27.2609C135.479 26.8656 135.294 26.7018 134.915 26.7025C134.341 26.7037 133.766 26.6995 133.098 26.6976ZM157.813 21.1834C157.117 24.7813 155.245 26.3293 151.447 26.4776C150.299 26.5224 149.148 26.5261 148 26.4933C147.328 26.4741 147.104 26.7344 147.114 27.3901C147.142 29.113 147.094 30.8374 147.13 32.5603C147.147 33.3411 146.876 33.6157 146.08 33.6228C143.013 33.6504 143.013 33.674 143.012 30.6565C143.011 25.6772 143.029 20.6979 142.991 15.7187C142.985 14.8072 143.258 14.4755 144.188 14.5109C146.992 14.6175 149.797 14.4925 152.606 14.6326C155.548 14.7792 157.941 16.9877 157.852 20.7176C157.849 20.8452 157.836 20.9725 157.813 21.1834ZM150.147 23.1035C150.557 23.0508 150.967 22.9987 151.377 22.9454C152.774 22.7643 153.613 21.811 153.591 20.4311C153.57 19.1082 152.726 18.2156 151.336 18.0619C150.767 17.9989 150.197 17.9335 149.625 17.9149C147.124 17.8327 147.123 17.8389 147.123 20.305C147.122 23.1633 147.122 23.1633 150.147 23.1035H150.147ZM75.407 32.991C70.1469 35.5107 62.8111 33.257 62.3628 25.049C62.2117 22.2832 62.6574 19.6395 64.399 17.3512C67.4891 13.2915 74.8413 13.0998 77.8243 17.0099C78.3329 17.6764 78.6621 18.435 78.958 19.2145C79.1318 19.6731 79.0484 19.9465 78.5513 20.0638C77.62 20.2834 76.6914 20.5137 75.7611 20.7368C75.4058 20.8218 75.179 20.7094 74.9894 20.3656C73.7577 18.1332 72.4805 17.4021 70.4507 17.7277C68.4436 18.0496 67.0923 19.4523 66.737 21.8022C66.4643 23.6042 66.432 25.4359 66.9332 27.2174C67.5767 29.5045 69.3542 30.6933 71.7102 30.4089C73.4873 30.1943 74.4629 29.002 74.9527 27.4119C75.2087 26.5807 75.5739 26.4396 76.3285 26.7378C77.0088 27.0065 77.727 27.1808 78.4321 27.3842C79.0062 27.5497 79.1808 27.859 78.9741 28.4548C78.3135 30.3581 77.2604 31.9406 75.407 32.991ZM82.2418 31.0443C82.2422 25.8721 82.261 20.7952 82.2265 15.7185C82.2203 14.8074 82.4974 14.4987 83.4241 14.5075C86.0304 14.5324 86.0168 14.4966 86.0382 17.1218C86.049 18.4237 85.9315 19.7321 86.1595 21.1625C87.3765 20.0906 88.655 19.4297 90.2501 19.4571C93.1639 19.5073 94.9019 21.0441 94.9901 23.9539C95.079 26.8886 95.0039 29.8283 95.0226 32.7657C95.0267 33.3795 94.7948 33.6247 94.1787 33.6115C90.4371 33.5312 91.1887 34.158 91.1172 30.7519C91.0756 28.773 91.1095 26.7928 91.0865 24.8133C91.0691 23.3152 90.604 22.6641 89.4855 22.4836C88.0886 22.2581 86.9093 22.8517 86.4445 24.0762C86.0771 25.0439 86.0612 26.0802 86.0413 27.0969C86.0049 28.948 86.0106 30.801 86.0384 32.6522C86.0486 33.3421 85.8111 33.6786 85.0983 33.6075C84.9718 33.5948 84.8431 33.6071 84.7155 33.6077C82.2439 33.6211 82.2439 33.6211 82.2418 31.0445V31.0443ZM104.299 22.4596C103.097 22.3755 102.1 22.5424 101.585 23.7224C101.49 23.9405 101.32 24.1124 101.067 24.0698C100.156 23.9162 99.2408 23.7747 98.3435 23.5599C97.8809 23.4492 98.071 23.0556 98.1771 22.7659C98.871 20.8709 100.271 19.8087 102.229 19.5612C103.65 19.3814 105.097 19.3485 106.518 19.6466C108.885 20.1433 109.902 21.3452 109.951 23.7721C109.989 25.6866 110.002 27.6038 109.946 29.5175C109.905 30.8749 110.212 32.159 110.675 33.5774C109.46 33.5774 108.385 33.6061 107.314 33.5665C106.693 33.5435 106.863 32.7766 106.343 32.4403C105.328 33.1499 104.188 33.7395 102.864 33.9062C99.955 34.2722 97.5593 32.3943 97.5914 29.7296C97.6124 27.9636 98.6135 26.6219 100.369 26.0045C101.85 25.4833 103.426 25.3585 104.924 24.9157C105.418 24.7697 106.209 24.8946 106.171 24.0361C106.133 23.1711 105.664 22.6129 104.764 22.493C104.638 22.4761 104.51 22.4729 104.299 22.4598M105.912 27.2998C104.891 27.374 103.905 27.6363 102.933 27.9303C101.71 28.3007 101.291 28.9562 101.561 29.9437C101.787 30.7692 102.8 31.313 103.802 31.1467C105.656 30.8391 106.573 29.2937 105.912 27.2998ZM165.055 29.13C165.055 25.7136 165.025 22.3926 165.074 19.0729C165.088 18.1295 164.76 17.8446 163.857 17.8919C162.679 17.9534 161.494 17.8862 160.314 17.9082C159.708 17.9197 159.451 17.6921 159.459 17.0701C159.496 13.9731 159.128 14.555 161.868 14.5282C165.763 14.4901 169.659 14.5424 173.553 14.4998C174.472 14.4899 174.774 14.7744 174.76 15.6979C174.727 17.9034 174.767 17.904 172.537 17.9048C171.739 17.9052 170.938 17.9437 170.143 17.8927C169.389 17.8446 169.146 18.1263 169.151 18.8794C169.179 23.3173 169.166 27.7553 169.166 32.1933C169.166 33.6033 169.163 33.6033 167.735 33.6084C165.057 33.618 165.057 33.618 165.056 30.9501L165.055 29.13ZM113.551 17.3927C114.543 16.1654 115.964 15.7613 117.148 14.9605L117.434 15.1136C117.434 16.2135 117.432 17.3134 117.434 18.4135C117.436 19.6913 117.44 19.7466 118.673 19.6915C119.632 19.6483 120.056 19.9733 119.922 20.9454C119.9 21.1022 119.919 21.2641 119.918 21.4237C119.913 22.8216 119.912 22.8732 118.482 22.8339C117.616 22.8099 117.389 23.1297 117.412 23.9478C117.465 25.7651 117.421 27.5852 117.436 29.4039C117.445 30.4934 117.781 30.8205 118.842 30.5986C119.615 30.4371 119.887 30.576 119.999 31.4046C120.275 33.4525 120.243 33.5471 118.223 33.8618C117.484 33.9767 116.759 33.9432 116.038 33.775C114.61 33.4419 113.893 32.6904 113.684 31.2358C113.342 28.8547 113.566 26.4563 113.524 24.0662C113.51 23.3074 113.48 22.7122 112.481 22.8295C112.165 22.8665 111.904 22.7005 111.867 22.3581C111.789 21.6272 111.784 20.8929 111.896 20.1644C111.942 19.8693 112.171 19.7064 112.446 19.7361C113.495 19.8492 113.582 19.2218 113.516 18.4285C113.489 18.1127 113.528 17.7913 113.551 17.3927Z" fill="white"/>
<path d="M37.1323 24.8776C34.2321 23.2133 31.3926 21.5847 28.296 19.8088C29.5879 19.0921 30.6271 18.4992 31.6841 17.9404C31.9667 17.791 32.2352 18.0052 32.4843 18.1474C35.063 19.6191 37.6865 21.0179 40.2106 22.5777C45.0126 25.5454 44.7146 32.6513 39.7236 35.3072C39.4489 35.4534 39.18 35.6491 38.8245 35.5755C38.4881 35.2744 38.5975 34.8673 38.5959 34.5009C38.5858 32.1056 38.5285 29.7084 38.6164 27.3162C38.6603 26.1258 38.2853 25.3493 37.1323 24.8776ZM12.5883 35.7736C11.8724 34.2767 11.5154 32.7987 11.8602 31.2341C12.3089 31.086 12.5519 31.3456 12.8164 31.4951C15.0382 32.7521 17.275 33.985 19.4618 35.3007C20.3113 35.8118 21.0071 35.8112 21.8516 35.3147C24.4921 33.7622 27.1658 32.2654 29.8313 30.7554C30.1513 30.5741 30.4395 30.2727 30.9969 30.4003C30.9969 31.5474 31.0129 32.7159 30.9876 33.8835C30.9799 34.2414 30.6455 34.392 30.3657 34.5522C27.9291 35.9469 25.5083 37.3704 23.0542 38.7336C19.2407 40.8518 14.9782 39.6511 12.5883 35.7738V35.7736Z" fill="white"/>
<path d="M12.6999 28.6236C10.1709 26.6746 9.12292 23.5761 9.96453 20.6615C10.6632 18.2421 12.7664 16.0629 14.5665 15.902C14.8139 16.2061 14.7127 16.5717 14.7141 16.9101C14.7242 19.4326 14.7528 21.9559 14.7045 24.4775C14.6867 25.3953 15.0155 25.951 15.8121 26.391C18.4663 27.8569 21.0936 29.3721 23.7236 30.8813C24.0731 31.0817 24.4892 31.2113 24.7866 31.7306C23.7784 32.4298 22.712 33.0254 21.5999 33.541C21.3479 33.6579 21.0999 33.4832 20.8813 33.3571C18.1514 31.7841 15.4242 30.2063 12.6999 28.6236ZM26.6507 18.8922C25.21 19.7088 23.7692 20.525 22.3282 21.341C22.3282 19.9086 22.3142 18.7186 22.339 17.5294C22.3447 17.2596 22.6172 17.118 22.842 16.9906C25.5074 15.4787 28.1219 13.8667 30.8501 12.4782C35.8472 9.93482 41.8186 13.893 41.5512 19.4914C41.5394 19.743 41.5553 20.0019 41.3807 20.2238C40.9413 20.3691 40.652 20.0475 40.3383 19.8705C38.1693 18.6468 35.9992 17.4246 33.8561 16.157C33.0225 15.664 32.2918 15.6329 31.4479 16.1455C29.8939 17.0898 28.2929 17.9573 26.6507 18.8922ZM33.5196 41.0935C30.384 43.3809 25.8658 43.3324 24.0956 40.9934C24.5395 40.481 25.1744 40.231 25.7397 39.9012C27.6971 38.7591 29.6647 37.6335 31.6484 36.5378C32.3449 36.153 32.6433 35.6404 32.6371 34.8439C32.6136 31.7147 32.6256 28.5855 32.6356 25.4563C32.6368 25.1211 32.5277 24.7553 32.8625 24.3627C33.9628 24.8 34.9472 25.4959 35.9706 26.1116C36.2498 26.2795 36.2025 26.6167 36.2023 26.9024C36.2008 29.9038 36.2525 32.9066 36.1745 35.906C36.1201 37.9897 35.1436 39.6906 33.5196 41.0935Z" fill="white"/>
<path d="M18.2205 12.2035C21.0565 7.65155 27.1041 8.01525 29.1813 10.4483C28.7297 11.008 28.0546 11.2404 27.4615 11.5859C25.561 12.6931 23.6718 13.8222 21.7397 14.8719C20.9613 15.2948 20.6528 15.8384 20.6603 16.7019C20.6863 19.7633 20.6731 22.8248 20.6645 25.8864C20.6633 26.2595 20.7564 26.6513 20.4594 27.1459C19.371 26.5988 18.3018 26.009 17.2969 25.3046C17.0338 25.1203 17.1056 24.7801 17.1056 24.4983C17.1045 21.5645 17.0928 18.6304 17.1187 15.6966C17.1294 14.4576 17.5688 13.3278 18.2205 12.2034V12.2035Z" fill="white"/>
<path d="M26.8511 30.5852C25.2194 30.1182 23.9231 29.1222 22.5252 28.3181C22.2449 28.1568 22.2828 27.8182 22.282 27.5321C22.2793 26.3526 22.3004 25.1728 22.2721 23.9941C22.2587 23.4434 22.4761 23.1108 22.9508 22.8538C23.9869 22.291 25.0113 21.7071 26.0235 21.1024C26.4556 20.8448 26.8346 20.8345 27.2694 21.0909C28.3122 21.706 29.3627 22.309 30.4277 22.8847C30.887 23.133 31.0281 23.4814 31.0204 23.9746C31.0022 25.1537 30.9917 26.3339 31.0271 27.5122C31.044 28.0767 30.7945 28.3865 30.3311 28.6393C29.1849 29.2647 28.0537 29.9185 26.8511 30.5852Z" fill="white"/>
</g>
<defs>
<clipPath id="clip0_3768_18809">
<rect width="174" height="50.7254" fill="white" transform="matrix(-1 0 0 -1 174.884 51.0542)"/>
</clipPath>
</defs>
</svg>
