<svg width="128" height="39" viewBox="0 0 128 39" fill="none" xmlns="http://www.w3.org/2000/svg">
<g opacity="0.65">
<path d="M19.864 38.6209C30.3445 38.6209 38.8432 30.1579 38.8432 19.6952C38.8432 9.23252 30.3445 0.769531 19.864 0.769531C9.38346 0.769531 0.884766 9.23252 0.884766 19.6952C0.884766 30.1579 9.38346 38.6209 19.864 38.6209Z" fill="white"/>
<path fill-rule="evenodd" clip-rule="evenodd" d="M28.4883 36.5676L13.5441 25.0337L15.651 19.6952L12.0801 14.8388L13.5441 10.4645H28.6311L38.8617 19.7309C38.8438 27.0691 34.6302 33.4252 28.4883 36.5498V36.5676Z" fill="#D5D5D5"/>
<path d="M30.0775 13.1248H25.7389V30.1758C25.0247 30.1758 24.3284 30.0329 23.6499 29.7651C22.9715 29.5152 22.6144 29.2295 22.6144 28.8903V25.1944C21.1682 26.105 19.5791 26.5692 17.883 26.5692C16.1868 26.5692 14.7942 26.1407 13.705 25.2658C12.6516 24.3731 12.116 23.2304 12.116 21.8199C12.116 20.4094 12.4909 19.7845 13.2408 18.9275C12.1874 18.5347 11.3483 17.9634 10.7234 17.1956C10.0984 16.41 9.79492 15.4816 9.79492 14.3925C9.79492 13.3034 10.2234 12.3392 11.0983 11.4465C11.991 10.5538 13.2051 10.1074 14.7406 10.1074C16.2761 10.1074 16.7224 10.3574 17.3295 10.8573C17.9544 11.3572 18.2579 11.9643 18.2579 12.6963C18.2579 14.1604 17.2938 15.1959 15.3834 15.803C15.0798 15.553 14.8477 15.1959 14.7049 14.7496C15.5619 14.1961 15.9904 13.6069 15.9904 12.982C15.9904 12.3571 15.8833 12.3571 15.6869 12.1428C15.4726 11.9107 15.1512 11.8036 14.687 11.8036C14.2228 11.8036 13.7765 12.0536 13.3479 12.5535C12.9194 13.0534 12.6873 13.6962 12.6873 14.5175C12.6873 15.3388 12.9016 15.9637 13.3479 16.4993C13.8122 17.0171 14.3835 17.3742 15.062 17.5884C15.9725 17.1242 17.0081 16.785 18.1508 16.5707C18.9364 17.3206 19.4363 18.0883 19.6506 18.8918C18.365 19.1418 17.2759 19.5345 16.3832 20.0702C15.5083 20.588 15.0798 21.195 15.0798 21.8735C15.0798 22.5519 15.3119 23.0697 15.7583 23.4804C16.2404 23.891 16.9188 24.1053 17.7758 24.1053C18.6329 24.1053 19.5434 23.8553 20.4183 23.3554C21.2932 22.8555 22.0252 22.2127 22.6322 21.3914V13.1248H20.4897C19.7398 12.25 19.3649 11.3394 19.3649 10.3574H29.1134C29.7561 11.1787 30.0775 12.1071 30.0775 13.1248Z" fill="black"/>
<path d="M67.9456 7.10779V31.3719H63.3748V28.8902C62.6964 29.9614 61.9465 30.7292 61.0895 31.2112C60.2325 31.6933 59.1612 31.9433 57.8935 31.9433C55.7867 31.9433 54.0191 31.1041 52.5908 29.4079C51.1624 27.7118 50.4482 25.5157 50.4482 22.8732C50.4482 20.2308 51.1446 17.3919 52.5551 15.6422C53.9656 13.8925 55.8581 12.9997 58.2328 12.9997C60.6074 12.9997 60.286 13.2497 61.1252 13.7318C61.9643 14.196 62.6607 14.8566 63.1784 15.7136V7.1435H67.9456V7.10779ZM55.2868 22.4983C55.2868 24.1587 55.6082 25.48 56.2688 26.462C56.9115 27.4618 57.9114 27.9617 59.2326 27.9617C60.5538 27.9617 61.5715 27.4618 62.2679 26.4798C62.9642 25.4978 63.3034 24.2123 63.3034 22.6411C63.3034 21.0699 62.7499 18.8738 61.643 17.9276C60.9645 17.3562 60.1789 17.0705 59.2683 17.0705C57.8935 17.0705 56.8758 17.5883 56.2331 18.6417C55.5903 19.6773 55.2689 20.9628 55.2689 22.4983H55.2868ZM88.4603 20.82V31.3719H83.6574V20.445C83.6574 19.4809 83.4968 18.6953 83.1575 18.1061C82.729 17.2669 81.9077 16.8563 80.7115 16.8563C79.5152 16.8563 78.5332 17.2669 77.8726 18.1061C77.2299 18.9274 76.9085 20.1058 76.9085 21.6413V31.3719H72.2306V7.16135H76.9085V15.7493C77.5869 14.7138 78.3725 13.9817 79.2653 13.5711C80.158 13.1604 81.1043 12.9462 82.1041 12.9462C83.104 12.9462 84.2109 13.1426 85.1215 13.5175C86.0321 13.9103 86.782 14.4817 87.3712 15.2851C87.8711 15.9636 88.1746 16.642 88.2817 17.3562C88.3889 18.0525 88.4424 19.2131 88.4424 20.82H88.4603ZM93.5488 15.3387C94.7986 13.7496 96.9233 12.964 99.9407 12.964C102.958 12.964 103.654 13.3568 105.19 14.1424C106.725 14.928 107.475 16.3921 107.475 18.5525V26.8012C107.475 27.3725 107.475 28.0689 107.511 28.8723C107.547 29.4794 107.636 29.9079 107.797 30.1221C107.957 30.3364 108.189 30.5149 108.493 30.6577V31.3541H103.387C103.244 30.997 103.137 30.6578 103.083 30.3364C103.029 30.015 102.976 29.6579 102.958 29.2473C102.315 29.9436 101.565 30.5506 100.708 31.0505C99.6907 31.6397 98.548 31.9254 97.2803 31.9254C96.0127 31.9254 94.3165 31.4612 93.2453 30.5328C92.1918 29.6043 91.6562 28.2831 91.6562 26.5691C91.6562 24.8551 92.5132 22.7661 94.2094 21.7663C95.1378 21.2306 96.5126 20.8378 98.3338 20.6057L99.9407 20.4093C100.816 20.3022 101.423 20.1594 101.798 19.9987C102.476 19.713 102.797 19.2666 102.797 18.6596C102.797 18.0525 102.547 17.4098 102.03 17.142C101.53 16.8563 100.78 16.7135 99.78 16.7135C98.7801 16.7135 97.8874 16.9813 97.4232 17.5348C97.1018 17.9454 96.8697 18.4989 96.7626 19.1774H92.2276C92.3347 17.6062 92.7632 16.3207 93.5488 15.303V15.3387ZM97.0304 27.9617C97.4768 28.3188 98.0124 28.4974 98.6373 28.4974C99.655 28.4974 100.583 28.1938 101.423 27.6046C102.28 27.0155 102.726 25.9263 102.762 24.3551V22.6054C102.458 22.784 102.155 22.9446 101.851 23.0696C101.548 23.1768 101.137 23.2839 100.619 23.391L99.5657 23.5874C98.5837 23.766 97.8695 23.9802 97.441 24.2302C96.709 24.6587 96.3519 25.3193 96.3519 26.2299C96.3519 27.1404 96.584 27.6046 97.0304 27.9617ZM120.116 16.8742C118.527 16.8742 117.438 17.5526 116.831 18.9096C116.527 19.6237 116.367 20.5343 116.367 21.6413V31.3719H111.689V13.4461H116.224V16.0707C116.831 15.1423 117.402 14.4817 117.938 14.071C118.902 13.339 120.134 12.9819 121.616 12.9819C123.098 12.9819 124.99 13.464 126.169 14.446C127.347 15.4101 127.954 17.017 127.954 19.2666V31.3719H123.134V20.445C123.134 19.4987 123.009 18.7667 122.759 18.2668C122.294 17.3384 121.42 16.8742 120.116 16.8742Z" fill="white"/>
</g>
</svg>
