<svg width="120" height="44" viewBox="0 0 120 44" fill="none" xmlns="http://www.w3.org/2000/svg">
<g clip-path="url(#clip0_3768_18834)">
<path d="M29.3882 28.9188C29.3882 32.7686 28.1883 35.836 25.7885 38.1191C23.0931 40.8387 19.5489 42.1976 15.1578 42.1976C10.9531 42.1976 7.39306 40.8122 4.48153 38.0397C1.57198 35.2728 0.116211 31.8577 0.116211 27.8056C0.116211 23.7517 1.57198 20.3404 4.48153 17.5678C7.39504 14.7953 10.9512 13.4118 15.1558 13.4118C17.2859 13.4118 19.2931 13.7709 21.1792 14.4891C23.0673 15.2073 24.6163 16.2222 25.8301 17.53L23.1606 20.0701C22.272 19.0438 21.1177 18.2425 19.7036 17.6642C18.2657 17.0826 16.7179 16.788 15.1558 16.7986C12.0023 16.7986 9.33474 17.8381 7.15109 19.917C4.99521 22.0205 3.91826 24.6494 3.91826 27.8056C3.91826 30.9618 4.99521 33.5907 7.15109 35.6961C9.33276 37.7751 12.0023 38.8146 15.1558 38.8146C18.0396 38.8146 20.4394 38.0435 22.3533 36.5032C24.2653 34.9647 25.372 32.848 25.6675 30.1529H15.1558V26.8436H29.1859C29.3208 27.5618 29.3882 28.2554 29.3882 28.9226M41.0621 22.1887C44.0292 22.1887 46.3913 23.1016 48.1466 24.9291C49.9038 26.7567 50.7824 29.3138 50.7824 32.6061L50.7408 32.9954H35.0169C35.0725 34.8608 35.725 36.3652 36.9784 37.5048C37.5712 38.059 38.2735 38.4955 39.0447 38.7891C39.8158 39.0827 40.6404 39.2275 41.4707 39.2152C43.8666 39.2152 45.7448 38.0756 47.1053 35.7944L50.4552 37.3498C49.6004 38.9124 48.3068 40.2178 46.7186 41.1203C45.126 42.0275 43.3211 42.481 41.3061 42.481C38.3668 42.481 35.9431 41.5228 34.0372 39.6045C32.1332 37.6863 31.1792 35.2633 31.1792 32.3339C31.1792 29.431 32.1054 27.0156 33.9558 25.0841C35.8083 23.1526 38.1764 22.1887 41.0621 22.1887ZM40.9808 25.4527C39.5647 25.4527 38.3469 25.8684 37.3255 26.6981C36.3041 27.5259 35.6298 28.641 35.3025 30.0414H46.7801C46.7401 29.4141 46.5695 28.8007 46.2784 28.2368C45.9873 27.6729 45.5814 27.1698 45.0843 26.7567C44.0629 25.8873 42.6984 25.4527 40.9808 25.4527ZM56.9427 41.8007H53.1942V22.8048H56.7781V25.4413H56.9427C57.5119 24.5115 58.3865 23.7366 59.5686 23.1167C60.7487 22.4968 61.9228 22.1868 63.089 22.1868C64.5567 22.1868 65.8459 22.5081 66.9565 23.1545C68.0712 23.8008 68.8843 24.6929 69.4 25.8287C71.0561 23.4002 73.3488 22.1868 76.2822 22.1868C78.5888 22.1868 80.3678 22.8578 81.6153 24.2015C82.8648 25.5434 83.4876 27.4579 83.4876 29.9375V41.7969H79.7411V30.4799C79.7411 28.6977 79.4039 27.4125 78.7236 26.6244C78.0453 25.8363 76.9049 25.4413 75.3044 25.4413C73.8645 25.4413 72.6586 26.0234 71.6808 27.1857C70.703 28.348 70.2132 29.7183 70.2132 31.2945V41.7969H66.4686V30.4799C66.4686 28.6977 66.1315 27.4125 65.4512 26.6244C64.7729 25.8363 63.6325 25.4413 62.0319 25.4413C60.592 25.4413 59.3842 26.0234 58.4084 27.1857C57.4306 28.348 56.9407 29.7183 56.9407 31.2945V41.7969L56.9427 41.8007ZM88.8684 13.6896C89.6022 13.6896 90.227 13.9353 90.7446 14.4267C91.2603 14.9181 91.5181 15.5134 91.5181 16.2127C91.5181 16.912 91.2603 17.5073 90.7446 17.9987C90.229 18.4901 89.6022 18.7358 88.8684 18.7358C88.1346 18.7358 87.5098 18.4901 86.9922 17.9987C86.4765 17.5073 86.2187 16.912 86.2187 16.2127C86.2187 15.5134 86.4765 14.9181 86.9922 14.4267C87.5078 13.9353 88.1346 13.6896 88.8684 13.6896ZM81.0858 0.900391C81.4092 2.92624 82.4043 4.80035 83.9256 6.24864C85.4468 7.69692 87.4145 8.64341 89.5407 8.94966C87.4145 9.25592 85.4468 10.2024 83.9256 11.6507C82.4043 13.099 81.4092 14.9731 81.0858 16.9989C80.7628 14.9727 79.7679 13.0982 78.2466 11.6495C76.7252 10.2009 74.7574 9.25413 72.6308 8.94777C74.7568 8.64162 76.7243 7.69542 78.2455 6.2475C79.7668 4.79958 80.762 2.92589 81.0858 0.900391ZM91.3515 22.7746V41.7988H86.9922V22.7746H91.3515ZM119.116 16.2146C119.116 16.9139 118.858 17.5092 118.343 18.0006C117.825 18.492 117.2 18.7377 116.466 18.7377C115.733 18.7377 115.106 18.492 114.59 18.0006C114.075 17.5092 113.815 16.9139 113.815 16.2146C113.815 15.5153 114.073 14.92 114.588 14.4286C115.106 13.9372 115.731 13.6915 116.464 13.6915C117.198 13.6915 117.825 13.9372 118.341 14.4286C118.856 14.92 119.116 15.5153 119.116 16.2146ZM118.948 22.7746V41.7988H114.59V22.7746H118.948ZM94.0171 22.8067H97.599V25.4413H97.7617C98.3309 24.5115 99.2075 23.7366 100.388 23.1167C101.512 22.5107 102.781 22.1905 104.073 22.1868C106.514 22.1868 108.394 22.8521 109.711 24.1826C111.028 25.5131 111.685 27.405 111.685 29.86V41.7969H107.94V30.0925C107.859 26.993 106.215 25.4432 103.014 25.4432C101.52 25.4432 100.273 26.0159 99.267 27.1668C98.2634 28.3159 97.7597 29.6918 97.7597 31.2945V41.7969H94.0152L94.0171 22.8067Z" fill="white"/>
</g>
<defs>
<clipPath id="clip0_3768_18834">
<rect width="119" height="43" fill="white" transform="translate(0.116211 0.191406)"/>
</clipPath>
</defs>
</svg>
