<svg width="121" height="51" viewBox="0 0 121 51" fill="none" xmlns="http://www.w3.org/2000/svg">
<g opacity="0.65" clip-path="url(#clip0_3722_16010)">
<path d="M27.9925 5.57192C23.4035 5.57192 20.5719 9.03555 20.5719 14.9384C20.5719 20.7924 23.4035 24.3049 27.9925 24.3049C32.5815 24.3049 35.413 20.8412 35.413 14.9384C35.413 9.03555 32.6304 5.57192 27.9925 5.57192ZM27.9925 23.2316C26.235 23.2316 25.698 21.329 25.698 14.8895C25.698 8.45015 26.235 6.54759 27.9925 6.54759C29.7499 6.54759 30.287 8.49893 30.287 14.9384C30.287 21.329 29.7499 23.2316 27.9925 23.2316ZM61.8246 32.0614C59.8719 32.0614 58.456 32.7932 57.6261 34.0616V27.6221H52.6953V39.574C52.6953 46.0624 48.985 49.1356 45.6164 49.1356C43.1266 49.1356 42.1014 47.4283 42.1014 41.5742C42.1014 35.7202 42.7361 33.0858 44.7377 33.0858C46.0558 33.0858 47.1787 34.3542 48.3015 37.2812H49.522V32.9396C48.0574 32.3541 46.251 32.0614 44.8353 32.0614C39.8069 32.0614 36.9754 35.6715 36.9754 41.5742C36.9754 47.4283 39.8069 50.7455 44.5912 50.7455C48.5457 50.7455 51.3772 48.6478 52.6953 45.0866V50.3064H57.6261V37.0374C57.6261 34.9884 58.7489 33.964 59.9206 33.964C61.0436 33.964 61.4341 34.8909 61.4341 36.3055V50.3553H66.3649V37.2325C66.3649 33.5736 64.5585 32.0614 61.8246 32.0614ZM38.44 1.13261V23.8658H43.3708V1.13261H38.44ZM56.2104 1.13261V7.32813C55.771 6.25489 54.6969 5.57192 52.9882 5.57192C49.1315 5.57192 46.5441 9.03555 46.5441 14.8408C46.5441 20.7924 48.8386 24.256 52.7929 24.256C54.648 24.256 55.9174 23.378 56.5033 21.573V23.8169H61.0923V1.13261H56.2104ZM53.7694 22.8414C52.2071 22.8414 51.6701 21.2803 51.6701 14.792C51.6701 8.69407 52.2072 6.88908 53.867 6.88908C55.6734 6.88908 56.308 9.03555 56.308 14.792C56.308 20.5973 55.4781 22.8414 53.7694 22.8414ZM82.3778 5.57192C80.1809 5.57192 78.5698 6.74272 77.8863 8.35258C77.2029 6.49881 75.8359 5.57192 73.883 5.57192C71.7838 5.57192 70.2705 6.49881 69.5382 8.0111V6.01097H64.949V23.8658H69.8311V10.5478C69.8311 8.49893 70.8075 7.47448 72.0279 7.47448C73.0531 7.47448 73.4925 8.3038 73.4925 9.71852V23.8658H78.4233V10.5478C78.4233 8.49893 79.3997 7.47448 80.6202 7.47448C81.6455 7.47448 82.0848 8.3038 82.0848 9.71852V23.8658H87.0157V10.743C87.0157 7.08421 85.1605 5.57192 82.3778 5.57192ZM78.3257 39.8668L75.4941 38.1594C73.5902 37.0374 72.9067 36.3544 72.9067 35.1835C72.9067 33.8664 73.8343 33.0371 75.3965 33.0371C77.2516 33.0371 78.6186 34.2567 79.4486 37.2325H80.6691V32.6468C79.1069 32.3054 77.3493 32.0126 75.787 32.0126C71.8327 32.0126 69.4405 33.964 69.4405 37.135C69.4405 39.3302 70.661 40.8424 73.1508 42.3548L75.4941 43.7694C77.447 44.9402 78.1304 45.7695 78.1304 47.0868C78.1304 48.7942 77.0564 49.6723 75.2013 49.6723C72.9067 49.6723 71.5885 48.2088 70.7099 44.9891H69.4893V50.0138C71.2956 50.5016 73.1996 50.6967 74.7619 50.6967C79.2532 50.6967 81.8408 48.599 81.8408 45.0866C81.7919 42.6963 80.6202 41.2328 78.3257 39.8668ZM97.1213 5.57192C95.2662 5.57192 93.0693 5.9134 91.0188 6.54759V10.743H92.2394C93.2646 8.10866 94.6315 6.64516 96.5843 6.64516C97.8048 6.64516 98.293 7.23056 98.293 8.5965V10.8893C98.293 12.0114 98.0001 12.3528 96.7308 12.7919L95.4127 13.2309C91.5071 14.5481 89.7496 16.2555 89.7496 19.3289C89.7496 22.5974 91.7024 24.3049 94.5339 24.3049C96.5355 24.3049 98.2442 23.4267 98.7813 21.7192V23.8658H103.273V10.8893C103.224 7.37691 101.125 5.57192 97.1213 5.57192ZM98.293 19.0849C98.293 21.4266 97.5119 22.4998 96.2914 22.4998C95.1197 22.4998 94.7292 21.573 94.7292 19.1826V18.6947C94.7292 15.9141 95.3151 14.792 96.926 13.9627L98.293 13.2797V19.0849ZM116.063 5.57192C113.915 5.57192 112.353 6.49881 111.572 8.0111V6.01097H106.934V23.8658H111.865V10.4991C111.865 8.45015 112.988 7.42569 114.159 7.42569C115.282 7.42569 115.673 8.35258 115.673 9.76731V23.8169H120.604V10.743C120.604 7.08421 118.797 5.57192 116.063 5.57192ZM18.4727 42.6963C18.4727 47.2819 15.1528 50.3553 9.83151 50.3553H2.02033V42.2084H3.19201C4.26605 47.0379 6.26766 49.1845 9.63622 49.1845C12.3701 49.1845 13.8347 47.721 13.8347 45.3306C13.8347 42.7938 12.2725 41.623 9.97797 40.3058L6.51175 38.2569C3.58257 36.5495 1.92269 34.4518 1.92269 31.5248C1.92269 28.2563 3.82667 26.1586 6.90231 25.2804C2.55736 24.1097 0.995117 20.1582 0.995117 13.1334C0.995117 5.13287 4.31486 0.644775 11.1008 0.644775H17.3986V7.37691H16.178C14.7135 3.08396 13.4442 1.7668 11.1496 1.7668C7.78108 1.7668 6.8535 5.37679 6.8535 13.3285C6.8535 22.4998 7.68343 24.5487 10.1732 24.5487C12.0772 24.5487 13.0048 23.3291 13.0048 20.4509V16.9385C13.0048 14.792 12.3213 14.0115 10.0756 13.67V12.548H17.5939V31.7199H16.471C14.7623 26.8903 12.5654 25.8171 10.1244 25.8171C7.73225 25.8171 6.26766 26.9392 6.26766 29.1344C6.26766 31.1833 7.48815 32.159 9.78268 33.5249L13.5418 35.769C16.5198 37.6227 18.4727 39.3302 18.4727 42.6963ZM27.9437 32.0614C26.0885 32.0614 23.8916 32.4029 21.8412 33.0371V37.2325H23.0617C24.0869 34.5982 25.4538 33.1347 27.4067 33.1347C28.6271 33.1347 29.1153 33.72 29.1153 35.086V37.3301C29.1153 38.452 28.8224 38.7936 27.5531 39.2326L26.235 39.6716C22.3294 40.9888 20.5719 42.6963 20.5719 45.7695C20.5719 49.0381 22.5246 50.7455 25.3562 50.7455C27.3578 50.7455 29.0665 49.8674 29.6036 48.16V50.3064H34.0461V37.4276C34.0461 33.8664 31.8981 32.0614 27.9437 32.0614ZM29.1153 45.5744C29.1153 47.9161 28.3342 48.9893 27.1137 48.9893C25.9421 48.9893 25.5514 48.0625 25.5514 45.672V45.1842C25.5514 42.4035 26.1374 41.2815 27.7483 40.4522L29.1153 39.7691V45.5744Z" fill="white" fill-opacity="0.95"/>
</g>
<defs>
<clipPath id="clip0_3722_16010">
<rect width="119.774" height="50.1007" fill="white" transform="translate(0.849609 0.644775)"/>
</clipPath>
</defs>
</svg>
