<svg width="136" height="51" viewBox="0 0 136 51" fill="none" xmlns="http://www.w3.org/2000/svg">
<g clip-path="url(#clip0_3768_18829)">
<path d="M117.784 38.3485V13.2254H121.757V29.8055L130.156 20.1569H134.97L127.414 28.4254L135.04 38.3485H130.296L124.119 29.821L121.757 29.8055V38.3485H117.784ZM105.741 38.771C99.8363 38.771 96.6396 34.5828 96.6396 29.235C96.6396 23.8517 99.8363 19.699 105.741 19.699C111.681 19.699 114.844 23.8517 114.844 29.235C114.844 34.5828 111.681 38.771 105.741 38.771ZM100.786 29.235C100.786 33.3862 103.034 35.4633 105.741 35.4633C108.483 35.4633 110.697 33.3862 110.697 29.2335C110.697 25.0823 108.483 22.9727 105.741 22.9727C103.034 22.9727 100.786 25.0838 100.786 29.235ZM85.5862 38.3485V23.0421L88.9247 20.1569H96.0243V23.534H89.5554V38.3485H85.5846H85.5862ZM70.4016 38.8127C62.8317 38.8127 58.3181 33.3168 58.3181 25.8224C58.3181 18.2571 62.9936 12.6271 70.5481 12.6271C76.4542 12.6271 80.7765 15.6526 81.7958 21.2826H77.2622C76.5929 18.0813 73.9221 16.2864 70.5496 16.2864C65.1016 16.2864 62.7114 21.002 62.7114 25.8224C62.7114 30.6429 65.1016 35.3215 70.5496 35.3215C75.751 35.3215 78.0348 31.5573 78.2106 28.4254H70.3723V24.7831H82.2153L82.1952 26.6875C82.1952 33.7655 79.3116 38.8127 70.3985 38.8127H70.4016ZM20.3127 32.6923L37.4017 20.0629C38.2391 19.4461 39.4372 19.6866 39.8351 20.6489C41.9369 25.7191 40.9978 31.8148 36.8173 36C32.6383 40.1851 26.8217 41.1042 21.5047 39.0131L15.6989 41.704C24.0275 47.405 34.1418 45.994 40.4627 39.6623C45.4759 34.643 47.0288 27.8009 45.5777 21.6311L45.59 21.645C43.4851 12.5808 46.1082 8.95857 51.4807 1.55056C51.6071 1.37477 51.7351 1.19897 51.8615 1.01855L44.7912 8.09657V8.07498L20.3081 32.6984M16.7861 35.7625C10.8075 30.0461 11.8392 21.1963 16.9403 16.0936C20.7121 12.3172 26.8927 10.7766 32.2868 13.0419L38.0818 10.3634C37.0378 9.60777 35.6993 8.79511 34.165 8.22456C30.6566 6.78778 26.8018 6.42056 23.0852 7.16908C19.3687 7.91759 15.9565 9.74842 13.2779 12.4313C7.85142 17.8639 6.14591 26.2172 9.07581 33.343C11.2655 38.6693 7.67717 42.438 4.0626 46.2407C2.7827 47.5885 1.49663 48.9362 0.461914 50.3642L16.7814 35.7671" fill="white"/>
</g>
<defs>
<clipPath id="clip0_3768_18829">
<rect width="134.578" height="50.4936" fill="white" transform="translate(0.461914 0.444824)"/>
</clipPath>
</defs>
</svg>
