<svg width="171" height="47" viewBox="0 0 171 47" fill="none" xmlns="http://www.w3.org/2000/svg">
<g opacity="0.65" clip-path="url(#clip0_3722_15989)">
<path d="M8.65576 7.44355C12.5482 3.65769 17.8309 1.71859 23.1135 1.2569C31.2692 1.07222 39.3322 5.50445 43.41 12.5222C38.0347 17.4161 32.9374 22.4023 27.8401 27.3886C23.2062 25.9112 18.665 24.0644 14.1238 22.4023C10.2313 24.9878 6.24613 27.4809 2.35366 29.9741C-0.148646 22.033 2.63169 12.9838 8.65576 7.44355Z" fill="#757575"/>
<path d="M43.4099 12.5221C44.0586 13.9072 44.6147 15.2922 45.2634 16.6773C39.1467 20.9249 34.9762 27.5732 28.4887 31.4514C23.8548 30.8974 19.8696 27.6656 15.1431 27.1115C11.1579 29.0506 7.82152 32.0054 3.65101 33.4829C3.18762 32.3748 2.72423 31.1744 2.35352 29.974C6.24599 27.4809 10.2311 24.9877 14.1236 22.4023C18.6648 24.0644 23.2061 25.9111 27.84 27.3885C32.9372 22.4023 38.0345 17.416 43.4099 12.5221Z" fill="#EEEEEE"/>
<path d="M63.2433 14.5535C67.6918 11.0447 74.4573 11.5987 78.8132 15.1999C78.0718 16.1233 77.2376 17.0467 76.4962 17.97C73.7159 16.308 70.1014 14.8305 66.9504 16.585C61.8531 19.1704 61.4824 27.3885 66.3017 30.4357C69.1747 32.3748 72.8818 31.6361 75.7548 30.1587C75.7548 28.6813 75.7548 27.2962 75.7548 25.8188C73.9012 25.8188 72.0477 25.8188 70.1014 25.8188C70.1014 24.9877 70.1014 23.2333 70.1014 22.4023C73.2525 22.4023 76.4036 22.4023 79.5546 22.4023C79.5546 25.5418 79.5546 28.7736 79.5546 31.9131C75.0134 35.3296 68.4332 36.6223 63.614 33.2058C57.3119 29.143 57.2192 18.9858 63.2433 14.5535Z" fill="white" stroke="white" stroke-width="0.117778"/>
<path d="M28.4891 31.4515C34.9765 27.5733 39.147 20.9249 45.2638 16.6774C45.6345 18.2471 45.9125 19.8169 46.2832 21.479C40.8152 25.2648 36.0886 30.0664 31.3621 34.6833C30.528 35.3297 29.6939 36.2531 28.5817 36.5301C23.8552 36.2531 19.87 32.9289 15.1434 32.5595C11.8997 33.7599 9.21204 36.0684 6.33903 37.8228C5.41225 36.4377 4.48547 34.9603 3.65137 33.4829C7.82188 32.0055 11.1583 29.0507 15.1434 27.1116C19.87 27.6656 23.8552 30.8974 28.4891 31.4515Z" fill="#C3C3C3"/>
<path d="M84.002 17.9701C84.9287 17.9701 86.875 17.9701 87.8017 17.9701C87.8017 19.1705 87.8017 20.2785 87.8017 21.4789C89.1919 19.4475 91.1382 17.6007 93.8258 17.6007C93.8258 18.5241 93.9185 20.4632 93.9185 21.3866C92.0649 22.0329 89.748 22.4023 88.7285 24.4337C87.2457 27.6656 87.9871 31.3591 87.8017 34.7756C86.5969 34.8679 85.2994 34.8679 84.002 34.9603C84.002 29.3277 84.002 23.6027 84.002 17.9701Z" fill="white" stroke="white" stroke-width="0.117778"/>
<path d="M101.426 18.5241C107.635 15.1999 115.884 21.3866 113.937 28.312C112.825 34.7756 103.928 37.4534 99.2016 32.9289C94.5677 29.143 95.7725 20.8326 101.426 18.5241ZM103.279 21.3866C99.4796 22.7717 99.2016 28.589 102.26 30.8974C105.133 33.1135 110.138 31.1744 110.138 27.4809C111.157 23.5104 107.079 19.8168 103.279 21.3866Z" fill="white" stroke="white" stroke-width="0.117778"/>
<path d="M116.903 17.9701C117.83 17.9701 119.776 17.9701 120.703 17.9701C121.908 21.756 122.927 25.5419 124.132 29.3277C125.43 25.5419 126.635 21.756 127.839 17.9701C128.673 17.9701 130.249 17.8778 131.083 17.8778C132.381 21.6637 133.4 25.6342 135.068 29.3277C136.088 25.4495 137.107 21.5713 138.59 17.8778C139.424 17.8778 141.092 17.9701 141.926 18.0625C140.536 23.7874 138.405 29.3277 136.551 35.0527C135.717 35.0527 134.141 34.9604 133.307 34.9604C132.01 31.4515 130.99 27.8503 129.693 24.3415C127.561 27.481 127.191 31.5439 125.522 35.0527C124.688 35.0527 123.113 34.9604 122.279 34.9604C120.518 29.3277 118.572 23.6951 116.903 17.9701Z" fill="white" stroke="white" stroke-width="0.117778"/>
<path d="M143.966 17.9701C144.985 17.9701 146.839 17.9701 147.766 17.9701C149.063 21.756 150.083 25.5419 151.195 29.4201C152.863 25.7266 153.326 21.479 155.365 17.8778C156.014 17.8778 157.311 17.8778 157.96 17.8778C159.906 21.479 160.462 25.7266 162.131 29.4201C163.15 25.5419 164.262 21.756 165.56 17.9701C166.487 17.9701 168.34 17.9701 169.267 17.9701C167.413 23.6951 165.745 29.5124 163.614 35.0527C162.779 35.0527 161.111 34.9604 160.37 34.9604C159.165 31.0822 157.868 27.2963 156.663 23.5104C155.087 27.2963 154.531 31.5439 152.4 35.0527C151.751 35.0527 150.453 35.0527 149.805 35.0527C147.21 29.6048 146.005 23.6028 143.966 17.9701Z" fill="white" stroke="white" stroke-width="0.117778"/>
<path d="M31.3619 34.6832C36.0885 30.0663 40.8151 25.2647 46.2831 21.4789C46.3757 23.3256 46.2831 25.1724 46.1904 27.0192C41.2785 30.4357 36.8299 34.4062 32.7521 38.8385C31.4546 40.0388 30.2498 41.5163 28.5816 42.0703C24.0404 41.7009 20.2406 38.7461 15.792 38.0074C13.3824 38.4691 11.3435 39.7618 9.21188 40.8699C8.2851 39.8542 7.26565 38.8385 6.33887 37.8227C9.21188 36.0683 11.8995 33.7599 15.1433 32.5595C19.8698 32.9288 23.855 36.253 28.5816 36.53C29.6937 36.253 30.5278 35.3296 31.3619 34.6832Z" fill="#ACACAC"/>
<path d="M32.7511 38.8384C36.829 34.4062 41.2775 30.4357 46.1894 27.0192C44.7993 37.7304 34.8827 46.3178 24.0394 46.3178C18.6641 46.3178 13.3814 44.1941 9.21094 40.8699C11.3425 39.7618 13.3814 38.4691 15.7911 38.0074C20.2396 38.7461 24.0394 41.7009 28.5806 42.0703C30.2488 41.5163 31.4536 40.0388 32.7511 38.8384Z" fill="#888888"/>
</g>
<defs>
<clipPath id="clip0_3722_15989">
<rect width="169.601" height="46.1691" fill="white" transform="translate(0.962891 0.610596)"/>
</clipPath>
</defs>
</svg>
