<svg width="213" height="30" viewBox="0 0 213 30" fill="none" xmlns="http://www.w3.org/2000/svg">
<g opacity="0.65" clip-path="url(#clip0_3722_16024)">
<mask id="mask0_3722_16024" style="mask-type:luminance" maskUnits="userSpaceOnUse" x="1" y="0" width="212" height="30">
<path d="M212.149 0.0905762H1.11426V29.2996H212.149V0.0905762Z" fill="white"/>
</mask>
<g mask="url(#mask0_3722_16024)">
<path d="M115.451 28.8687L120.74 9.08459H130.691C134.138 9.08459 136.607 9.59385 138.056 10.5341C140.564 12.2186 141.268 15.0786 140.171 19.1921C139.114 23.1097 136.959 25.8912 133.668 27.4975C132.454 28.0851 131.044 28.4769 129.477 28.6728C128.536 28.7903 127.165 28.8295 125.363 28.8295L115.451 28.8687ZM128.732 13.4723H125.128L122.15 24.5984H125.755C128.027 24.5984 129.829 24.2459 131.122 23.5799C132.767 22.718 133.903 21.2293 134.452 19.1137C135.432 15.3528 133.551 13.4723 128.732 13.4723Z" fill="white"/>
<path d="M139.779 28.9077L143.462 15.1176H148.711L145.029 28.9077H139.779ZM143.814 13.0021L144.872 9.12366H150.552L149.534 13.0021H143.814Z" fill="white"/>
<path d="M161.405 19.5053C160.855 19.427 160.346 19.3878 159.798 19.3878C157.017 19.3878 155.175 20.9548 154.313 24.1282L153.02 28.9077H147.771L150.591 18.3692C150.944 17.1155 151.179 16.0186 151.297 15.1176H156.429C156.351 15.7444 156.194 16.4496 155.959 17.1939L155.802 17.8207C157.369 15.9011 159.445 14.9216 162.031 14.9608H162.579L161.405 19.5053Z" fill="white"/>
<path d="M177.663 24.5201C176.566 27.6934 173.392 29.2605 168.222 29.2605C165.675 29.2605 163.755 28.7512 162.541 27.7326C161.131 26.5181 160.738 24.716 161.366 22.2479C162.07 19.7014 163.442 17.7426 165.557 16.4889C167.438 15.3528 169.71 14.7651 172.374 14.7651C177.82 14.7651 179.818 17.4291 178.407 22.7572L178.29 23.2273H166.38C166.145 24.2459 166.302 25.0294 166.811 25.6171C167.321 26.1656 168.104 26.4398 169.122 26.4398C170.886 26.4398 172.022 25.8129 172.491 24.5593L177.663 24.5201ZM167.124 20.4066H173.863C174.098 19.5055 173.941 18.8004 173.432 18.291C172.962 17.8601 172.256 17.6251 171.316 17.6251C169.162 17.6251 167.79 18.5653 167.124 20.4066Z" fill="white"/>
<path d="M192.002 20.0148C192.158 18.5261 191.374 17.7817 189.572 17.7426C188.358 17.7426 187.379 18.2127 186.517 19.1137C185.812 19.8973 185.303 20.9159 184.95 22.1695C184.244 24.7944 185.028 26.0872 187.3 26.0872C189.298 26.0872 190.552 25.2253 191.061 23.5407H196.468C195.253 27.3408 191.884 29.2213 186.399 29.2213C183.814 29.2213 181.894 28.712 180.68 27.6934C179.23 26.5181 178.838 24.6768 179.504 22.2087C180.171 19.6622 181.581 17.7426 183.696 16.4497C185.576 15.3136 187.849 14.726 190.513 14.726C195.567 14.726 197.839 16.4889 197.251 19.9756L192.002 20.0148Z" fill="white"/>
<path d="M208.457 10.3381L207.163 15.196H211.473L210.611 18.4477H206.302L204.852 23.8149C204.656 24.5593 204.695 25.0685 204.97 25.3427C205.205 25.5778 205.714 25.6954 206.497 25.6954C207.007 25.6954 207.751 25.6561 208.692 25.5778L207.791 28.947C206.576 29.182 205.401 29.2996 204.304 29.2996C200.269 29.2996 198.662 27.85 199.446 24.9118L201.17 18.4477H197.996L198.858 15.196H202.031L202.815 12.2578L205.831 11.3567C206.654 11.1217 207.516 10.7691 208.457 10.3381Z" fill="white"/>
<path d="M40.8975 26.3613C42.5821 28.085 45.2853 28.9469 49.1246 28.9469C53.0814 28.9469 56.2155 28.3201 58.527 27.1057C60.8383 25.852 62.4837 23.9715 63.424 21.3859H56.1764C55.667 22.522 54.9619 23.4231 54.0608 24.0107C53.1206 24.5984 52.0236 24.9118 50.7309 24.9118C48.9679 24.9118 47.7534 24.4024 47.0874 23.3447C46.4214 22.3261 46.3431 20.8374 46.8523 18.8786C47.4008 16.8805 48.2627 15.3135 49.5163 14.2557C50.77 13.1588 52.2979 12.6103 54.0608 12.6103C55.1578 12.6103 55.9804 12.8454 56.5289 13.3155C57.0382 13.7856 57.2733 14.5299 57.195 15.4702H64.4426C64.9127 13.1588 64.3642 11.435 62.7972 10.2597C61.2301 9.08444 58.6837 8.49683 55.1578 8.49683C51.0834 8.49683 47.7142 9.39785 45.0111 11.2392C42.3079 13.0804 40.5057 15.7052 39.6047 19.0744C38.8212 22.2086 39.2522 24.6375 40.8975 26.3613Z" fill="white"/>
<path d="M34.9433 28.8686L40.2321 9.12366H33.2195L27.9307 28.8686H34.9433Z" fill="white"/>
<path d="M76.3525 26.3613C78.0364 28.085 80.7397 28.9469 84.5792 28.9469C88.5363 28.9469 91.6705 28.3201 93.9816 27.1057C96.2928 25.852 97.9387 23.9715 98.8785 21.3859H91.631C91.1221 22.522 90.4167 23.4231 89.5156 24.0107C88.575 24.5984 87.4782 24.9118 86.1857 24.9118C84.4222 24.9118 83.2079 24.4024 82.5419 23.3447C81.876 22.3261 81.7978 20.8374 82.3068 18.8786C82.8552 16.8805 83.7563 15.3135 84.9706 14.2557C86.2244 13.1588 87.7528 12.6103 89.5156 12.6103C90.6124 12.6103 91.4353 12.8454 91.9837 13.3155C92.4927 13.7856 92.7278 14.5299 92.6497 15.4702H99.8972C100.367 13.1588 99.819 11.435 98.252 10.2597C96.6849 9.08444 94.1386 8.49683 90.6124 8.49683C86.5377 8.49683 83.1692 9.39785 80.4659 11.2392C77.7626 13.0804 75.9604 15.7052 75.0593 19.0744C74.2758 22.2086 74.6679 24.6375 76.3525 26.3613Z" fill="white"/>
<path d="M105.813 28.8686L111.102 9.12366H104.09L98.8008 28.8686H105.813Z" fill="white"/>
<path d="M70.3583 28.8686L75.686 9.12366H68.6736L63.3457 28.8686H70.3583Z" fill="white"/>
<path fill-rule="evenodd" clip-rule="evenodd" d="M8.73387 6.3421C12.9649 2.34609 17.5878 0.113037 21.3879 0.113037C23.5426 0.113037 25.5014 0.896567 26.6767 2.58115C29.9284 7.12563 27.1076 16.1754 20.4085 22.7962C19.1157 24.0891 17.8228 25.1076 16.4125 26.0479C14.8063 26.9489 11.6721 29.4171 7.01013 29.0253C5.05131 28.9077 3.5626 28.0067 2.46566 26.5571C-0.785989 22.0127 2.03472 12.9238 8.73387 6.3421Z" fill="white"/>
<path fill-rule="evenodd" clip-rule="evenodd" d="M21.1529 2.6986C21.8972 3.48213 21.4662 5.16672 20.0559 6.45954C18.7631 7.75235 17.0393 8.26168 16.295 7.47815C15.5506 6.6946 15.9816 5.01001 17.2744 3.71718C18.6456 2.30683 20.3693 1.91507 21.1529 2.6986ZM8.73387 6.34201C2.03472 12.9629 -0.785989 22.0126 2.46566 26.5571C3.5626 27.9675 5.05131 28.9077 7.01013 29.0252C8.30296 29.1428 9.39991 27.6148 10.2618 25.656C11.1237 23.6972 11.6721 21.7776 12.1031 20.0929C12.7299 17.3898 12.7299 15.3134 12.4165 14.9216C11.868 14.2557 10.6927 14.4124 9.28234 15.1959C8.65551 15.5877 7.75449 15.3134 8.85143 14.0206C9.83081 12.8453 14.0227 9.75039 15.4331 9.35862C17.1569 8.84929 18.9981 9.47612 18.3322 11.3175C17.9012 12.6102 12.1814 27.654 16.3733 26.087C17.7837 25.1859 19.0765 24.1282 20.3693 22.8353C27.0685 16.2145 29.85 7.16471 26.6375 2.62025C25.4622 0.935654 23.5034 0.152127 21.3487 0.152127C17.5878 0.112951 12.9258 2.30683 8.73387 6.34201Z" fill="white"/>
<path fill-rule="evenodd" clip-rule="evenodd" d="M21.1521 2.69875C21.8965 3.48227 21.4656 5.16687 20.0552 6.45969C18.7624 7.75253 17.0386 8.26179 16.2943 7.47826C15.5499 6.69474 15.9808 5.01016 17.2737 3.71733C18.6448 2.30698 20.3686 1.91522 21.1521 2.69875ZM13.1601 2.85546C12.4158 3.52145 11.6323 4.03075 10.8879 4.81428C5.05063 10.4949 2.70003 18.4085 5.59909 22.4437C6.69603 24.0108 8.53736 24.6376 10.692 24.6376C11.358 22.953 11.7498 21.5426 12.1024 20.0931C12.7292 17.3899 12.7292 15.3136 12.4158 14.9218C11.8673 14.2558 10.692 14.4125 9.28168 15.196C8.65486 15.5878 7.7538 15.3136 8.85078 14.0207C9.83015 12.8455 14.022 9.7505 15.4324 9.35874C17.1561 8.84948 18.9975 9.4763 18.3314 11.3176C18.018 12.2187 15.1973 19.623 14.8839 23.619C17.1561 22.7179 19.4284 21.1509 21.5831 19.0745C24.8347 15.9795 26.9894 12.3362 27.8513 8.96697C28.1647 6.49886 27.7338 4.30498 26.676 2.6204C24.0512 -0.905488 18.6448 -0.670429 13.1601 2.85546Z" fill="#606060"/>
</g>
</g>
<defs>
<clipPath id="clip0_3722_16024">
<rect width="211.765" height="29.209" fill="white" transform="translate(0.748047 0.0905762)"/>
</clipPath>
</defs>
</svg>
