<svg width="67" height="58" viewBox="0 0 67 58" fill="none" xmlns="http://www.w3.org/2000/svg">
<g opacity="0.65">
<path d="M4.66685 56.0197H61.4477C62.3604 56.0197 63.2357 55.7085 63.881 55.1545C64.5264 54.6005 64.889 53.8492 64.889 53.0657V4.32461C64.889 3.54116 64.5264 2.7898 63.881 2.23581C63.2357 1.68183 62.3604 1.37061 61.4477 1.37061H4.66685C3.75417 1.37061 2.87887 1.68183 2.23351 2.23581C1.58815 2.7898 1.22559 3.54116 1.22559 4.32461V53.0657C1.22559 53.8492 1.58815 54.6005 2.23351 55.1545C2.87887 55.7085 3.75417 56.0197 4.66685 56.0197Z" stroke="white" stroke-width="2.25357" stroke-linecap="round" stroke-linejoin="round"/>
<path d="M14.9912 21.2052V37.7226M20.6125 37.7226V21.2052L33.3607 37.7226V10.8057M38.3763 37.7226V21.2067H42.7054C44.9383 21.2067 47.0797 21.9681 48.6586 23.3234C50.2375 24.6788 51.1245 26.517 51.1245 28.4337V30.4985C51.124 32.415 50.2368 34.2528 48.658 35.6078C47.0792 36.9628 44.938 37.724 42.7054 37.724L38.3763 37.7226Z" stroke="white" stroke-width="2.25357" stroke-linecap="round" stroke-linejoin="round"/>
<path d="M40.4549 16.8937L33.3608 10.8055L26.2666 16.8937" stroke="white" stroke-width="2.25357" stroke-linecap="round" stroke-linejoin="round"/>
</g>
</svg>
