<svg width="29" height="29" viewBox="0 0 29 29" fill="none" xmlns="http://www.w3.org/2000/svg">
<mask id="mask0_3295_15591" style="mask-type:luminance" maskUnits="userSpaceOnUse" x="0" y="0" width="29" height="29">
<path d="M28.8704 0.113525H0.331055V28.6529H28.8704V0.113525Z" fill="white"/>
</mask>
<g mask="url(#mask0_3295_15591)">
<path d="M7.56805 28.5519C6.46416 28.5396 5.37065 28.3371 4.33552 27.9534C3.57961 27.674 2.89577 27.2292 2.33387 26.6515C1.75458 26.0907 1.30911 25.4067 1.03053 24.6501C0.647128 23.615 0.444954 22.5216 0.432889 21.4179C0.348114 19.5829 0.331055 19.0326 0.331055 14.3832C0.331055 9.73382 0.3498 9.18541 0.432046 7.3491C0.445602 6.24579 0.648036 5.15293 1.03053 4.11799C1.31047 3.36195 1.7553 2.67779 2.3327 2.11517C2.89395 1.53647 3.57812 1.09145 4.33467 0.812999C5.36981 0.429339 6.46332 0.22684 7.56721 0.214516C9.40268 0.130585 9.95388 0.113525 14.6007 0.113525C19.2476 0.113525 19.7985 0.132271 21.6348 0.214516C22.7384 0.228008 23.8315 0.430377 24.8668 0.812999C25.623 1.09178 26.307 1.53667 26.8684 2.11491C27.4469 2.67656 27.892 3.36072 28.1709 4.11714C28.5547 5.15228 28.7573 6.24573 28.7697 7.34968C28.8536 9.18599 28.8704 9.73577 28.8704 14.3838C28.8704 19.0317 28.8536 19.5816 28.7697 21.4179C28.7564 22.5216 28.5538 23.6148 28.1709 24.6501C27.8813 25.4008 27.4376 26.0826 26.8686 26.6516C26.2995 27.2205 25.6176 27.6639 24.8668 27.9534C23.8317 28.3372 22.7382 28.5398 21.6343 28.5522C19.7996 28.6361 19.2482 28.6531 14.6002 28.6531C9.95219 28.6531 9.40268 28.6367 7.56805 28.5519Z" fill="url(#paint0_radial_3295_15591)"/>
<path d="M7.56805 28.5519C6.46416 28.5396 5.37065 28.3371 4.33552 27.9534C3.57961 27.674 2.89577 27.2292 2.33387 26.6515C1.75458 26.0907 1.30911 25.4067 1.03053 24.6501C0.647128 23.615 0.444954 22.5216 0.432889 21.4179C0.348114 19.5829 0.331055 19.0326 0.331055 14.3832C0.331055 9.73382 0.3498 9.18541 0.432046 7.3491C0.445602 6.24579 0.648036 5.15293 1.03053 4.11799C1.31047 3.36195 1.7553 2.67779 2.3327 2.11517C2.89395 1.53647 3.57812 1.09145 4.33467 0.812999C5.36981 0.429339 6.46332 0.22684 7.56721 0.214516C9.40268 0.130585 9.95388 0.113525 14.6007 0.113525C19.2476 0.113525 19.7985 0.132271 21.6348 0.214516C22.7384 0.228008 23.8315 0.430377 24.8668 0.812999C25.623 1.09178 26.307 1.53667 26.8684 2.11491C27.4469 2.67656 27.892 3.36072 28.1709 4.11714C28.5547 5.15228 28.7573 6.24573 28.7697 7.34968C28.8536 9.18599 28.8704 9.73577 28.8704 14.3838C28.8704 19.0317 28.8536 19.5816 28.7697 21.4179C28.7564 22.5216 28.5538 23.6148 28.1709 24.6501C27.8813 25.4008 27.4376 26.0826 26.8686 26.6516C26.2995 27.2205 25.6176 27.6639 24.8668 27.9534C23.8317 28.3372 22.7382 28.5398 21.6343 28.5522C19.7996 28.6361 19.2482 28.6531 14.6002 28.6531C9.95219 28.6531 9.40268 28.6367 7.56805 28.5519Z" fill="url(#paint1_radial_3295_15591)"/>
<path d="M11.0962 14.4435C11.0962 13.7445 11.3036 13.0612 11.692 12.4801C12.0804 11.8989 12.6324 11.446 13.2782 11.1786C13.924 10.9111 14.6346 10.8412 15.3201 10.9776C16.0057 11.1141 16.6354 11.4507 17.1296 11.945C17.6238 12.4394 17.9603 13.0692 18.0966 13.7548C18.2329 14.4403 18.1628 15.1509 17.8952 15.7967C17.6276 16.4424 17.1745 16.9943 16.5933 17.3826C16.0121 17.7708 15.3287 17.978 14.6297 17.9779C13.6925 17.9777 12.7937 17.6053 12.131 16.9425C11.4683 16.2796 11.0961 15.3807 11.0962 14.4435ZM9.18545 14.4435C9.18545 15.5203 9.5047 16.5729 10.103 17.4682C10.7012 18.3635 11.5515 19.0613 12.5463 19.4734C13.5411 19.8855 14.6357 19.9933 15.6918 19.7832C16.7479 19.5731 17.7181 19.0546 18.4794 18.2932C19.2408 17.5318 19.7593 16.5617 19.9694 15.5056C20.1795 14.4496 20.0716 13.3549 19.6596 12.36C19.2475 11.3652 18.5497 10.515 17.6544 9.91673C16.7591 9.3185 15.7065 8.99919 14.6297 8.99919C13.9147 8.99913 13.2068 9.13994 12.5462 9.41353C11.8857 9.68712 11.2855 10.0882 10.78 10.5937C10.2744 11.0992 9.87337 11.6995 9.59978 12.36C9.32619 13.0206 9.18538 13.7285 9.18545 14.4435ZM19.0173 8.78346C19.0171 9.03506 19.0917 9.28108 19.2314 9.49039C19.371 9.69964 19.5697 9.86283 19.8021 9.95921C20.0345 10.0556 20.2903 10.0809 20.5371 10.0319C20.7839 9.98295 21.0107 9.86186 21.1887 9.684C21.3667 9.50615 21.488 9.27952 21.5371 9.03279C21.5864 8.78599 21.5613 8.53017 21.4651 8.29771C21.3689 8.06517 21.2059 7.86637 20.9968 7.72653C20.7876 7.58662 20.5416 7.5119 20.29 7.51177C19.9528 7.51196 19.6293 7.64597 19.3908 7.8844C19.1522 8.12284 19.0176 8.44617 19.0173 8.78346ZM10.3469 23.0738C9.67457 23.0664 9.0085 22.9435 8.37791 22.7101C7.92063 22.5338 7.50525 22.2638 7.15863 21.9173C6.81201 21.5708 6.54179 21.1556 6.36537 20.6984C6.13193 20.0678 6.00888 19.4018 6.00162 18.7294C5.95012 17.6119 5.94007 17.2762 5.94007 14.4449C5.94007 11.6136 5.95122 11.2787 6.00162 10.1601C6.00979 9.4878 6.13277 8.82192 6.36537 8.19114C6.5416 7.73366 6.81175 7.31822 7.15837 6.9716C7.50506 6.62497 7.9205 6.35482 8.37791 6.17853C9.0085 5.94515 9.6745 5.82211 10.3469 5.81485C11.4644 5.76335 11.8001 5.75329 14.6303 5.75329C17.4604 5.75329 17.7965 5.76419 18.9151 5.81511C19.5873 5.82328 20.2533 5.94626 20.884 6.17885C21.3415 6.35508 21.7569 6.62523 22.1035 6.97192C22.4502 7.31855 22.7204 7.73399 22.8966 8.19139C23.13 8.82198 23.2531 9.48806 23.2603 10.1604C23.3118 11.2795 23.3219 11.6136 23.3219 14.4451C23.3219 17.2767 23.3116 17.6114 23.2603 18.73C23.2526 19.4022 23.1295 20.0682 22.8966 20.6989C22.7202 21.1562 22.45 21.5714 22.1033 21.9179C21.7567 22.2643 21.3413 22.5344 20.884 22.7107C20.2535 22.9441 19.5875 23.0671 18.9151 23.0744C17.7976 23.1259 17.4619 23.136 14.6303 23.136C11.7987 23.136 11.4641 23.125 10.3469 23.0738ZM10.259 3.90576C9.37925 3.92307 8.50886 4.08958 7.68485 4.39819C6.98045 4.67055 6.34078 5.08709 5.80677 5.6211C5.27276 6.15511 4.85622 6.79478 4.58386 7.49919C4.27525 8.32319 4.10875 9.19358 4.09143 10.0733C4.03908 11.2037 4.02734 11.5652 4.02734 14.4446C4.02734 17.324 4.03941 17.6852 4.09143 18.8159C4.10875 19.6956 4.27525 20.566 4.58386 21.39C4.85622 22.0944 5.27276 22.7341 5.80677 23.2681C6.34078 23.8021 6.98052 24.2186 7.68485 24.491C8.50893 24.7995 9.37932 24.966 10.259 24.9835C11.39 25.0349 11.7509 25.0475 14.6303 25.0475C17.5097 25.0475 17.8709 25.0355 19.0016 24.9835C19.8813 24.9661 20.7517 24.7996 21.5757 24.491C22.2801 24.2186 22.9197 23.8021 23.4538 23.2681C23.9878 22.7341 24.4043 22.0944 24.6767 21.39C24.9857 20.5661 25.1522 19.6957 25.1692 18.8159C25.2206 17.6847 25.2323 17.324 25.2323 14.4446C25.2323 11.5652 25.2203 11.204 25.1692 10.0733C25.1518 9.19358 24.9853 8.32319 24.6767 7.49919C24.4044 6.79491 23.9879 6.15531 23.4541 5.62136C22.9202 5.08735 22.2807 4.67074 21.5765 4.39819C20.7526 4.08938 19.8821 3.92282 19.0024 3.90576C17.8717 3.854 17.5105 3.84167 14.6317 3.84167C11.7528 3.84167 11.3902 3.85374 10.259 3.90576Z" fill="white"/>
</g>
<defs>
<radialGradient id="paint0_radial_3295_15591" cx="0" cy="0" r="1" gradientUnits="userSpaceOnUse" gradientTransform="translate(2.178 28.0278) scale(36.2343 36.2343)">
<stop offset="0.09" stop-color="#FA8F21"/>
<stop offset="0.78" stop-color="#D82D7E"/>
</radialGradient>
<radialGradient id="paint1_radial_3295_15591" cx="0" cy="0" r="1" gradientUnits="userSpaceOnUse" gradientTransform="translate(20.0993 27.1112) scale(31.8866 31.8866)">
<stop offset="0.64" stop-color="#8C3AAA" stop-opacity="0"/>
<stop offset="1" stop-color="#8C3AAA"/>
</radialGradient>
</defs>
</svg>
