<svg width="149" height="33" viewBox="0 0 149 33" fill="none" xmlns="http://www.w3.org/2000/svg">
<g opacity="0.65" clip-path="url(#clip0_3722_16008)">
<path d="M15.1625 1.97893H6.42967V2.68598H9.26089V17.0828C9.26089 21.4493 8.08147 22.6287 5.36834 22.6287C3.71654 22.6287 3.36226 21.3312 3.36226 20.7407C3.36226 19.207 3.24417 18.1457 1.82704 18.1457C0.411431 18.1457 0.176758 19.5613 0.176758 20.0336C0.176758 22.0397 1.11999 23.5734 5.01406 23.5734C9.73478 23.5734 12.2117 22.0397 12.2117 16.7301V2.68447H15.0445V1.97893H15.1625ZM16.3435 20.2683C15.8711 20.2683 15.3987 20.3894 15.1625 20.7407C14.8083 21.095 14.6902 21.4493 14.6902 21.9216C14.6902 22.391 14.8083 22.7468 15.1625 23.1026C15.5168 23.4553 15.8711 23.5719 16.3435 23.5719C16.8143 23.5719 17.1686 23.4538 17.5229 23.1026C17.8772 22.7483 17.9953 22.391 17.9953 21.9216C17.9953 21.4493 17.8772 21.095 17.5229 20.7407C17.1686 20.3864 16.8143 20.2683 16.342 20.2683H16.3435ZM35.6957 20.2683C35.2233 20.2683 34.8691 20.3894 34.5148 20.7407C34.162 21.095 34.0439 21.4493 34.0439 21.9216C34.0439 22.391 34.162 22.7468 34.5148 23.1026C34.8691 23.4553 35.2233 23.5719 35.6957 23.5719C36.1681 23.5719 36.639 23.4538 36.8767 23.1026C37.2294 22.7468 37.3475 22.391 37.3475 21.9216C37.3475 21.4493 37.2294 21.095 36.8751 20.7407C36.5209 20.3864 36.1681 20.2683 35.6942 20.2683H35.6957ZM29.5579 1.97893H21.0612V2.68598H23.5396V19.2085C23.5396 20.506 23.4215 20.8588 23.3034 21.2131C23.1854 21.687 22.8311 21.9231 22.2406 22.1593C21.8878 22.2774 21.2974 22.394 20.4707 22.394V23.1026H29.676V22.394C28.8493 22.394 28.2604 22.2774 27.9046 22.1593C27.3156 21.9231 26.9613 21.5689 26.8447 21.2146C26.6872 20.8001 26.6067 20.3604 26.607 19.9171V14.2501H28.8493C35.458 14.2501 37.346 11.655 37.346 8.11375C37.346 4.45587 36.2847 1.97893 29.5579 1.97893ZM28.3769 13.4249H26.607V2.80407H28.1423C33.2158 2.80407 34.3952 4.92825 34.3952 8.23184C34.3952 11.6535 32.3906 13.4249 28.3769 13.4249ZM64.606 21.095C64.4503 20.6392 64.3705 20.161 64.3698 19.6794V2.68598H66.6105V1.97893H61.1858C61.0677 2.21512 54.6967 18.0276 54.6967 18.0276L54.5786 18.1472C54.4605 18.1472 54.4605 18.1472 54.4605 18.0291C54.4605 18.0291 47.6171 2.09702 47.6171 1.97893H41.5944V2.68749H44.1909V20.6241C44.1909 20.9799 44.0728 21.3342 43.8366 21.687C43.6004 22.0412 43.2461 22.2774 42.8919 22.394C42.6557 22.5151 42.1848 22.5151 41.7109 22.5151V23.2207H47.6126V22.5121C47.1402 22.5121 46.904 22.394 46.5513 22.394C46.0789 22.2759 45.8427 22.0397 45.6065 21.6854C45.3703 21.4493 45.2522 21.095 45.2522 20.6241L45.1341 19.0889V4.92673H45.4884C45.4884 4.92673 53.1585 22.8634 53.2765 23.0995H53.867L61.1828 5.04634H61.419V19.6794C61.419 20.2698 61.3009 20.7407 61.1828 21.2131C61.0647 21.6854 60.7119 21.9216 60.2395 22.1578C59.7451 22.3218 59.2266 22.4011 58.7058 22.3925V23.1011H66.9663V22.3925C66.445 22.4012 65.926 22.3219 65.4311 22.1578C65.0783 21.9216 64.7241 21.5674 64.606 21.095ZM75.8158 7.64289C71.3313 7.64289 68.6181 10.5922 68.6181 15.6672C68.6181 23.2192 74.5183 23.6915 75.6977 23.6915C78.1762 23.6915 82.8969 22.1578 82.8969 15.5506C82.8969 10.3575 79.8279 7.64289 75.8158 7.64289ZM75.6977 22.7468C72.3941 22.7468 71.8036 21.0965 71.8036 15.7853C71.8036 11.655 72.0398 8.58613 75.6977 8.58613C79.5918 8.58613 79.5918 11.7716 79.5918 15.5476C79.5918 20.8588 78.6485 22.7468 75.6977 22.7468ZM94.4625 7.87908C91.8644 7.87908 90.9227 9.41278 90.2126 11.0646H89.9764C89.9764 11.0646 89.6237 8.70422 89.5056 8.11375H84.3125V8.94041H87.1437V19.3251C87.1437 20.3864 87.0271 21.0965 86.7925 21.5658C86.5548 22.0397 85.8462 22.3925 84.7849 22.3925H84.3125V23.3372H93.0454V22.3925H92.573C91.3921 22.3925 90.9227 22.1578 90.6835 21.6854C90.4488 21.2131 90.3307 20.5045 90.3307 19.4432V13.7792C90.3307 12.0078 91.7463 9.88516 93.3997 9.88516C95.1695 9.88516 95.0499 12.4802 97.0575 11.4189C98.0023 10.8284 97.7661 7.87908 94.4625 7.87908ZM128.801 21.5658C127.856 21.5658 127.621 21.0965 127.503 20.1517V11.8912C127.503 10.4741 127.265 9.64897 126.442 8.8208C125.615 7.99566 124.08 7.63986 121.839 7.63986C119.715 7.63986 118.181 7.99566 117.118 8.8208C116.175 9.53088 115.704 10.2379 115.704 11.3008C115.704 11.7701 115.822 12.1259 116.057 12.244C116.293 12.4802 116.647 12.5983 117 12.5983C117.825 12.5983 118.299 12.1289 118.534 11.0646C118.655 10.2379 118.888 9.76706 119.244 9.29317C119.713 8.82383 120.425 8.58613 121.249 8.58613C122.311 8.58613 123.137 8.8208 123.491 9.41127C123.845 10.0017 124.081 10.7103 124.081 11.652V14.132C121.365 14.3682 114.758 14.9571 115.112 19.914C115.23 21.802 116.884 23.5719 119.124 23.5719C121.603 23.5719 123.135 22.1578 124.196 21.0935C124.316 22.1563 125.377 23.4553 127.149 23.4553C129.153 23.4553 130.334 22.5106 130.454 20.0321H129.981C129.981 20.9769 129.391 21.5674 128.801 21.5674V21.5658ZM124.318 19.9156V20.0336L124.199 20.1517C122.784 21.4508 121.604 21.9231 120.778 21.9231C118.654 21.9231 118.299 20.1517 118.299 19.3266C118.299 16.4954 122.193 15.0783 124.318 15.0783V19.9156ZM146.502 21.4493C146.266 20.9784 145.912 20.2683 145.912 19.2085V12.3621C145.912 11.4189 145.794 10.4741 145.44 9.88516C145.085 9.17659 144.496 8.70422 143.906 8.34994C143.197 7.99566 142.49 7.87908 141.665 7.87908C138.596 7.87908 137.415 9.76706 136.708 10.8284H136.472L135.882 8.11375H131.161V8.94041H133.523V19.3251C133.523 20.1517 133.403 20.7407 133.285 21.0965C133.165 21.5658 132.816 21.9216 132.46 22.0397C132.224 22.1578 131.751 22.2759 131.161 22.2759V23.2192H138.595V22.2759C137.886 22.1578 137.296 22.0397 137.061 21.6854C136.825 21.3312 136.59 20.6226 136.59 19.5613V15.5491C136.59 13.8988 136.59 12.244 137.181 11.3008C137.77 10.2379 138.949 9.64897 140.13 9.64897C141.311 9.64897 141.9 10.0033 142.256 10.7103C142.608 11.3008 142.725 13.0707 142.725 14.2501V19.207C142.725 20.0321 142.846 20.6226 142.725 20.9784C142.608 21.4477 142.49 21.8035 142.135 22.0382C141.9 22.2759 141.426 22.2759 140.955 22.3925V23.3372H148.156V22.3925C147.328 22.0397 146.739 21.802 146.502 21.4493ZM112.753 6.93433C112.281 7.05242 112.045 7.5248 111.809 8.11526C111.691 8.70573 111.454 9.0585 111.1 9.17508C110.746 9.29469 110.393 9.29469 110.039 9.0585C109.214 8.34994 107.796 7.5248 105.2 7.5248C100.952 7.5248 99.1817 10.4741 99.1817 13.1872C99.1817 16.3743 100.363 17.9095 103.074 18.4984C103.194 18.4984 103.194 18.7346 103.074 18.7346C100.833 19.207 98.7093 19.9156 98.7093 22.0397C98.7093 23.3388 99.4179 24.0458 100.481 24.5182C101.541 24.989 103.074 25.2267 104.964 25.2267C106.614 25.2267 107.795 25.3448 108.504 25.3448C109.215 25.4365 109.899 25.678 110.51 26.0534C110.982 26.4077 111.218 26.9982 111.218 27.7037C111.218 28.7665 110.628 29.4751 109.566 30.1837C108.507 30.7741 107.205 31.0103 105.436 31.0103C104.021 31.0103 102.723 30.8907 101.66 30.1837C100.835 29.7113 100.715 28.768 100.835 28.0595C100.955 27.3509 100.715 26.6439 99.8903 26.4077C99.6392 26.3523 99.377 26.38 99.143 26.4864C98.909 26.5929 98.7159 26.7725 98.5927 26.9982C98.355 27.3494 98.2369 27.8218 98.2369 28.4123C98.2369 30.1821 99.6541 31.0073 100.715 31.3616C102.367 31.8324 103.432 31.952 104.846 31.952C106.853 31.952 108.385 31.5978 109.566 31.1254C110.747 30.5349 111.456 29.8279 111.927 29.0012C112.398 28.1761 112.635 27.3494 112.635 26.5227C112.635 25.4614 112.398 24.5167 111.927 23.9277C110.393 21.9216 108.267 22.1563 103.548 21.9216C101.306 21.9216 100.834 21.4493 100.834 20.7407C100.834 19.6794 101.66 19.3251 104.964 18.7346C108.267 18.2622 111.335 16.9647 111.335 13.0707C111.335 11.8897 111.1 10.9465 110.744 10.2394C111.454 10.356 112.045 10.356 112.634 10.2394C113.344 10.0033 113.695 9.64897 113.933 9.29469C114.169 8.82231 114.286 8.34994 114.051 7.99566C114.169 7.05242 113.579 6.69814 112.753 6.93433ZM105.32 18.0276C103.315 18.0276 102.251 17.3175 102.251 13.3068C102.251 10.4756 103.195 8.34994 105.32 8.34994C107.798 8.34994 108.505 10.2379 108.505 13.1888C108.505 17.4371 107.208 18.0276 105.32 18.0276Z" fill="white"/>
</g>
<defs>
<clipPath id="clip0_3722_16008">
<rect width="148.374" height="31.7945" fill="white" transform="translate(0.155273 0.797852)"/>
</clipPath>
</defs>
</svg>
