<svg width="104" height="27" viewBox="0 0 104 27" fill="none" xmlns="http://www.w3.org/2000/svg">
<g clip-path="url(#clip0_3932_14299)">
<path fill-rule="evenodd" clip-rule="evenodd" d="M8.35977 20.3086C12.9138 20.3086 15.0568 18.1838 15.0568 15.1628C15.0568 12.6801 13.6576 10.8245 8.77584 9.92825C4.57807 9.20951 3.68608 8.10418 3.68608 6.51778C3.68608 4.72235 5.17368 3.61702 7.55612 3.61702C10.6225 3.61702 11.8137 5.23205 12.4093 8.01255L14.5239 7.59447C13.8086 4.2155 11.9933 1.70131 7.64732 1.70131C3.74593 1.70418 1.51168 3.68002 1.51168 6.58078C1.51168 9.15224 3.11897 11.0078 8.00069 11.844C11.6028 12.4424 12.8824 13.3702 12.8824 15.2544C12.8824 17.1386 11.3948 18.3642 8.44811 18.3642C5.02549 18.3642 3.09047 16.4514 2.58321 13.3387L0.5 13.7568C0.975918 17.5252 3.38685 20.2484 8.35977 20.3086ZM68.7614 20.489C72.184 20.489 74.2388 18.7852 74.9541 15.9417L73.1074 15.4033C72.6001 17.1988 71.5001 18.6334 68.7614 18.6334C65.7834 18.6334 64.0279 16.8695 63.7914 13.8484H74.9825C75.011 13.2815 75.0424 12.7431 75.0424 12.3823C75.0424 8.52512 72.7512 5.92217 68.7016 5.92217C64.652 5.92217 61.7367 8.67403 61.7367 13.25C61.7367 17.8259 64.4753 20.489 68.7614 20.489ZM63.8512 12.1446C64.1789 9.24387 65.9344 7.7491 68.6446 7.7491C71.5029 7.7491 72.962 9.36414 73.1102 12.1446H63.8541H63.8512ZM49.7133 1.64404H51.768V12.1733H51.9162L58.6446 6.07107H61.2351V6.13121L53.5862 12.9808L61.8022 19.9191V19.9793H59.1519L51.9191 13.8169H51.7709V19.9793H49.7162V1.64404H49.7133ZM40.7507 19.8017C39.6193 22.4333 38.5763 22.8228 36.9405 22.8228C36.3449 22.8228 35.8091 22.734 35.185 22.6137L34.8886 24.5867C35.4529 24.6755 36.0485 24.7671 36.912 24.7671C39.5623 24.7671 41.2294 23.4212 42.6287 20.1597L48.6418 6.07107H46.4389L44.5324 11.0364C43.8171 12.8605 42.717 15.5522 41.8535 17.8259C40.9017 15.641 39.7105 12.8004 38.9667 10.9763L36.9433 6.07107H34.6521L40.7535 19.7989L40.7507 19.8017ZM28.3654 6.07107H26.3107V19.9793H28.3654V12.3508C28.3654 9.45004 29.6763 8.31322 32.4435 8.31322H33.5749V6.07107H32.623C30.3318 6.07107 28.9325 7.26803 28.4253 10.1087H28.3654V6.07107ZM16.1312 7.89801H18.3626V15.913C18.3626 18.516 19.6137 20.3086 22.3808 20.3086C23.5407 20.3086 24.2845 20.1282 25.2392 19.859L24.9428 17.9748C24.1391 18.2153 23.5435 18.3327 22.7399 18.3327C21.0728 18.3327 20.4173 17.4364 20.4173 15.7298V7.89228H25.091V6.06821H20.4173V2.09362H18.3626V6.07107H16.1312V7.89514V7.89801Z" fill="black"/>
<path fill-rule="evenodd" clip-rule="evenodd" d="M79.4846 24.288H83.1209L85.6458 19.1823L76.8114 1.53723L76.042 -0.000488281H77.7519H83.8391H84.4803L84.7766 0.58081L87.9741 6.86055L85.9793 10.964L85.623 6.92068L83.1979 2.12139H79.4618L86.8171 16.8142L94.8336 0.592264L95.1243 -0.000488281H95.7769H101.753H103.44L102.699 1.52291L98.0596 11.0528L96.8741 8.68176L100.066 2.12139H96.4295L93.9758 7.08104L102.816 24.7319L103.585 26.2696H101.875H95.7855H95.1442L94.8507 25.6883L91.6675 19.3914L93.6452 15.2994L94.0414 19.4172L96.4267 24.1477H100.166L92.8074 9.45205L84.7168 25.8172L84.4261 26.4099H83.7735H77.7975H76.1104L76.8513 24.8865L81.4908 15.3567L82.6763 17.7277L79.4846 24.288Z" fill="#2F6EFF"/>
</g>
<defs>
<clipPath id="clip0_3932_14299">
<rect width="103.001" height="26.2838" fill="white" transform="translate(0.5)"/>
</clipPath>
</defs>
</svg>
