<svg width="19" height="19" viewBox="0 0 19 19" fill="none" xmlns="http://www.w3.org/2000/svg">
<g clip-path="url(#clip0_11818_18718)">
<path d="M9.5001 7.97879C8.39496 7.97879 7.49585 8.8779 7.49585 9.98304C7.49585 11.0882 8.39496 11.9873 9.5001 11.9873C10.6052 11.9873 11.5044 11.0882 11.5044 9.98304C11.5044 8.8779 10.6052 7.97879 9.5001 7.97879Z" fill="white"/>
<path d="M6.89718 8.47983H5.4915V7.05377L1 9.98302L5.4915 12.9122V11.4862H6.89718C6.35917 10.5582 6.35843 9.40907 6.89718 8.47983Z" fill="white"/>
<path d="M7.99735 12.5857V13.9914H6.57129L9.50054 18.4829L12.4298 13.9914H11.0037V12.5857C10.0758 13.1237 8.92659 13.1245 7.99735 12.5857Z" fill="white"/>
<path d="M11.0037 7.38012V5.97441H12.4298L9.50054 1.48291L6.57129 5.97441H7.99735V7.38012C8.92532 6.84208 10.0745 6.84134 11.0037 7.38012Z" fill="white"/>
<path d="M17.9997 9.98296L13.5083 7.05371V8.47977H12.1025C12.6405 9.40774 12.6413 10.5569 12.1025 11.4861H13.5083V12.9122L17.9997 9.98296Z" fill="white"/>
</g>
<defs>
<clipPath id="clip0_11818_18718">
<rect width="17" height="17" fill="white" transform="translate(1 1.48291)"/>
</clipPath>
</defs>
</svg>
