<svg width="37" height="36" viewBox="0 0 37 36" fill="none" xmlns="http://www.w3.org/2000/svg">
<rect x="1.03928" y="0.35617" width="35.1869" height="35.1869" rx="5.75565" fill="white" fill-opacity="0.12"/>
<rect x="1.03928" y="0.35617" width="35.1869" height="35.1869" rx="5.75565" stroke="url(#paint0_radial_3722_16413)" stroke-width="0.488707"/>
<path fill-rule="evenodd" clip-rule="evenodd" d="M14.7673 13.8852C15.1187 14.2225 15.1187 14.7692 14.7673 15.1064L11.8037 17.9498L14.7673 20.7933C15.1187 21.1304 15.1187 21.6772 14.7673 22.0144C14.4158 22.3516 13.8459 22.3516 13.4945 22.0144L9.89446 18.5604C9.54299 18.2232 9.54299 17.6764 9.89446 17.3392L13.4945 13.8852C13.8459 13.548 14.4158 13.548 14.7673 13.8852Z" fill="white"/>
<path fill-rule="evenodd" clip-rule="evenodd" d="M14.7673 13.8852C15.1187 14.2225 15.1187 14.7692 14.7673 15.1064L11.8037 17.9498L14.7673 20.7933C15.1187 21.1304 15.1187 21.6772 14.7673 22.0144C14.4158 22.3516 13.8459 22.3516 13.4945 22.0144L9.89446 18.5604C9.54299 18.2232 9.54299 17.6764 9.89446 17.3392L13.4945 13.8852C13.8459 13.548 14.4158 13.548 14.7673 13.8852Z" fill="url(#paint1_linear_3722_16413)"/>
<path fill-rule="evenodd" clip-rule="evenodd" d="M22.495 13.8852C22.8465 13.548 23.4164 13.548 23.7678 13.8852L27.3678 17.3392C27.7193 17.6764 27.7193 18.2232 27.3678 18.5604L25.1178 20.7192C24.7664 21.0564 24.1965 21.0564 23.845 20.7192C23.4936 20.382 23.4936 19.8352 23.845 19.498L25.4586 17.9498L22.495 15.1064C22.1436 14.7692 22.1436 14.2225 22.495 13.8852Z" fill="white"/>
<path fill-rule="evenodd" clip-rule="evenodd" d="M22.495 13.8852C22.8465 13.548 23.4164 13.548 23.7678 13.8852L27.3678 17.3392C27.7193 17.6764 27.7193 18.2232 27.3678 18.5604L25.1178 20.7192C24.7664 21.0564 24.1965 21.0564 23.845 20.7192C23.4936 20.382 23.4936 19.8352 23.845 19.498L25.4586 17.9498L22.495 15.1064C22.1436 14.7692 22.1436 14.2225 22.495 13.8852Z" fill="url(#paint2_linear_3722_16413)"/>
<path fill-rule="evenodd" clip-rule="evenodd" d="M20.6491 10.2042C21.1314 10.3198 21.4246 10.7887 21.3041 11.2513L20.2232 15.4004C20.1026 15.8631 19.614 16.1444 19.1317 16.0288C18.6495 15.9131 18.3563 15.4443 18.4768 14.9817L19.5577 10.8325C19.6783 10.3699 20.1669 10.0886 20.6491 10.2042ZM18.8464 17.1226C19.3286 17.2382 19.6219 17.707 19.5013 18.1697L17.704 25.0674C17.5835 25.53 17.0948 25.8113 16.6126 25.6956C16.1304 25.58 15.8372 25.1112 15.9577 24.6486L17.7551 17.7509C17.8756 17.2882 18.3642 17.0069 18.8464 17.1226Z" fill="white"/>
<path fill-rule="evenodd" clip-rule="evenodd" d="M20.6491 10.2042C21.1314 10.3198 21.4246 10.7887 21.3041 11.2513L20.2232 15.4004C20.1026 15.8631 19.614 16.1444 19.1317 16.0288C18.6495 15.9131 18.3563 15.4443 18.4768 14.9817L19.5577 10.8325C19.6783 10.3699 20.1669 10.0886 20.6491 10.2042ZM18.8464 17.1226C19.3286 17.2382 19.6219 17.707 19.5013 18.1697L17.704 25.0674C17.5835 25.53 17.0948 25.8113 16.6126 25.6956C16.1304 25.58 15.8372 25.1112 15.9577 24.6486L17.7551 17.7509C17.8756 17.2882 18.3642 17.0069 18.8464 17.1226Z" fill="url(#paint3_linear_3722_16413)"/>
<path fill-rule="evenodd" clip-rule="evenodd" d="M9.89446 9.56785C10.2459 9.23064 10.8158 9.23064 11.1673 9.56785L27.3673 25.1109C27.7187 25.4481 27.7187 25.9948 27.3673 26.332C27.0158 26.6692 26.4459 26.6692 26.0945 26.332L9.89446 10.789C9.54299 10.4518 9.54299 9.90508 9.89446 9.56785Z" fill="white"/>
<path fill-rule="evenodd" clip-rule="evenodd" d="M9.89446 9.56785C10.2459 9.23064 10.8158 9.23064 11.1673 9.56785L27.3673 25.1109C27.7187 25.4481 27.7187 25.9948 27.3673 26.332C27.0158 26.6692 26.4459 26.6692 26.0945 26.332L9.89446 10.789C9.54299 10.4518 9.54299 9.90508 9.89446 9.56785Z" fill="url(#paint4_linear_3722_16413)"/>
<defs>
<radialGradient id="paint0_radial_3722_16413" cx="0" cy="0" r="1" gradientUnits="userSpaceOnUse" gradientTransform="translate(18.6327 17.9496) rotate(90) scale(20.3153 475.83)">
<stop stop-color="white"/>
<stop offset="1" stop-color="#01041A"/>
</radialGradient>
<linearGradient id="paint1_linear_3722_16413" x1="14.6383" y1="20.6608" x2="9.61758" y2="16.5613" gradientUnits="userSpaceOnUse">
<stop stop-color="#4C73FF"/>
<stop offset="1" stop-color="#81F0FF"/>
</linearGradient>
<linearGradient id="paint2_linear_3722_16413" x1="27.2388" y1="19.6065" x2="22.8868" y2="15.426" gradientUnits="userSpaceOnUse">
<stop stop-color="#4C73FF"/>
<stop offset="1" stop-color="#81F0FF"/>
</linearGradient>
<linearGradient id="paint3_linear_3722_16413" x1="20.9385" y1="22.8298" x2="13.9981" y2="19.6814" gradientUnits="userSpaceOnUse">
<stop stop-color="#4C73FF"/>
<stop offset="1" stop-color="#81F0FF"/>
</linearGradient>
<linearGradient id="paint4_linear_3722_16413" x1="26.3222" y1="23.3719" x2="16.5417" y2="10.0621" gradientUnits="userSpaceOnUse">
<stop stop-color="#4C73FF"/>
<stop offset="1" stop-color="#81F0FF"/>
</linearGradient>
</defs>
</svg>
