<svg width="215" height="52" viewBox="0 0 215 52" fill="none" xmlns="http://www.w3.org/2000/svg">
<g clip-path="url(#clip0_3768_18840)">
<path d="M34.1357 2.0161L20.5953 15.5694H34.1357V2.0161ZM34.1357 2.0161V5.72671M20.5639 0.0224609V51.3607M34.1357 29.1198L20.5953 15.5665M34.1357 29.1198V48.5499L20.5953 34.9966M34.1357 29.1198L20.5939 15.5665M34.1357 29.1198L34.1343 34.9182H39.9455V15.5665H20.5939M20.5953 15.5665V34.9966M20.5953 15.5665L7.05339 29.1198M20.5953 34.9966L7.05339 48.5499V29.1198M7.05339 29.1198L7.05196 34.9182H1.24219V15.5665H20.5939M7.05339 29.1198L20.5939 15.5665M20.5939 15.5694L7.05196 2.0161V15.5694H20.5939Z" stroke="white" stroke-width="1.42606" stroke-miterlimit="10"/>
<path d="M79.6187 18.6013C80.4643 17.0198 81.6465 15.8019 83.171 14.9449C84.6926 14.0907 86.478 13.6628 88.5259 13.6628C90.5737 13.6628 92.2693 14.0835 93.6882 14.9263C95.1086 15.7691 96.171 16.8857 96.874 18.2762C97.5771 19.668 97.9293 21.1925 97.9293 22.8495V25.1455H81.9988C82.1271 27.1363 82.7988 28.7192 84.0138 29.8929C85.2288 31.0679 86.8602 31.654 88.9095 31.654C90.5723 31.654 91.8472 31.3161 92.7285 30.6401C93.6126 29.9642 94.2572 29.0272 94.6679 27.8265H98.3158C97.8295 29.6889 96.8384 31.3047 95.341 32.6694C93.8451 34.0356 91.7003 34.7172 88.9109 34.7172C86.8117 34.7172 84.9621 34.2894 83.3621 33.4352C81.7635 32.581 80.5271 31.3617 79.6572 29.7788C78.7873 28.1958 78.3523 26.3334 78.3523 24.1886C78.3523 22.0438 78.7744 20.1828 79.6201 18.5999L79.6187 18.6013ZM94.0918 22.2748C94.0918 20.5393 93.644 19.1817 92.7484 18.1977C91.8529 17.2152 90.4453 16.7246 88.5244 16.7246C86.7333 16.7246 85.2673 17.2023 84.1293 18.1592C82.9899 19.1161 82.2925 20.4894 82.0373 22.2748H94.0918ZM102.715 14.2361V17.4134C102.715 17.5931 102.805 17.6815 102.985 17.6815C103.087 17.6815 103.163 17.6558 103.216 17.6045C103.269 17.5531 103.318 17.4519 103.368 17.2993C104.033 15.2073 105.684 14.1605 108.321 14.1605H110.009V17.6045H107.82C106.105 17.6045 104.826 18.0123 103.98 18.8295C103.134 19.6466 102.712 20.9857 102.712 22.8495V34.1425H99.257V14.2347H102.715V14.2361ZM130.298 29.9499C129.39 31.5442 128.212 32.7379 126.766 33.5279C125.32 34.3179 123.764 34.7144 122.101 34.7144C118.825 34.7144 116.521 33.4138 115.19 30.8098C115.088 30.6073 114.959 30.5046 114.807 30.5046C114.654 30.5046 114.576 30.5816 114.576 30.7342V41.414H111.12V14.2375H114.576V17.6444C114.576 17.797 114.653 17.874 114.807 17.874C114.961 17.874 115.088 17.7713 115.19 17.5688C116.521 14.9648 118.825 13.6643 122.101 13.6643C123.764 13.6643 125.32 14.0607 126.766 14.8507C128.212 15.6408 129.388 16.8344 130.298 18.4302C131.206 20.0245 131.661 21.9468 131.661 24.19C131.661 26.4332 131.206 28.3541 130.298 29.9499ZM126.305 18.6954C125.037 17.3806 123.367 16.7232 121.295 16.7232C119.223 16.7232 117.552 17.3806 116.286 18.6954C115.018 20.0102 114.553 21.8413 114.553 24.1886C114.553 26.5359 115.018 28.3684 116.286 29.6818C117.553 30.9966 119.223 31.654 121.295 31.654C123.367 31.654 125.039 30.9981 126.305 29.6818C127.573 28.367 128.206 26.5359 128.206 24.1886C128.206 21.8413 127.573 20.0102 126.305 18.6954ZM136.675 6.57959V34.1411H133.22V6.58244H136.675V6.57959ZM139.52 18.5999C140.365 17.0184 141.548 15.8005 143.073 14.9434C144.594 14.0892 146.38 13.6614 148.426 13.6614C150.473 13.6614 152.171 14.0821 153.59 14.9249C155.01 15.7677 156.073 16.8843 156.776 18.2747C157.48 19.6666 157.831 21.191 157.831 22.8481V25.1441H141.901C142.029 27.1348 142.701 28.7178 143.916 29.8914C145.131 31.0665 146.762 31.6526 148.811 31.6526C150.474 31.6526 151.747 31.3146 152.63 30.6387C153.514 29.9627 154.159 29.0258 154.57 27.8251H158.218C157.731 29.6875 156.739 31.3032 155.243 32.668C153.747 34.0341 151.602 34.7158 148.813 34.7158C146.713 34.7158 144.864 34.288 143.264 33.4338C141.665 32.5796 140.429 31.3603 139.559 29.7773C138.689 28.1944 138.254 26.332 138.254 24.1872C138.254 22.0424 138.676 20.1814 139.522 18.5984H139.52V18.5999ZM153.994 22.2734C153.994 20.5379 153.546 19.1803 152.65 18.1963C151.755 17.2137 150.347 16.7232 148.426 16.7232C146.636 16.7232 145.169 17.2009 144.031 18.1578C142.892 19.1147 142.196 20.488 141.939 22.2734H153.994ZM156.294 33.3753L164.201 23.6125L157.714 15.0005V14.2347H161.515L166.929 21.6602L172.765 14.2347H176.641V15.039L169.194 24.1886L176.066 33.3753V34.1411H172.343L166.469 26.1409L160.174 34.1411H156.297V33.3753H156.294ZM181.658 7.75609V12.0642H177.622V7.75609H181.658ZM181.448 34.1425H177.991V14.2361H181.448V34.1425ZM182.538 14.2361H186.297V8.87698H189.753V14.2361H193.709L194.681 17.1538H189.753V26.6771C189.753 27.9777 189.721 28.9417 189.656 29.5677C189.592 30.1938 189.561 30.5702 189.561 30.6972C189.561 30.8768 189.611 31.0166 189.714 31.1178C189.816 31.2205 189.956 31.2704 190.137 31.2704C190.264 31.2704 190.642 31.2391 191.269 31.1749C191.895 31.1107 192.862 31.0793 194.169 31.0793H195.512V34.1411H192.825C190.623 34.1411 188.985 33.6063 187.911 32.5325C186.837 31.4601 186.298 29.8287 186.298 27.6325V17.1524H182.54V14.2347H182.538V14.2361ZM194.75 14.2361H198.273L203.993 30.9367C204.071 31.1421 204.192 31.4116 204.585 31.4116C204.977 31.4116 205.098 31.1407 205.175 30.9367L210.895 14.2361H214.18V15.0019L207.025 36.477C206.41 38.3152 205.547 39.5972 204.435 40.3245C203.321 41.0518 202.028 41.4154 199.876 41.4154H196.191V38.3537H198.994C199.89 38.3537 200.619 38.3851 201.182 38.4492C201.744 38.5134 202.103 38.5448 202.257 38.5448C202.692 38.5448 202.986 38.3537 203.141 37.9715L204.217 35.0623C204.345 34.7572 204.356 34.5276 204.255 34.3721C204.204 34.2694 204.141 34.2053 204.064 34.181C203.987 34.1554 203.871 34.1425 203.719 34.1425H201.377L194.753 14.2375H194.75V14.2361ZM76.1562 29.9827C75.2478 31.577 74.0699 32.7706 72.6238 33.5607C71.1778 34.3507 69.622 34.7472 67.9592 34.7472C64.6835 34.7472 62.379 33.4466 61.0485 30.8426C60.9458 30.6401 60.8175 30.5374 60.6649 30.5374C60.5123 30.5374 60.4339 30.6144 60.4339 30.767V41.4468H56.9785V14.2703H60.4339V17.6772C60.4339 17.8298 60.5109 17.9068 60.6649 17.9068C60.8189 17.9068 60.9458 17.8041 61.0485 17.6016C62.3776 14.9976 64.6835 13.6971 67.9592 13.6971C69.622 13.6971 71.1778 14.0935 72.6238 14.8835C74.0699 15.6736 75.2464 16.8672 76.1562 18.4615C77.0646 20.0559 77.5195 21.9782 77.5195 24.2228C77.5195 26.4675 77.0646 28.3884 76.1562 29.9827ZM72.1632 18.7282C70.8955 17.4134 69.2255 16.756 67.1535 16.756C65.0814 16.756 63.4101 17.4134 62.1437 18.7282C60.8759 20.043 60.411 21.8741 60.411 24.2214C60.411 26.5687 60.8759 28.4012 62.1437 29.7146C63.4115 31.0294 65.0814 31.6868 67.1535 31.6868C69.2255 31.6868 70.8969 31.0309 72.1632 29.7146C73.431 28.3998 74.0642 26.5687 74.0642 24.2214C74.0642 21.8741 73.431 20.043 72.1632 18.7282Z" fill="white"/>
</g>
<defs>
<clipPath id="clip0_3768_18840">
<rect width="213.865" height="51.3831" fill="white" transform="translate(0.421875)"/>
</clipPath>
</defs>
</svg>
