<svg width="24" height="25" viewBox="0 0 24 25" fill="none" xmlns="http://www.w3.org/2000/svg">
<g clip-path="url(#clip0_3932_14373)">
<path fill-rule="evenodd" clip-rule="evenodd" d="M11.142 0.299081C11.6952 0.0917125 12.3048 0.0917125 12.858 0.299081L21.4136 3.50741C21.8796 3.68211 22.2812 3.9949 22.5647 4.40398C22.8482 4.81306 23.0001 5.29893 23 5.79664V12.3514C23 14.3943 22.4312 16.3968 21.3573 18.1345C20.2833 19.8723 18.7466 21.2767 16.9194 22.1903L12.8201 24.2387C12.5655 24.3661 12.2847 24.4324 12 24.4324C11.7153 24.4324 11.4345 24.3661 11.1799 24.2387L7.08056 22.1891C5.25338 21.2755 3.71672 19.8711 2.64275 18.1333C1.56879 16.3956 0.999956 14.393 1 12.3502V5.79786C0.99969 5.29994 1.15144 4.8138 1.43495 4.40448C1.71846 3.99516 2.12021 3.68218 2.58644 3.50741L11.142 0.299081ZM13.2222 11.9554C13.6882 11.6863 14.0524 11.271 14.2583 10.7739C14.4642 10.2768 14.5003 9.7256 14.361 9.20585C14.2218 8.6861 13.9149 8.22682 13.488 7.89925C13.0611 7.57167 12.5381 7.3941 12 7.39408C11.4619 7.3941 10.9389 7.57167 10.512 7.89925C10.0851 8.22682 9.77823 8.6861 9.63896 9.20585C9.49969 9.7256 9.53581 10.2768 9.74171 10.7739C9.94761 11.271 10.3118 11.6863 10.7778 11.9554V15.9496C10.7778 16.2738 10.9065 16.5847 11.1358 16.8139C11.365 17.0431 11.6758 17.1719 12 17.1719C12.3242 17.1719 12.635 17.0431 12.8642 16.8139C13.0935 16.5847 13.2222 16.2738 13.2222 15.9496V11.9554Z" fill="url(#paint0_linear_3932_14373)"/>
</g>
<defs>
<linearGradient id="paint0_linear_3932_14373" x1="3.35714" y1="1.44474" x2="19.6607" y2="23.7818" gradientUnits="userSpaceOnUse">
<stop stop-color="#3FADFF"/>
<stop offset="0.49489" stop-color="#336CDC"/>
<stop offset="1" stop-color="#47B4B4"/>
</linearGradient>
<clipPath id="clip0_3932_14373">
<rect width="24" height="24" fill="white" transform="translate(0 0.283691)"/>
</clipPath>
</defs>
</svg>
