<svg width="193" height="50" viewBox="0 0 193 50" fill="none" xmlns="http://www.w3.org/2000/svg">
<g opacity="0.65" clip-path="url(#clip0_3722_16014)">
<mask id="mask0_3722_16014" style="mask-type:luminance" maskUnits="userSpaceOnUse" x="-1" y="-1" width="194" height="51">
<path d="M-0.173828 -0.219482H192.435V49.6096H-0.173828V-0.219482Z" fill="white"/>
</mask>
<g mask="url(#mask0_3722_16014)">
<path fill-rule="evenodd" clip-rule="evenodd" d="M189.23 22.8968C189.157 21.0907 187.701 19.5002 185.516 19.5002C183.113 19.5002 181.73 21.0179 181.512 22.8959H189.23V22.8968ZM185.59 16.755C189.521 16.755 192.435 19.6449 192.435 23.6193C192.435 23.9095 192.435 24.4136 192.361 24.6311C192.361 24.9914 191.997 25.2817 191.706 25.2817H181.293C181.293 27.3053 183.187 29.328 185.808 29.328C187.555 29.328 188.575 28.6783 189.521 28.1005C189.813 27.883 190.105 27.8102 190.396 28.1724L191.267 29.5463C191.56 29.8339 191.633 30.1223 191.196 30.5572C190.103 31.4972 188.137 32.4362 185.59 32.4362C181.001 32.4362 178.089 28.8958 178.089 24.6311C178.089 20.3682 181.003 16.755 185.59 16.755ZM165.203 30.9175C164.985 30.7738 164.765 30.4844 164.911 30.1223L165.567 28.7502C165.712 28.4617 166.149 28.318 166.512 28.5345C167.388 29.0395 168.478 29.6173 170.225 29.6173C171.463 29.6173 172.192 29.0377 172.192 28.1724C172.192 27.1615 171.026 26.5109 168.988 25.571C166.657 24.5583 164.911 23.3318 164.911 20.8741C164.911 18.9943 166.22 16.826 169.862 16.826C171.973 16.826 173.503 17.4766 174.23 17.9106C174.594 18.199 174.741 18.6331 174.521 18.9943L174.012 20.0052C173.794 20.4392 173.357 20.4392 173.065 20.2954C172.047 19.8614 171.026 19.5739 169.862 19.5739C168.552 19.5739 167.97 20.2226 167.97 20.8741C167.97 21.8122 169.06 22.39 170.517 23.0424C173.283 24.1971 175.397 25.2089 175.397 27.9549C175.397 30.2679 173.357 32.2915 170.007 32.2915C167.751 32.4362 166.076 31.4972 165.201 30.9175H165.203ZM154.643 29.7611C156.173 29.7611 157.702 28.6783 158.14 27.9558V25.4982C157.921 25.3535 156.753 24.9914 155.373 24.9914C153.624 24.9914 152.24 25.9332 152.24 27.449C152.313 28.7502 153.116 29.7611 154.643 29.7611ZM155.155 22.6075C156.682 22.6075 158.211 23.0406 158.211 23.0406C158.285 20.6567 157.702 19.6467 155.808 19.6467C154.061 19.6467 152.387 20.1517 151.586 20.3682C151.149 20.4392 150.858 20.1517 150.713 19.7177L150.42 18.4893C150.349 17.9834 150.567 17.7668 150.931 17.6203C151.221 17.5494 153.334 16.755 156.1 16.755C160.906 16.755 161.343 19.6449 161.343 23.3299V31.2788C161.317 31.6667 161.005 31.9763 160.614 32.0021H159.522C159.23 32.0021 159.085 31.8584 158.938 31.4972L158.576 30.4844C157.34 31.7082 155.661 32.3855 153.916 32.3624C151.076 32.3624 149.037 30.4844 149.037 27.3781C149.11 24.7039 151.295 22.6093 155.155 22.6093V22.6075ZM141.028 16.755C143.359 16.755 145.106 17.6203 146.489 19.3546C146.781 19.7177 146.705 20.1498 146.344 20.4392L145.179 21.5247C144.742 21.885 144.45 21.5957 144.231 21.3791C143.577 20.6567 142.339 19.8614 141.101 19.8614C138.553 19.8614 136.512 21.9578 136.512 24.5583C136.512 27.2325 138.48 29.328 140.956 29.328C142.922 29.328 143.722 28.2452 144.523 27.449C144.813 27.1597 145.179 27.1597 145.541 27.3762L146.562 28.1724C146.925 28.4617 147.071 28.823 146.852 29.2561C145.614 31.1341 143.577 32.3624 140.956 32.3624C136.732 32.3624 133.237 29.0395 133.237 24.5583C133.31 20.2226 136.877 16.755 141.029 16.755H141.028ZM126.32 10.1055C126.32 9.74521 126.611 9.38398 127.047 9.38398H128.868C129.258 9.41071 129.568 9.71849 129.595 10.1055V31.3534C129.568 31.7404 129.258 32.0482 128.868 32.0749H127.049C126.647 32.0749 126.32 31.7506 126.32 31.3516V10.1055ZM118.31 10.1055C118.31 9.74521 118.602 9.38398 119.038 9.38398H120.859C121.249 9.41071 121.559 9.71849 121.586 10.1055V31.3534C121.559 31.7404 121.249 32.0482 120.859 32.0749H119.04C118.638 32.0749 118.31 31.7506 118.31 31.3516V10.1055ZM107.098 29.7611C108.626 29.7611 110.154 28.6783 110.592 27.9558V25.4982C110.374 25.3535 109.208 24.9914 107.825 24.9914C106.077 24.9914 104.695 25.9332 104.695 27.449C104.695 28.7502 105.495 29.7611 107.098 29.7611ZM107.535 22.6075C109.063 22.6075 110.592 23.0406 110.592 23.0406C110.665 20.6567 110.083 19.6467 108.189 19.6467C106.442 19.6467 104.768 20.1517 103.968 20.3682C103.53 20.4392 103.238 20.1517 103.093 19.7177L102.801 18.4893C102.729 17.9834 102.945 17.7668 103.311 17.6203C103.602 17.5494 105.714 16.755 108.48 16.755C113.286 16.755 113.796 19.6449 113.796 23.3299V31.2788C113.769 31.6667 113.459 31.9754 113.068 32.0021H111.975C111.684 32.0021 111.54 31.8584 111.321 31.4972L110.956 30.4844C109.72 31.7082 108.041 32.3846 106.297 32.3624C103.456 32.3624 101.418 30.4844 101.418 27.3781C101.491 24.7039 103.675 22.6093 107.535 22.6093V22.6075ZM75.4974 17.8378C75.4974 17.4766 75.7871 17.1163 76.2244 17.1163H76.9524C77.3163 17.1163 77.5364 17.26 77.6079 17.5494L78.0452 18.8496C78.3349 18.4893 79.9375 16.755 82.8511 16.755C85.0349 16.755 86.345 17.6203 87.4378 19.1399C87.8751 18.7059 89.6226 16.755 92.5334 16.755C97.1229 16.755 98.2873 19.9342 98.2873 23.8368V31.3516C98.2873 31.7506 97.9604 32.0749 97.5584 32.0749H95.7395C95.3021 32.0749 95.0097 31.7856 95.0097 31.3516V23.6921C95.0097 21.3072 94.0645 19.8614 92.0255 19.8614C89.7674 19.8614 88.6755 21.3791 88.384 21.5957C88.4573 21.885 88.5288 22.824 88.5288 23.6193V31.3534C88.5288 31.7119 88.2382 32.0749 87.8751 32.0749H85.981C85.5437 32.0749 85.254 31.7856 85.254 31.3516V23.6921C85.254 21.2344 84.3794 19.8614 82.2671 19.8614C80.0108 19.8614 78.8456 21.5247 78.7007 22.0315V31.3516C78.6747 31.7395 78.3627 32.0491 77.9718 32.0749H76.1529C75.75 32.0749 75.4241 31.7506 75.4241 31.3516V17.8378H75.4974ZM61.7344 30.9175C61.5171 30.7738 61.2971 30.4844 61.4438 30.1223L62.0983 28.7502C62.245 28.4617 62.6824 28.318 63.0463 28.5345C63.9182 29.0395 65.0119 29.6173 66.7584 29.6173C67.997 29.6173 68.7241 29.0377 68.7241 28.1724C68.7241 27.1615 67.5597 26.5109 65.5208 25.571C63.1912 24.5583 61.4438 23.3318 61.4438 20.8741C61.4438 18.9943 62.7539 16.826 66.3945 16.826C68.5059 16.826 70.036 17.4766 70.763 17.9106C71.127 18.199 71.2737 18.6331 71.0555 18.9943L70.5448 20.0052C70.3276 20.4392 69.8912 20.4392 69.5987 20.2954C68.5811 19.8614 67.5597 19.5739 66.3945 19.5739C65.0853 19.5739 64.5013 20.2226 64.5013 20.8741C64.5013 21.8122 65.5941 22.39 67.0509 23.0424C69.8178 24.1971 71.9283 25.2089 71.9283 27.9549C71.9283 30.2679 69.8912 32.2915 66.5393 32.2915C64.284 32.4362 62.609 31.4972 61.7344 30.9175ZM21.5372 6.44717L29.9103 10.4852C30.3244 10.6851 30.498 11.18 30.2956 11.591C30.2167 11.7532 30.0876 11.8858 29.9252 11.9679L21.8027 16.0943C21.5622 16.2123 21.28 16.2123 21.0395 16.0943L12.6673 12.0582C12.2532 11.8582 12.0795 11.3624 12.281 10.9514C12.3599 10.7893 12.4899 10.6584 12.6515 10.5764L20.7739 6.44901C21.0144 6.33014 21.2967 6.32922 21.5372 6.44717ZM21.5975 21.7827L41.4162 11.7135C41.8247 11.5043 41.9863 11.0058 41.7746 10.5985C41.6929 10.4391 41.561 10.3119 41.3985 10.2336L21.7507 0.759687C21.5112 0.640814 21.2298 0.640814 20.9903 0.759687L1.17161 10.8243C0.762144 11.0335 0.599658 11.532 0.809497 11.9384C0.892133 12.0987 1.02491 12.2286 1.18832 12.307L20.8445 21.779C21.0813 21.8952 21.3598 21.8952 21.5975 21.779V21.7827ZM38.2509 29.0377C38.1015 32.4739 36.2194 35.6043 33.2445 37.3662C30.486 38.7733 28.2483 37.3312 28.2502 34.1363C28.3978 30.701 30.2798 27.5688 33.2566 25.8069C36.0142 24.3998 38.2509 25.8484 38.2509 29.0358V29.0377ZM44.1004 37.6823V15.2871C44.0967 14.8245 43.7161 14.4522 43.25 14.4559C43.1162 14.4568 42.9844 14.4891 42.8656 14.5499L22.8705 24.7592C22.591 24.8992 22.4155 25.1831 22.4146 25.4936V47.8888C22.4183 48.3513 22.799 48.7236 23.2651 48.7199C23.3988 48.719 23.5306 48.6868 23.6495 48.626L43.6511 38.4176C43.9277 38.2748 44.1004 37.9919 44.1004 37.6823ZM13.1798 39.6487L4.17992 35.326C3.76489 35.1269 3.59033 34.633 3.78903 34.2211C3.80667 34.187 3.82524 34.1538 3.8466 34.1225L8.35164 27.4979C8.61533 27.1127 9.14364 27.0122 9.53175 27.2739C9.66824 27.3661 9.77502 27.4951 9.83816 27.6462L14.3441 38.5862C14.5298 39.0046 14.3386 39.4939 13.917 39.6782C13.6793 39.7823 13.4064 39.7704 13.1798 39.6469V39.6487Z" fill="white"/>
</g>
</g>
<defs>
<clipPath id="clip0_3722_16014">
<rect width="192.34" height="48.8325" fill="white" transform="translate(0.325195 0.278931)"/>
</clipPath>
</defs>
</svg>
