<svg width="145" height="38" viewBox="0 0 145 38" fill="none" xmlns="http://www.w3.org/2000/svg">
<g clip-path="url(#clip0_3768_18823)">
<path fill-rule="evenodd" clip-rule="evenodd" d="M11.821 28.5813C18.1921 28.5813 21.1902 25.623 21.1902 21.4168C21.1902 17.9602 19.2327 15.3767 12.4031 14.1288C6.53043 13.1281 5.28254 11.5891 5.28254 9.38041C5.28254 6.88063 7.36369 5.34169 10.6967 5.34169C14.9866 5.34169 16.6531 7.5903 17.4864 11.4616L20.4447 10.8795C19.444 6.17495 16.9043 2.67446 10.8243 2.67446C5.36626 2.67845 2.24054 5.4294 2.24054 9.46812C2.24054 13.0483 4.48915 15.6319 11.3187 16.796C16.3581 17.6293 18.1482 18.921 18.1482 21.5444C18.1482 24.1678 16.0671 25.8742 11.9446 25.8742C7.15637 25.8742 4.44928 23.2109 3.73961 18.8772L0.825195 19.4593C1.49101 24.706 4.86391 28.4975 11.821 28.5813ZM96.3231 28.8324C101.111 28.8324 103.986 26.4602 104.987 22.5013L102.403 21.7517C101.693 24.2515 100.155 26.2489 96.3231 26.2489C92.1568 26.2489 89.7009 23.793 89.37 19.5868H105.027C105.066 18.7974 105.11 18.0479 105.11 17.5456C105.11 12.1752 101.905 8.55114 96.2394 8.55114C90.574 8.55114 86.4955 12.3825 86.4955 18.7536C86.4955 25.1246 90.3269 28.8324 96.3231 28.8324ZM89.4537 17.2146C89.9122 13.1759 92.3681 11.0948 96.1597 11.0948C100.159 11.0948 102.2 13.3434 102.407 17.2146H89.4577H89.4537ZM69.6748 2.59473H72.5493V17.2545H72.7566L82.1697 8.75846H85.7938V8.84218L75.093 18.3788L86.5872 28.0391V28.1228H82.8793L72.7606 19.543H72.5533V28.1228H69.6788V2.59473H69.6748ZM57.136 27.8756C55.5532 31.5395 54.094 32.0818 51.8055 32.0818C50.9723 32.0818 50.2227 31.9582 49.3496 31.7907L48.935 34.5377C49.7244 34.6613 50.5576 34.7889 51.7657 34.7889C55.4735 34.7889 57.8058 32.915 59.7634 28.374L68.1757 8.75846H65.0938L62.4266 15.6717C61.4259 18.2114 59.887 21.959 58.6789 25.1246C57.3473 22.0826 55.6808 18.1276 54.6402 15.588L51.8095 8.75846H48.6041L57.14 27.8716L57.136 27.8756ZM39.809 8.75846H36.9344V28.1228H39.809V17.5017C39.809 13.463 41.643 11.8802 45.5142 11.8802H47.097V8.75846H45.7654C42.5599 8.75846 40.6024 10.425 39.8927 14.38H39.809V8.75846ZM22.6933 11.3021H25.815V22.4614C25.815 26.0855 27.5653 28.5813 31.4365 28.5813C33.0592 28.5813 34.0998 28.3301 35.4354 27.9553L35.0207 25.332C33.8964 25.6669 33.0632 25.8303 31.9389 25.8303C29.6065 25.8303 28.6896 24.5824 28.6896 22.2062V11.2941H35.2281V8.75447H28.6896V3.22067H25.815V8.75846H22.6933V11.2981V11.3021Z" fill="white"/>
<path fill-rule="evenodd" clip-rule="evenodd" d="M111.205 34.1229H116.292L119.824 27.0143L107.465 2.44711L106.389 0.306152H108.781H117.297H118.194L118.608 1.11549L123.082 9.85874L120.291 15.5719L119.793 9.94246L116.4 3.26044H111.173L121.463 23.7172L132.678 1.13144L133.085 0.306152H133.998H142.358H144.719L143.682 2.42718L137.191 15.6955L135.533 12.3944L139.998 3.26044H134.911L131.478 10.1657L143.845 34.7409L144.922 36.8819H142.53H134.01H133.113L132.702 36.0725L128.249 27.3054L131.016 21.6081L131.57 27.3412L134.907 33.9276H140.138L129.844 13.4669L118.525 36.2519L118.118 37.0772H117.205H108.845H106.484L107.521 34.9562L114.012 21.6878L115.67 24.989L111.205 34.1229Z" fill="white"/>
</g>
<defs>
<clipPath id="clip0_3768_18823">
<rect width="144.098" height="36.7711" fill="white" transform="translate(0.825195 0.306152)"/>
</clipPath>
</defs>
</svg>
