<svg width="238" height="25" viewBox="0 0 238 25" fill="none" xmlns="http://www.w3.org/2000/svg">
<g opacity="0.65" clip-path="url(#clip0_3722_15960)">
<path d="M50.952 16.3105H53.3243V23.9918H33.8901V21.1691H36.5988V4.2212H32.1907L26.5395 23.9918H22.0231L17.3927 7.60849L12.6482 23.9918H8.13179L2.4863 4.2212H0V1.5125H10.504V4.33525H7.45319L11.2967 17.8901L15.8131 1.5068H20.4435L25.074 17.9985L28.8034 4.32954H25.6385V1.5125H52.9764V8.85735H50.6042L50.3761 7.95635C49.6975 5.24765 48.9048 4.34095 46.7607 4.34095H41.4516V11.1212H47.9012C48.1293 11.5717 48.2376 12.1363 48.2376 12.7008C48.2376 13.2654 48.1236 13.8299 47.9012 14.2804H41.463V21.2831H47.0002C49.1443 21.2831 50.051 20.3821 50.7296 17.5537L50.952 16.3105ZM71.4013 17.4396C70.7227 20.2624 69.8217 21.1691 67.6718 21.1691H63.1554V4.2212H66.2063V1.5125H55.5825V4.33525H58.2912V21.2831H55.5825V24.1059H73.8819V16.4246H71.5096L71.4013 17.4396ZM91.7364 17.4396C91.0578 20.2624 90.1569 21.1691 88.007 21.1691H83.4906V4.2212H86.5415V1.5125H75.9234V4.33525H78.6321V21.2831H75.9234V24.1059H94.2227V16.4246H91.8505L91.7364 17.4396ZM108.679 10.7734L104.613 9.87239C102.24 9.30784 101.225 8.40114 101.225 6.82155C101.225 4.8998 102.697 3.7707 105.742 3.7707C108.679 3.7707 110.486 4.78575 111.165 7.3861L111.501 8.51519H113.874V2.864C111.387 1.5068 108.565 0.828197 105.628 0.828197C100.091 0.828197 96.5893 3.42855 96.5893 7.71684C96.5893 10.9958 98.6251 13.4764 102.577 14.269L106.643 15.17C109.243 15.7346 110.258 16.7496 110.258 18.449C110.258 20.5931 108.679 21.7279 105.514 21.7279C101.898 21.7279 100.091 20.2567 99.298 17.548L98.8475 16.1908H96.4752V22.5149C99.412 23.9861 102.691 24.659 105.964 24.659C111.387 24.659 114.889 21.9503 114.889 17.7704C114.894 14.1664 112.75 11.7941 108.679 10.7734ZM139.86 4.2212C142.004 4.2212 142.797 5.12219 143.475 7.83659L143.704 8.73759H146.076V1.5125H126.533V4.33525H129.242V21.2831H126.533V24.1059H137.265V21.2831H133.986V14.7309H140.653C140.881 14.2804 140.989 13.7159 140.989 13.1513C140.989 12.5868 140.875 12.1363 140.653 11.5717H133.986V4.2212H139.86ZM189.004 21.5055C189.341 22.2982 189.341 23.3132 189.004 24.1059C188.212 24.2199 187.311 24.2199 186.518 24.2199C183.353 24.2199 181.888 22.9768 181.545 19.9259L181.431 18.7968C181.095 15.5179 179.96 14.2804 176.459 14.2804H174.651V21.1691H177.702V23.9918H157.367V21.1691H159.967L158.496 17.1032H150.136L148.665 21.1691H151.373V23.9918H142.785V21.1691H145.044L152.953 1.39845H157.247L165.27 21.1691H169.678V4.2212H166.97V1.5125H179.96C184.591 1.5125 187.527 3.7707 187.527 7.50015C187.527 11.1155 184.477 13.0373 181.654 13.2597V13.3737C184.591 13.6018 185.834 15.2955 186.062 17.7818L186.176 19.0249C186.404 20.9467 186.74 21.7336 188.212 21.7336C188.554 21.6196 188.782 21.5055 189.004 21.5055ZM157.487 14.5028L154.322 5.91484L151.157 14.5028H157.487ZM182.794 7.83659C182.794 5.46435 181.323 4.2212 178.386 4.2212H174.543V11.566H178.386C181.209 11.566 182.794 10.2088 182.794 7.83659ZM202 13.7102C202 14.2747 202.114 14.8393 202.337 15.2898H206.18V21.0493C204.937 21.4998 203.694 21.842 202.337 21.842C197.706 21.842 195.22 18.563 195.22 12.8035C195.22 7.04394 197.592 3.76499 202 3.76499C204.601 3.65094 206.859 5.23625 207.652 7.71684L207.988 8.61784H210.36V2.75565C207.76 1.39845 204.823 0.719849 201.772 0.719849C194.656 0.719849 189.911 5.46435 189.911 12.6951C189.911 20.04 194.541 24.6704 201.772 24.6704C204.937 24.5564 207.988 23.7694 210.811 22.2982V12.2446H202.223C202.109 12.6951 202 13.2597 202 13.7102ZM237.926 12.6951C237.926 19.3614 232.503 24.6704 225.951 24.6704C219.285 24.6704 213.976 19.3614 213.976 12.6951C213.976 6.0289 219.399 0.719849 225.951 0.719849C232.617 0.719849 237.926 6.14295 237.926 12.6951ZM232.617 12.6951C232.617 6.9356 230.245 3.65665 225.951 3.65665C221.657 3.65665 219.285 6.9356 219.285 12.6951C219.285 18.4547 221.657 21.7336 225.951 21.7336C230.239 21.7336 232.617 18.4547 232.617 12.6951Z" fill="white"/>
</g>
<defs>
<clipPath id="clip0_3722_15960">
<rect width="237.926" height="23.9506" fill="white" transform="translate(0 0.719849)"/>
</clipPath>
</defs>
</svg>
