<svg width="19" height="12" viewBox="0 0 19 12" fill="none" xmlns="http://www.w3.org/2000/svg">
<path d="M7.90037 2.45789L7.98732 2.44544C8.0163 2.44128 8.04528 2.44128 8.07427 2.43713C8.13223 2.43298 8.18606 2.42468 8.23988 2.42052C8.29371 2.41637 8.34339 2.41222 8.39308 2.40807C8.41792 2.40807 8.44276 2.40391 8.4676 2.40391C8.49244 2.40391 8.51315 2.39976 8.53385 2.39976C8.57525 2.39976 8.61666 2.39561 8.65392 2.39561C8.69118 2.39561 8.72431 2.39146 8.75743 2.39146H8.96031C9.02241 2.39146 9.0721 2.33748 9.06796 2.2752L8.93133 0.153438C8.92719 0.0911558 8.87336 0.0454819 8.81125 0.0537863C8.78227 0.0579384 8.75329 0.0620907 8.71603 0.0662429C8.6829 0.0703951 8.64564 0.0745474 8.60424 0.0786995C8.55869 0.0870039 8.50487 0.0953082 8.45104 0.0994604C8.39722 0.107765 8.33925 0.116069 8.27715 0.124373C8.24402 0.128526 8.21504 0.132678 8.18606 0.140982C8.15707 0.145134 8.12395 0.153438 8.09497 0.157591C8.03286 0.170047 7.96662 0.182504 7.89623 0.19496C7.82998 0.211569 7.7596 0.228178 7.68921 0.244786C7.65195 0.253091 7.61883 0.261395 7.58156 0.269699C7.5443 0.278004 7.50703 0.29046 7.46977 0.298764C7.39524 0.319525 7.32072 0.340286 7.24205 0.361047C7.16752 0.38596 7.08886 0.406721 7.01019 0.431634C6.97293 0.444091 6.93152 0.456547 6.89012 0.469003C6.85286 0.48146 6.81145 0.493916 6.77005 0.510525C6.72864 0.522981 6.69138 0.53959 6.64998 0.552047C6.60857 0.564503 6.57131 0.581112 6.52991 0.593568C6.45124 0.622634 6.37257 0.655851 6.2939 0.684916C6.21524 0.713982 6.13657 0.751351 6.0579 0.784568C6.02064 0.801177 5.97924 0.817786 5.94197 0.834394C5.90471 0.851003 5.86745 0.867612 5.82604 0.888373C5.78878 0.904981 5.75151 0.92159 5.71425 0.942351C5.67699 0.95896 5.63973 0.975568 5.60246 0.996329C5.52794 1.0337 5.45755 1.07107 5.38716 1.10429C5.31678 1.14166 5.25053 1.17902 5.18428 1.21639C5.11804 1.25376 5.05179 1.28698 4.98969 1.32435C4.92758 1.36172 4.86547 1.39909 4.80751 1.43231C4.74954 1.46552 4.69572 1.50289 4.64189 1.53611C4.58807 1.56933 4.53838 1.60255 4.4887 1.63161C4.44316 1.66483 4.39761 1.69389 4.35621 1.72296C4.3148 1.75202 4.2734 1.78109 4.24028 1.806C4.20301 1.83091 4.16989 1.85583 4.14091 1.87659C4.0995 1.90565 4.06638 1.93057 4.0374 1.95133C3.99185 1.98455 3.97943 2.05098 4.01256 2.09665L4.89032 3.39213C4.92344 3.43781 4.9814 3.45441 5.03109 3.42535C5.05179 3.41289 5.08077 3.39628 5.10976 3.37967C5.1346 3.36307 5.16358 3.34646 5.1967 3.32985C5.22983 3.31324 5.26295 3.29663 5.30021 3.27587C5.33748 3.25511 5.37474 3.23435 5.41614 3.21359C5.45755 3.19283 5.50309 3.17207 5.54864 3.15131C5.59418 3.13054 5.64387 3.10563 5.69355 3.08487C5.74323 3.06411 5.79706 3.0392 5.85088 3.01428C5.90471 2.98937 5.95853 2.96861 6.0165 2.9437C6.07446 2.92294 6.13243 2.89802 6.19039 2.87726C6.24836 2.8565 6.31047 2.83574 6.37257 2.81083C6.40155 2.79837 6.43468 2.79007 6.46366 2.77761C6.49678 2.76931 6.52577 2.75685 6.55889 2.74855C6.59201 2.74024 6.62099 2.72778 6.65412 2.71948C6.68724 2.71118 6.72036 2.70287 6.74935 2.69041C6.81559 2.67381 6.8777 2.65304 6.94394 2.63644C7.01019 2.61983 7.0723 2.60322 7.13854 2.58661C7.17166 2.57831 7.20479 2.57 7.23791 2.56585C7.27103 2.55754 7.30416 2.55339 7.33314 2.54509C7.36626 2.53678 7.39524 2.53263 7.42837 2.52433C7.46149 2.51602 7.49047 2.51187 7.5236 2.50772C7.5857 2.49526 7.64781 2.48696 7.70991 2.4745C7.7803 2.4745 7.84241 2.4662 7.90037 2.45789Z" fill="black" fill-opacity="0.72"/>
<path d="M1.9132 4.13108C1.88836 4.16429 1.86765 4.19751 1.84281 4.23073C1.81797 4.26395 1.79727 4.29716 1.77243 4.33038C1.74758 4.3636 1.72688 4.39681 1.70618 4.43003C1.66064 4.49647 1.61509 4.56705 1.57369 4.63349C1.53228 4.70408 1.48674 4.77466 1.44534 4.8411L1.41221 4.89092L1.38323 4.9449C1.36253 4.97812 1.34183 5.01549 1.32526 5.04871C1.24246 5.18573 1.17207 5.3269 1.10168 5.46392C1.06856 5.53036 1.03544 5.60094 1.00232 5.66738C0.985754 5.7006 0.969192 5.73381 0.956771 5.76703C0.94021 5.80025 0.927789 5.83347 0.915367 5.86253C0.886385 5.92481 0.857402 5.9871 0.83256 6.04938C0.807718 6.11166 0.782875 6.16979 0.762173 6.22377C0.741471 6.2819 0.716629 6.33173 0.695927 6.3857C0.675225 6.43553 0.658664 6.48536 0.642102 6.53103C0.625541 6.57671 0.608979 6.61823 0.592418 6.65975C0.579997 6.70127 0.567576 6.73864 0.555154 6.77186C0.538593 6.81753 0.526172 6.8549 0.517891 6.88397C0.50133 6.93794 0.526172 6.99607 0.579997 7.01683L1.39565 7.3324C1.44948 7.35316 1.50744 7.32825 1.53228 7.27842C1.5447 7.25351 1.55713 7.22444 1.57369 7.19123C1.58611 7.16216 1.60267 7.13309 1.61923 7.09573C1.63579 7.06251 1.6565 7.02514 1.6772 6.98777C1.6979 6.9504 1.7186 6.90888 1.7393 6.8632C1.76 6.82168 1.78899 6.77601 1.81383 6.73033C1.83867 6.68466 1.86765 6.63484 1.89664 6.58501C1.92562 6.53518 1.95874 6.48536 1.98773 6.43138C2.00429 6.40646 2.02085 6.3774 2.03741 6.35249C2.05397 6.32757 2.07053 6.29851 2.08709 6.2736C2.12022 6.21962 2.15748 6.16564 2.19474 6.10751C2.27341 5.99955 2.34794 5.88329 2.43075 5.77118C2.45145 5.74212 2.47215 5.71305 2.49285 5.68814L2.5591 5.6051C2.60464 5.55112 2.64605 5.49299 2.69159 5.43901C2.73713 5.38503 2.78268 5.33105 2.82822 5.27708C2.85306 5.25216 2.87377 5.2231 2.89447 5.19818C2.91931 5.17327 2.94001 5.14836 2.96485 5.11929C2.9897 5.09438 3.0104 5.06947 3.03524 5.04455C3.05594 5.01964 3.08079 4.99473 3.10563 4.96981C3.15117 4.91999 3.20086 4.87431 3.2464 4.82449C3.29194 4.77881 3.33749 4.73314 3.38303 4.68747C3.42858 4.64179 3.46998 4.60027 3.51552 4.55875C3.56107 4.51723 3.60247 4.47986 3.64388 4.44249C3.68528 4.40512 3.72668 4.3719 3.76809 4.33453C3.80949 4.30132 3.84676 4.2681 3.87988 4.23903C3.91714 4.20997 3.95026 4.18505 3.97925 4.16014C4.01237 4.13523 4.04135 4.11032 4.0662 4.08955C4.07862 4.08125 4.09518 4.06879 4.11174 4.05634C4.1283 4.04388 4.14072 4.03558 4.15314 4.02312C4.18213 4.00236 4.20697 3.9816 4.22767 3.96499C4.27735 3.92762 4.28564 3.85703 4.24423 3.81136L3.31265 2.71103C3.27124 2.66536 3.20086 2.66121 3.15531 2.70273C3.13461 2.72349 3.11391 2.74425 3.08493 2.76916C3.0725 2.78162 3.06008 2.79408 3.04766 2.80653C3.03524 2.81899 3.02282 2.83145 3.00626 2.84806C2.97314 2.88127 2.94001 2.91449 2.90275 2.95186C2.86549 2.98923 2.82822 3.03075 2.78682 3.07227C2.74956 3.11379 2.70815 3.15947 2.66675 3.20514C2.62534 3.25082 2.5798 3.29649 2.5384 3.34632C2.49699 3.39614 2.45145 3.45012 2.4059 3.5041C2.36036 3.55808 2.31482 3.61205 2.26927 3.67019C2.22373 3.72832 2.17404 3.78645 2.1285 3.84873C2.08295 3.91101 2.03327 3.97329 1.98773 4.03558C1.95874 4.06464 1.9339 4.09786 1.9132 4.13108Z" fill="black" fill-opacity="0.48"/>
<path d="M0.21944 7.96409C0.2153 7.989 0.207019 8.02222 0.198738 8.05959C0.190457 8.09281 0.186317 8.13018 0.178036 8.16755C0.169755 8.20907 0.161475 8.25474 0.153194 8.30457C0.144913 8.35439 0.136632 8.40422 0.128352 8.46235C0.124211 8.49142 0.120071 8.51633 0.115931 8.54539C0.11179 8.57446 0.10765 8.60352 0.103509 8.63259C0.0869479 8.753 0.066246 8.87757 0.0579653 9.01459C0.0496845 9.08102 0.0455442 9.15161 0.0372634 9.2222C0.033123 9.29278 0.0289826 9.36752 0.0207019 9.44226C0.00828075 9.59174 0.00828076 9.74537 0 9.899V10.3059L0.00414037 10.364C0.00828075 10.4429 0.0124211 10.5218 0.0124211 10.6007L0.0165615 10.6588V10.6921L0.0207019 10.7211C0.0248423 10.7585 0.0248423 10.7959 0.0289826 10.8332C0.033123 10.8706 0.033123 10.908 0.0372634 10.9453C0.0414038 10.9827 0.0455441 11.0242 0.0496845 11.0616C0.0538249 11.099 0.0579653 11.1363 0.0621057 11.1737C0.0621057 11.1945 0.066246 11.2111 0.066246 11.2318C0.0703864 11.2485 0.0703864 11.2692 0.0745268 11.2858C0.0828076 11.3606 0.0910883 11.4312 0.103509 11.5017C0.115931 11.5723 0.124211 11.6388 0.136632 11.7052C0.144913 11.7716 0.157334 11.8339 0.169756 11.8962C0.169756 11.9003 0.169755 11.9045 0.173896 11.9128C0.182177 11.9626 0.227721 12 0.277405 12H0.567232C0.629337 12 0.679022 11.946 0.674882 11.8879C0.674882 11.8713 0.674882 11.8547 0.670741 11.8381C0.666601 11.7799 0.66246 11.7177 0.66246 11.6512C0.65832 11.5889 0.65832 11.5225 0.65418 11.4561C0.65418 11.3896 0.65418 11.319 0.65418 11.2526C0.65418 11.236 0.65418 11.2194 0.65418 11.1986C0.65418 11.182 0.65418 11.1654 0.65418 11.1488C0.65418 11.1156 0.65418 11.0782 0.65832 11.045C0.65832 11.0118 0.65832 10.9744 0.66246 10.9412C0.66246 10.9038 0.666601 10.8665 0.666601 10.8291C0.666601 10.7917 0.670741 10.7543 0.670741 10.717V10.6755C0.670741 10.6713 0.670741 10.6796 0.670741 10.6796V10.6755V10.6672L0.674882 10.6132C0.679022 10.5384 0.687303 10.4678 0.691443 10.3931L0.695583 10.3391L0.703864 10.2852C0.708005 10.2478 0.712145 10.2104 0.716285 10.1772C0.720426 10.1398 0.724566 10.1066 0.728707 10.0692L0.732847 10.0153L0.741128 9.96128C0.761829 9.82011 0.782531 9.67894 0.807374 9.54192C0.819795 9.47548 0.832216 9.40905 0.844637 9.34261C0.857058 9.28033 0.87362 9.21389 0.886041 9.15576C0.910883 9.0312 0.944006 8.91909 0.968848 8.81528C0.977129 8.79037 0.981269 8.76131 0.98955 8.73639C0.997831 8.71148 1.00197 8.68657 1.01025 8.66581C1.02267 8.62013 1.03923 8.57446 1.04752 8.53294C1.05994 8.49142 1.07236 8.45405 1.08064 8.41668C1.09306 8.37931 1.10548 8.34194 1.11376 8.31287C1.12618 8.27965 1.13446 8.24644 1.14274 8.22152C1.16345 8.16339 1.13032 8.10111 1.06822 8.0845L0.347792 7.88935C0.293967 7.86859 0.231861 7.90596 0.21944 7.96409Z" fill="black" fill-opacity="0.24"/>
<path d="M8.83086 4.7884C8.8007 4.82633 8.78822 4.8785 8.8133 4.9349L11.4228 10.6217C11.6201 11.0539 12.1298 11.2419 12.5583 11.0423C12.6805 10.9859 12.7832 10.9048 12.8633 10.8059C13.0648 10.5595 13.1205 10.2107 12.9776 9.9036C12.9497 9.84336 12.9138 9.78671 12.8768 9.73676L9.05184 4.78843C8.98969 4.70601 8.88253 4.72495 8.83086 4.7884Z" fill="black"/>
<path d="M14.1972 4.59216L14.2634 4.65859C14.2883 4.68351 14.309 4.70842 14.3379 4.73748C14.3628 4.76655 14.3918 4.79561 14.4207 4.82468C14.4497 4.8579 14.4787 4.89111 14.5118 4.92433C14.5408 4.9617 14.5781 4.99492 14.6071 5.03644C14.6402 5.07381 14.6733 5.11533 14.7064 5.15685C14.7396 5.19838 14.7768 5.24405 14.8099 5.28557C14.8431 5.33124 14.8803 5.37692 14.9176 5.42259C14.9507 5.46827 14.988 5.51809 15.0211 5.56792C15.0377 5.59283 15.0584 5.61774 15.0749 5.64266C15.0915 5.66757 15.108 5.69248 15.1246 5.7174C15.1412 5.74231 15.1577 5.76722 15.1784 5.79214C15.195 5.81705 15.2116 5.84611 15.2281 5.87103C15.2612 5.92501 15.2944 5.97483 15.3275 6.02881C15.3606 6.08279 15.3896 6.13677 15.4227 6.19074L15.46 6.25303L19 5.31879C18.9959 5.31464 18.9959 5.31048 18.9917 5.30633C18.971 5.27311 18.9503 5.2399 18.9338 5.20253C18.9131 5.16931 18.8924 5.13609 18.8716 5.09872C18.8302 5.02814 18.7847 4.95755 18.7392 4.88696C18.6439 4.74579 18.5487 4.60046 18.4452 4.45929C18.4203 4.42192 18.3914 4.3887 18.3665 4.35133L18.3293 4.29735L18.2879 4.24338C18.234 4.17279 18.1802 4.1022 18.1222 4.03162C18.0684 3.96103 18.0105 3.89044 17.9525 3.82401C17.9235 3.79079 17.8945 3.75342 17.8655 3.7202C17.8366 3.68699 17.8076 3.65377 17.7786 3.62055C17.7496 3.58733 17.7206 3.55412 17.6916 3.5209C17.6627 3.48768 17.6337 3.45446 17.6047 3.4254C17.5467 3.36312 17.4888 3.30083 17.4308 3.23855C17.3728 3.17627 17.3149 3.11814 17.2569 3.06416C17.1989 3.00603 17.1451 2.95205 17.0871 2.89807C17.0292 2.84409 16.9754 2.79427 16.9257 2.74444C16.8718 2.69462 16.818 2.64894 16.7683 2.60327C16.7187 2.55759 16.669 2.51607 16.6234 2.4787C16.5779 2.44133 16.5323 2.40396 16.4909 2.36659C16.4495 2.33338 16.4081 2.30016 16.375 2.2711C16.3377 2.24203 16.3046 2.21712 16.2715 2.1922C16.2259 2.15899 16.1887 2.12992 16.1597 2.10501C16.1142 2.07179 16.0479 2.07594 16.0106 2.12162L14.1433 4.3887C14.1061 4.43022 14.1102 4.49251 14.1516 4.53403C14.1599 4.55479 14.1765 4.5714 14.1972 4.59216Z" fill="black"/>
<path d="M15.1286 1.42004C15.1038 1.40759 15.0789 1.39098 15.0458 1.37022C15.0334 1.36191 15.0168 1.35361 15.0003 1.3453C14.9837 1.337 14.963 1.32454 14.9465 1.31624C14.9009 1.29133 14.8554 1.26641 14.8057 1.23735C14.756 1.20828 14.7022 1.17922 14.6442 1.15015C14.5904 1.12109 14.5324 1.09617 14.4745 1.06296C14.4165 1.03389 14.3544 1.00067 14.2881 0.971608C14.2219 0.942543 14.1556 0.909326 14.0853 0.88026C14.0149 0.847043 13.9445 0.817978 13.87 0.788912C13.7954 0.759847 13.7209 0.72663 13.6464 0.697564C13.6257 0.68926 13.605 0.680956 13.5884 0.676804C12.4954 0.282347 11.601 0.128717 11.601 0.128717C11.5431 0.120413 11.4851 0.112109 11.4271 0.0996522C11.3899 0.0955 11.3485 0.0871956 11.3112 0.0830434C11.2739 0.0788912 11.2367 0.0747389 11.1994 0.0705868C11.1249 0.0622824 11.0545 0.0539782 10.9841 0.0456738C10.9137 0.0415216 10.8475 0.0332172 10.7812 0.0290651C10.715 0.0249129 10.6529 0.0166087 10.5949 0.0166087C10.537 0.0124566 10.479 0.0124564 10.4252 0.00830422C10.3713 0.00415204 10.3217 0.00415217 10.2761 0C10.2306 0 10.1892 0 10.1519 0C10.0981 0 10.0525 0 10.0153 0C9.9573 0 9.91175 0.0456739 9.90761 0.103804L9.79996 2.35428C9.79582 2.40826 9.83723 2.45809 9.89105 2.46639C9.91589 2.47054 9.94074 2.47469 9.97386 2.47885C10.0028 2.483 10.0318 2.48715 10.0691 2.4913C10.1022 2.49545 10.1395 2.50376 10.1809 2.51206C10.2181 2.52037 10.2637 2.52452 10.3051 2.53282C10.3424 2.54113 10.3838 2.54943 10.4252 2.55774C10.4252 2.55774 12.0937 2.91482 12.9301 3.57502C12.9674 3.59993 13.0005 3.62484 13.0336 3.64561C13.075 3.67052 13.1123 3.69543 13.1454 3.72035C13.1785 3.74526 13.2075 3.76602 13.2365 3.78678C13.2655 3.80754 13.2903 3.82415 13.3151 3.84491C13.3276 3.85321 13.3441 3.86567 13.3565 3.87813C13.3731 3.89058 13.3855 3.89889 13.398 3.91135C13.4269 3.93211 13.4518 3.95287 13.4766 3.96948C13.5263 4.00684 13.5967 3.99439 13.6298 3.94041L15.17 1.58613C15.199 1.51969 15.1825 1.44911 15.1286 1.42004Z" fill="black" fill-opacity="0.88"/>
</svg>
