<svg width="35" height="22" viewBox="0 0 35 22" fill="none" xmlns="http://www.w3.org/2000/svg">
<g clip-path="url(#clip0_1436_599)">
<path d="M14.4463 4.48166L14.6053 4.45895C14.6583 4.45137 14.7113 4.45137 14.7643 4.4438C14.8703 4.43623 14.9687 4.42109 15.0671 4.41352C15.1655 4.40595 15.2564 4.39838 15.3473 4.3908C15.3927 4.3908 15.4381 4.38323 15.4835 4.38323C15.529 4.38323 15.5668 4.37566 15.6047 4.37566C15.6804 4.37566 15.7561 4.36809 15.8242 4.36809C15.8924 4.36809 15.9529 4.36052 16.0135 4.36052H16.3845C16.4981 4.36052 16.5889 4.2621 16.5813 4.14853L16.3315 0.279678C16.3239 0.166111 16.2255 0.0828286 16.1119 0.0979709C16.0589 0.105542 16.0059 0.113113 15.9378 0.120684C15.8772 0.128255 15.8091 0.135827 15.7334 0.143398C15.6501 0.15854 15.5517 0.173682 15.4532 0.181254C15.3548 0.196396 15.2488 0.211538 15.1353 0.22668C15.0747 0.234251 15.0217 0.241823 14.9687 0.256965C14.9157 0.264536 14.8551 0.279678 14.8021 0.287249C14.6886 0.309962 14.5674 0.332676 14.4387 0.355389C14.3176 0.385674 14.1889 0.415959 14.0602 0.446243C13.992 0.461385 13.9314 0.476527 13.8633 0.49167C13.7952 0.506812 13.727 0.529525 13.6589 0.544667C13.5226 0.582523 13.3863 0.620379 13.2425 0.658234C13.1062 0.703661 12.9623 0.741517 12.8185 0.786944C12.7504 0.809657 12.6746 0.83237 12.5989 0.855084C12.5308 0.877797 12.4551 0.90051 12.3794 0.930795C12.3037 0.953508 12.2355 0.983793 12.1598 1.00651C12.0841 1.02922 12.016 1.05951 11.9402 1.08222C11.7964 1.13522 11.6525 1.19579 11.5087 1.24879C11.3648 1.30178 11.221 1.36992 11.0771 1.43049C11.009 1.46078 10.9333 1.49106 10.8651 1.52135C10.797 1.55163 10.7289 1.58192 10.6531 1.61977C10.585 1.65006 10.5169 1.68034 10.4487 1.7182C10.3806 1.74848 10.3124 1.77877 10.2443 1.81662C10.108 1.88476 9.97928 1.9529 9.85057 2.01347C9.72186 2.08161 9.60072 2.14975 9.47958 2.21789C9.35845 2.28603 9.23731 2.3466 9.12374 2.41474C9.01017 2.48288 8.89661 2.55102 8.79061 2.61159C8.68462 2.67216 8.58619 2.7403 8.48777 2.80087C8.38934 2.86144 8.29849 2.92201 8.20763 2.975C8.12435 3.03557 8.04107 3.08857 7.96536 3.14157C7.88965 3.19457 7.81394 3.24756 7.75337 3.29299C7.68523 3.33842 7.62466 3.38385 7.57166 3.4217C7.49595 3.4747 7.43538 3.52012 7.38238 3.55798C7.2991 3.61855 7.27639 3.73969 7.33695 3.82297L8.94203 6.18516C9.0026 6.26845 9.1086 6.29873 9.19945 6.24573C9.23731 6.22302 9.29031 6.19273 9.3433 6.16245C9.38873 6.13217 9.44173 6.10188 9.5023 6.0716C9.56287 6.04131 9.62344 6.01103 9.69158 5.97317C9.75972 5.93532 9.82786 5.89746 9.90357 5.8596C9.97928 5.82175 10.0626 5.78389 10.1459 5.74604C10.2292 5.70818 10.32 5.66276 10.4109 5.6249C10.5017 5.58704 10.6002 5.54162 10.6986 5.49619C10.797 5.45076 10.8954 5.41291 11.0014 5.36748C11.1074 5.32963 11.2134 5.2842 11.3194 5.24634C11.4254 5.20849 11.539 5.17063 11.6525 5.12521C11.7055 5.10249 11.7661 5.08735 11.8191 5.06464C11.8797 5.04949 11.9327 5.02678 11.9932 5.01164C12.0538 4.9965 12.1068 4.97378 12.1674 4.95864C12.2279 4.9435 12.2885 4.92836 12.3415 4.90564C12.4626 4.87536 12.5762 4.8375 12.6974 4.80722C12.8185 4.77693 12.9321 4.74665 13.0532 4.71636C13.1138 4.70122 13.1743 4.68608 13.2349 4.67851C13.2955 4.66337 13.356 4.65579 13.409 4.64065C13.4696 4.62551 13.5226 4.61794 13.5832 4.6028C13.6437 4.58765 13.6967 4.58008 13.7573 4.57251C13.8709 4.5498 13.9844 4.53466 14.098 4.51194C14.2267 4.51194 14.3403 4.4968 14.4463 4.48166Z" fill="#EAB308" fill-opacity="0.72"/>
<path d="M3.49825 7.53256C3.45282 7.59312 3.41497 7.65369 3.36954 7.71426C3.32412 7.77483 3.28626 7.8354 3.24083 7.89597C3.19541 7.95654 3.15755 8.01711 3.11969 8.07768C3.03641 8.19882 2.95313 8.32752 2.87742 8.44866C2.80171 8.57737 2.71842 8.70608 2.64271 8.82722L2.58214 8.91807L2.52915 9.0165C2.49129 9.07707 2.45344 9.14521 2.42315 9.20578C2.27173 9.45562 2.14302 9.71304 2.01431 9.96289C1.95374 10.084 1.89317 10.2127 1.8326 10.3339C1.80232 10.3945 1.77203 10.455 1.74932 10.5156C1.71904 10.5762 1.69632 10.6367 1.67361 10.6897C1.62061 10.8033 1.56761 10.9169 1.52219 11.0304C1.47676 11.144 1.43133 11.25 1.39348 11.3484C1.35562 11.4544 1.31019 11.5453 1.27234 11.6437C1.23448 11.7345 1.2042 11.8254 1.17391 11.9087C1.14363 11.992 1.11334 12.0677 1.08306 12.1434C1.06035 12.2191 1.03763 12.2872 1.01492 12.3478C0.984632 12.4311 0.961918 12.4992 0.946776 12.5522C0.916491 12.6507 0.961918 12.7566 1.06035 12.7945L2.55186 13.3699C2.65028 13.4078 2.75628 13.3623 2.80171 13.2715C2.82442 13.2261 2.84713 13.1731 2.87742 13.1125C2.90013 13.0595 2.93042 13.0065 2.9607 12.9384C2.99099 12.8778 3.02884 12.8096 3.0667 12.7415C3.10455 12.6734 3.14241 12.5977 3.18026 12.5144C3.21812 12.4387 3.27112 12.3554 3.31654 12.2721C3.36197 12.1888 3.41497 12.098 3.46797 12.0071C3.52096 11.9163 3.58153 11.8254 3.63453 11.727C3.66482 11.6815 3.6951 11.6285 3.72539 11.5831C3.75567 11.5377 3.78595 11.4847 3.81624 11.4393C3.87681 11.3408 3.94495 11.2424 4.01309 11.1364C4.15694 10.9396 4.29322 10.7276 4.44464 10.5232C4.4825 10.4702 4.52035 10.4172 4.55821 10.3717L4.67935 10.2203C4.76263 10.1219 4.83834 10.0159 4.92162 9.91746C5.00491 9.81904 5.08819 9.72061 5.17147 9.62219C5.2169 9.57676 5.25475 9.52376 5.29261 9.47834C5.33804 9.43291 5.37589 9.38748 5.42132 9.33448C5.46675 9.28906 5.5046 9.24363 5.55003 9.1982C5.58788 9.15278 5.63331 9.10735 5.67874 9.06192C5.76202 8.97107 5.85287 8.88779 5.93616 8.79693C6.01944 8.71365 6.10272 8.63037 6.186 8.54709C6.26929 8.4638 6.345 8.38809 6.42828 8.31238C6.51156 8.23667 6.58727 8.16853 6.66298 8.10039C6.7387 8.03225 6.81441 7.97168 6.89012 7.90354C6.96583 7.84297 7.03397 7.7824 7.09454 7.72941C7.16268 7.67641 7.22325 7.63098 7.27625 7.58555C7.33681 7.54013 7.38981 7.4947 7.43524 7.45684C7.45795 7.4417 7.48824 7.41899 7.51852 7.39628C7.54881 7.37356 7.57152 7.35842 7.59423 7.33571C7.64723 7.29785 7.69266 7.26 7.73051 7.22971C7.82137 7.16157 7.83651 7.03286 7.7608 6.94958L6.05729 4.94323C5.98158 4.85995 5.85287 4.85238 5.76959 4.92809C5.73174 4.96594 5.69388 5.0038 5.64088 5.04923C5.61817 5.07194 5.59545 5.09465 5.57274 5.11737C5.55003 5.14008 5.52731 5.16279 5.49703 5.19308C5.43646 5.25365 5.37589 5.31422 5.30775 5.38236C5.23961 5.4505 5.17147 5.52621 5.09576 5.60192C5.02762 5.67763 4.95191 5.76091 4.8762 5.84419C4.80049 5.92748 4.7172 6.01076 4.64149 6.10161C4.56578 6.19247 4.4825 6.29089 4.39922 6.38932C4.31593 6.48774 4.23265 6.58617 4.14937 6.69216C4.06609 6.79816 3.97523 6.90415 3.89195 7.01772C3.80867 7.13129 3.71781 7.24485 3.63453 7.35842C3.58153 7.41142 3.53611 7.47199 3.49825 7.53256Z" fill="#EAB308" fill-opacity="0.48"/>
<path d="M0.40127 14.5218C0.393699 14.5673 0.378557 14.6278 0.363414 14.696C0.348272 14.7565 0.340701 14.8247 0.325559 14.8928C0.310416 14.9685 0.295274 15.0518 0.280132 15.1427C0.26499 15.2335 0.249847 15.3244 0.234705 15.4304C0.227134 15.4834 0.219563 15.5288 0.211992 15.5818C0.204421 15.6348 0.196849 15.6878 0.189278 15.7408C0.158994 15.9604 0.121138 16.1875 0.105996 16.4373C0.0908536 16.5585 0.0832824 16.6872 0.0681402 16.8159C0.060569 16.9446 0.0529979 17.0809 0.0378556 17.2172C0.0151423 17.4897 0.0151423 17.7699 0 18.05V18.792L0.00757112 18.898C0.0151423 19.0418 0.0227134 19.1857 0.0227134 19.3295L0.0302845 19.4355V19.4961L0.0378556 19.5491C0.0454268 19.6172 0.0454268 19.6854 0.0529979 19.7535C0.060569 19.8216 0.060569 19.8898 0.0681402 19.9579C0.0757113 20.0261 0.0832824 20.1018 0.0908535 20.1699C0.0984247 20.238 0.105996 20.3062 0.113567 20.3743C0.113567 20.4122 0.121138 20.4425 0.121138 20.4803C0.128709 20.5106 0.128709 20.5485 0.13628 20.5787C0.151423 20.715 0.166565 20.8437 0.189278 20.9724C0.211992 21.1012 0.227134 21.2223 0.249847 21.3434C0.26499 21.4646 0.287703 21.5781 0.310416 21.6917C0.310416 21.6993 0.310416 21.7068 0.317987 21.722C0.33313 21.8128 0.416412 21.881 0.507266 21.881H1.03724C1.15081 21.881 1.24167 21.7826 1.23409 21.6766C1.23409 21.6463 1.23409 21.616 1.22652 21.5857C1.21895 21.4797 1.21138 21.3661 1.21138 21.245C1.20381 21.1314 1.20381 21.0103 1.19624 20.8892C1.19624 20.768 1.19624 20.6393 1.19624 20.5182C1.19624 20.4879 1.19624 20.4576 1.19624 20.4198C1.19624 20.3895 1.19624 20.3592 1.19624 20.3289C1.19624 20.2683 1.19624 20.2002 1.20381 20.1396C1.20381 20.0791 1.20381 20.0109 1.21138 19.9503C1.21138 19.8822 1.21895 19.8141 1.21895 19.7459C1.21895 19.6778 1.22652 19.6096 1.22652 19.5415V19.4658C1.22652 19.4582 1.22652 19.4734 1.22652 19.4734V19.4658V19.4506L1.23409 19.3522C1.24167 19.2159 1.25681 19.0872 1.26438 18.951L1.27195 18.8525L1.28709 18.7541C1.29466 18.686 1.30223 18.6178 1.30981 18.5573C1.31738 18.4891 1.32495 18.4285 1.33252 18.3604L1.34009 18.262L1.35523 18.1636C1.39309 17.9061 1.43094 17.6487 1.47637 17.3989C1.49908 17.2777 1.5218 17.1566 1.54451 17.0355C1.56722 16.9219 1.59751 16.8008 1.62022 16.6948C1.66565 16.4676 1.72622 16.2632 1.77164 16.0739C1.78679 16.0285 1.79436 15.9755 1.8095 15.9301C1.82464 15.8846 1.83221 15.8392 1.84736 15.8014C1.87007 15.7181 1.90035 15.6348 1.9155 15.5591C1.93821 15.4834 1.96092 15.4152 1.97606 15.3471C1.99878 15.279 2.02149 15.2108 2.03663 15.1578C2.05935 15.0972 2.07449 15.0367 2.08963 14.9913C2.12749 14.8853 2.06692 14.7717 1.95335 14.7414L0.635975 14.3856C0.53755 14.3477 0.423983 14.4158 0.40127 14.5218Z" fill="#EAB308" fill-opacity="0.24"/>
<path d="M16.1485 8.73124C16.0933 8.80039 16.0705 8.89552 16.1164 8.99836L20.8881 19.3678C21.2489 20.1559 22.1809 20.4987 22.9644 20.1347C23.188 20.0319 23.3758 19.8839 23.5223 19.7036C23.8907 19.2543 23.9925 18.6184 23.7313 18.0584C23.6802 17.9485 23.6145 17.8452 23.5469 17.7542L16.5526 8.73129C16.4389 8.58099 16.243 8.61554 16.1485 8.73124Z" fill="black"/>
<path d="M25.9616 8.37343L26.0827 8.49457C26.1281 8.54 26.166 8.58542 26.219 8.63842C26.2644 8.69142 26.3174 8.74442 26.3704 8.79741C26.4234 8.85798 26.4764 8.91855 26.537 8.97912C26.59 9.04726 26.6581 9.10783 26.7111 9.18354C26.7717 9.25168 26.8322 9.32739 26.8928 9.4031C26.9534 9.47882 27.0215 9.56209 27.0821 9.6378C27.1426 9.72108 27.2108 9.80437 27.2789 9.88766C27.3395 9.97094 27.4076 10.0618 27.4682 10.1526C27.4985 10.1981 27.5363 10.2435 27.5666 10.2889C27.5969 10.3343 27.6272 10.3798 27.6575 10.4252C27.6878 10.4706 27.7181 10.516 27.7559 10.5615C27.7862 10.6069 27.8165 10.6599 27.8468 10.7053C27.9073 10.8037 27.9679 10.8946 28.0285 10.993C28.089 11.0914 28.142 11.1899 28.2026 11.2883L28.2707 11.4019L34.7441 9.69838C34.7365 9.69081 34.7365 9.68324 34.7289 9.67566C34.6911 9.61509 34.6532 9.55453 34.6229 9.48639C34.5851 9.42582 34.5472 9.36524 34.5094 9.2971C34.4336 9.16839 34.3504 9.03969 34.2671 8.91098C34.0929 8.65356 33.9188 8.38857 33.7295 8.13115C33.6841 8.06301 33.6311 8.00244 33.5857 7.9343L33.5175 7.83588L33.4418 7.73746C33.3434 7.60875 33.245 7.48004 33.139 7.35133C33.0406 7.22262 32.9346 7.09391 32.8286 6.97277C32.7756 6.9122 32.7226 6.84406 32.6696 6.78349C32.6166 6.72292 32.5636 6.66236 32.5106 6.60179C32.4576 6.54122 32.4046 6.48065 32.3516 6.42008C32.2986 6.35951 32.2456 6.29894 32.1926 6.24594C32.0866 6.13238 31.9806 6.01881 31.8746 5.90524C31.7686 5.79167 31.6626 5.68568 31.5566 5.58725C31.4506 5.48126 31.3522 5.38283 31.2462 5.28441C31.1402 5.18598 31.0418 5.09513 30.9509 5.00428C30.8525 4.91342 30.7541 4.83014 30.6632 4.74686C30.5724 4.66358 30.4815 4.58787 30.3982 4.51973C30.315 4.45159 30.2317 4.38344 30.156 4.3153C30.0802 4.25474 30.0045 4.19417 29.944 4.14117C29.8758 4.08817 29.8153 4.04274 29.7547 3.99732C29.6714 3.93675 29.6033 3.88375 29.5503 3.83832C29.467 3.77776 29.3458 3.78533 29.2777 3.86861L25.8631 8.00245C25.795 8.07816 25.8026 8.19172 25.8783 8.26744C25.8934 8.30529 25.9237 8.33557 25.9616 8.37343Z" fill="#EAB308"/>
<path d="M27.6644 2.58933C27.619 2.56661 27.5736 2.53633 27.513 2.49847C27.4903 2.48333 27.46 2.46819 27.4297 2.45305C27.3995 2.4379 27.3616 2.41519 27.3313 2.40005C27.248 2.35462 27.1647 2.30919 27.0739 2.2562C26.983 2.2032 26.8846 2.1502 26.7786 2.0972C26.6802 2.04421 26.5742 1.99878 26.4682 1.93821C26.3622 1.88521 26.2486 1.82464 26.1275 1.77164C26.0064 1.71865 25.8852 1.65808 25.7565 1.60508C25.6278 1.54451 25.4991 1.49151 25.3628 1.43851C25.2265 1.38552 25.0903 1.32495 24.954 1.27195C24.9161 1.25681 24.8783 1.24167 24.848 1.23409C22.8492 0.514836 21.2138 0.234705 21.2138 0.234705C21.1078 0.219563 21.0018 0.204421 20.8959 0.181707C20.8277 0.174136 20.752 0.158994 20.6839 0.151423C20.6157 0.143851 20.5476 0.13628 20.4794 0.128709C20.3432 0.113567 20.2144 0.0984246 20.0857 0.0832823C19.957 0.0757112 19.8359 0.0605688 19.7148 0.0529977C19.5936 0.0454266 19.48 0.0302846 19.3741 0.0302846C19.2681 0.0227135 19.1621 0.0227132 19.0636 0.015142C18.9652 0.0075709 18.8744 0.00757113 18.7911 0C18.7078 0 18.6321 0 18.5639 0C18.4655 0 18.3822 0 18.3141 0C18.2081 0 18.1248 0.0832824 18.1172 0.189278L17.9204 4.29283C17.9128 4.39126 17.9885 4.48211 18.087 4.49725C18.1324 4.50482 18.1778 4.51239 18.2384 4.51997C18.2914 4.52754 18.3444 4.53511 18.4125 4.54268C18.4731 4.55025 18.5412 4.56539 18.6169 4.58053C18.6851 4.59568 18.7684 4.60325 18.8441 4.61839C18.9122 4.63353 18.9879 4.64867 19.0636 4.66382C19.0636 4.66382 22.1148 5.31493 23.6442 6.51874C23.7123 6.56417 23.7729 6.6096 23.8334 6.64745C23.9092 6.69288 23.9773 6.73831 24.0379 6.78373C24.0984 6.82916 24.1514 6.86702 24.2044 6.90487C24.2574 6.94273 24.3029 6.97301 24.3483 7.01087C24.371 7.02601 24.4013 7.04872 24.424 7.07144C24.4543 7.09415 24.477 7.10929 24.4997 7.13201C24.5527 7.16986 24.5981 7.20772 24.6436 7.238C24.7344 7.30614 24.8631 7.28343 24.9237 7.185L27.7402 2.89217C27.7932 2.77103 27.7629 2.64233 27.6644 2.58933Z" fill="#EAB308" fill-opacity="0.88"/>
</g>
<defs>
<clipPath id="clip0_1436_599">
<rect width="35" height="22" fill="white"/>
</clipPath>
</defs>
</svg>
