<svg width="19" height="19" viewBox="0 0 19 19" fill="none" xmlns="http://www.w3.org/2000/svg">
<path d="M8.02729 5.83338L8.11295 5.82115C8.14151 5.81707 8.17006 5.81707 8.19861 5.81299C8.25572 5.80891 8.30874 5.80075 8.36177 5.79667C8.4148 5.79259 8.46374 5.78851 8.51269 5.78443C8.53717 5.78443 8.56164 5.78036 8.58611 5.78036C8.61059 5.78036 8.63098 5.77628 8.65138 5.77628C8.69217 5.77628 8.73296 5.7722 8.76967 5.7722C8.80638 5.7722 8.83901 5.76812 8.87164 5.76812H8.97769H9.07151C9.13269 5.76812 9.18164 5.71509 9.17756 5.65391L9.04296 3.56956C9.03888 3.50837 8.98585 3.4635 8.92467 3.47166C8.89611 3.47574 8.86756 3.47982 8.83085 3.4839C8.79822 3.48798 8.76151 3.49206 8.72072 3.49614C8.67585 3.50429 8.62282 3.51245 8.5698 3.51653C8.51677 3.52469 8.45966 3.53285 8.39848 3.541C8.36585 3.54508 8.3373 3.54916 8.30874 3.55732C8.28019 3.5614 8.24756 3.56956 8.21901 3.57364C8.15782 3.58587 8.09256 3.59811 8.02322 3.61035C7.95795 3.62666 7.88861 3.64298 7.81927 3.65929C7.78256 3.66745 7.74993 3.67561 7.71321 3.68377C7.6765 3.69193 7.63979 3.70416 7.60308 3.71232C7.52966 3.73272 7.45624 3.75311 7.37874 3.77351C7.30532 3.79798 7.22782 3.81837 7.15032 3.84285C7.11361 3.85508 7.07282 3.86732 7.03203 3.87956C6.99532 3.8918 6.95453 3.90403 6.91374 3.92035C6.87295 3.93258 6.83624 3.9489 6.79545 3.96114C6.75466 3.97337 6.71795 3.98969 6.67716 4.00193C6.59966 4.03048 6.52216 4.06311 6.44466 4.09166C6.36716 4.12022 6.28966 4.15693 6.21216 4.18956C6.17545 4.20588 6.13466 4.22219 6.09794 4.23851C6.06123 4.25482 6.02452 4.27114 5.98373 4.29153C5.94702 4.30785 5.91031 4.32417 5.8736 4.34456C5.83689 4.36088 5.80018 4.37719 5.76347 4.39759C5.69005 4.4343 5.62071 4.47101 5.55136 4.50364C5.48202 4.54035 5.41676 4.57706 5.35149 4.61377C5.28623 4.65048 5.22097 4.68311 5.15978 4.71983C5.0986 4.75654 5.03741 4.79325 4.98031 4.82588C4.9232 4.85851 4.87018 4.89522 4.81715 4.92785C4.76412 4.96048 4.71518 4.99312 4.66623 5.02167C4.62136 5.0543 4.57649 5.08285 4.5357 5.11141C4.49491 5.13996 4.45412 5.16851 4.42149 5.19298C4.38478 5.21746 4.35215 5.24193 4.3236 5.26233C4.28281 5.29088 4.25017 5.31535 4.22162 5.33575C4.17675 5.36838 4.16452 5.43364 4.19715 5.47851L5.06189 6.75115C5.09452 6.79602 5.15162 6.81233 5.20057 6.78378C5.22097 6.77154 5.24952 6.75523 5.27807 6.73891C5.30255 6.7226 5.3311 6.70628 5.36373 6.68996C5.39636 6.67365 5.42899 6.65733 5.46571 6.63694C5.50242 6.61654 5.53913 6.59615 5.57992 6.57575C5.62071 6.55536 5.66557 6.53496 5.71044 6.51457C5.75531 6.49417 5.80426 6.4697 5.85321 6.44931C5.90215 6.42891 5.95518 6.40444 6.00821 6.37996C6.06123 6.35549 6.11426 6.33509 6.17137 6.31062C6.22847 6.29023 6.28558 6.26575 6.34268 6.24536C6.39979 6.22496 6.46097 6.20457 6.52216 6.18009C6.55071 6.16786 6.58334 6.1597 6.61189 6.14746C6.64453 6.1393 6.67308 6.12707 6.70571 6.11891C6.73834 6.11075 6.76689 6.09851 6.79953 6.09036C6.83216 6.0822 6.86479 6.07404 6.89334 6.0618C6.95861 6.04549 7.01979 6.02509 7.08505 6.00878C7.15032 5.99246 7.2115 5.97615 7.27676 5.95983C7.3094 5.95167 7.34203 5.94351 7.37466 5.93943C7.40729 5.93128 7.43992 5.9272 7.46848 5.91904C7.50111 5.91088 7.52966 5.9068 7.56229 5.89865C7.59492 5.89049 7.62348 5.88641 7.65611 5.88233C7.71729 5.87009 7.77848 5.86193 7.83966 5.8497C7.909 5.8497 7.97019 5.84154 8.02729 5.83338Z" fill="#EAB308" fill-opacity="0.72"/>
<path d="M2.12961 7.47678C2.10514 7.50941 2.08474 7.54204 2.06027 7.57468C2.03579 7.60731 2.0154 7.63994 1.99092 7.67257C1.96645 7.7052 1.94606 7.73783 1.92566 7.77047C1.88079 7.83573 1.83592 7.90507 1.79513 7.97034C1.75434 8.03968 1.70948 8.10902 1.66869 8.17428L1.63605 8.22323L1.6075 8.27626C1.58711 8.30889 1.56671 8.3456 1.5504 8.37823C1.46882 8.51284 1.39947 8.65152 1.33013 8.78613C1.2975 8.85139 1.26487 8.92073 1.23224 8.986C1.21592 9.01863 1.1996 9.05126 1.18737 9.08389C1.17105 9.11652 1.15881 9.14916 1.14658 9.17771C1.11803 9.23889 1.08947 9.30008 1.065 9.36126C1.04052 9.42245 1.01605 9.47955 0.995656 9.53258C0.975261 9.58968 0.950788 9.63863 0.930393 9.69166C0.909998 9.74061 0.893682 9.78955 0.877366 9.83442C0.86105 9.87929 0.844735 9.92008 0.828419 9.96087C0.816182 10.0017 0.803945 10.0384 0.791708 10.071C0.775392 10.1159 0.763155 10.1526 0.754997 10.1811C0.738681 10.2342 0.763155 10.2913 0.816182 10.3117L1.61974 10.6217C1.67276 10.6421 1.72987 10.6176 1.75434 10.5686C1.76658 10.5442 1.77882 10.5156 1.79513 10.483C1.80737 10.4544 1.82369 10.4259 1.84 10.3892C1.85632 10.3565 1.87671 10.3198 1.89711 10.2831C1.9175 10.2464 1.9379 10.2056 1.95829 10.1607C1.97869 10.1199 2.00724 10.0751 2.03171 10.0302C2.05619 9.98534 2.08474 9.9364 2.11329 9.88745C2.14185 9.8385 2.17448 9.78955 2.20303 9.73653C2.21935 9.71205 2.23566 9.6835 2.25198 9.65903C2.26829 9.63455 2.28461 9.606 2.30093 9.58153C2.33356 9.5285 2.37027 9.47547 2.40698 9.41837C2.48448 9.31231 2.5579 9.1981 2.63948 9.08797C2.65987 9.05942 2.68027 9.03087 2.70066 9.00639L2.7333 8.9656L2.76593 8.92481C2.8108 8.87179 2.85159 8.81468 2.89645 8.76165C2.94132 8.70863 2.98619 8.6556 3.03106 8.60257C3.05553 8.5781 3.07593 8.54955 3.09632 8.52507C3.1208 8.5006 3.14119 8.47613 3.16567 8.44757C3.19014 8.4231 3.21053 8.39863 3.23501 8.37415C3.2554 8.34968 3.27988 8.32521 3.30435 8.30073C3.34922 8.25178 3.39817 8.20692 3.44304 8.15797C3.4879 8.1131 3.53277 8.06823 3.57764 8.02336C3.62251 7.97849 3.6633 7.9377 3.70817 7.89691C3.75304 7.85612 3.79383 7.81941 3.83462 7.7827C3.87541 7.74599 3.9162 7.71336 3.95699 7.67665C3.99777 7.64402 4.03449 7.61139 4.06712 7.58283C4.10383 7.55428 4.13646 7.52981 4.16501 7.50533C4.19764 7.48086 4.2262 7.45639 4.25067 7.43599C4.26291 7.42783 4.27922 7.4156 4.29554 7.40336C4.31186 7.39112 4.32409 7.38296 4.33633 7.37073C4.36488 7.35033 4.38936 7.32994 4.40975 7.31362C4.4587 7.27691 4.46686 7.20757 4.42607 7.1627L3.5083 6.08177C3.46751 6.03691 3.39817 6.03283 3.3533 6.07362C3.3329 6.09401 3.31251 6.11441 3.28396 6.13888C3.27172 6.15112 3.25948 6.16335 3.24725 6.17559C3.23501 6.18783 3.22277 6.20006 3.20646 6.21638C3.17382 6.24901 3.14119 6.28164 3.10448 6.31835C3.06777 6.35507 3.03106 6.39585 2.99027 6.43664C2.95356 6.47743 2.91277 6.5223 2.87198 6.56717C2.83119 6.61204 2.78632 6.65691 2.74553 6.70586C2.70474 6.7548 2.65987 6.80783 2.61501 6.86086C2.57014 6.91388 2.52527 6.96691 2.4804 7.02402C2.43553 7.08112 2.38658 7.13823 2.34172 7.19941C2.29685 7.2606 2.2479 7.32178 2.20303 7.38296C2.17448 7.41152 2.15 7.44415 2.12961 7.47678Z" fill="#EAB308" fill-opacity="0.48"/>
<path d="M0.461302 11.2422C0.457223 11.2667 0.449065 11.2993 0.440907 11.336C0.43275 11.3686 0.428671 11.4054 0.420513 11.4421C0.412355 11.4829 0.404197 11.5277 0.396039 11.5767C0.387881 11.6256 0.379723 11.6746 0.371565 11.7317C0.367486 11.7602 0.363407 11.7847 0.359328 11.8133C0.355249 11.8418 0.35117 11.8704 0.347091 11.8989C0.330775 12.0172 0.310381 12.1396 0.302223 12.2742C0.294065 12.3394 0.289986 12.4088 0.281828 12.4781C0.277749 12.5475 0.27367 12.6209 0.265512 12.6943C0.253275 12.8412 0.253275 12.9921 0.245117 13.143V13.2001V13.2572V13.3714V13.4856V13.5427L0.249196 13.5998C0.253275 13.6773 0.257354 13.7548 0.257354 13.8323L0.261433 13.8894V13.9098V13.9221L0.265512 13.9506C0.269591 13.9873 0.269591 14.0241 0.27367 14.0608C0.277749 14.0975 0.277749 14.1342 0.281828 14.1709C0.285907 14.2076 0.289986 14.2484 0.294065 14.2851C0.298144 14.3218 0.302223 14.3585 0.306302 14.3952C0.306302 14.4156 0.310381 14.4319 0.310381 14.4523C0.31446 14.4687 0.31446 14.4891 0.318539 14.5054C0.326696 14.5788 0.334854 14.6481 0.347091 14.7175C0.359328 14.7868 0.367486 14.8521 0.379723 14.9173C0.387881 14.9826 0.400118 15.0438 0.412355 15.105C0.412355 15.1091 0.412355 15.1131 0.416434 15.1213C0.424592 15.1702 0.46946 15.207 0.518408 15.207H0.803935C0.86512 15.207 0.914067 15.1539 0.909988 15.0968C0.909988 15.0805 0.909988 15.0642 0.905909 15.0479C0.90183 14.9908 0.897751 14.9296 0.897751 14.8643C0.893672 14.8031 0.893672 14.7379 0.889593 14.6726C0.889593 14.6073 0.889593 14.538 0.889593 14.4727C0.889593 14.4564 0.889593 14.4401 0.889593 14.4197C0.889593 14.4034 0.889593 14.3871 0.889593 14.3708C0.889593 14.3381 0.889594 14.3014 0.893672 14.2688C0.893672 14.2362 0.893672 14.1994 0.897751 14.1668C0.897751 14.1301 0.90183 14.0934 0.90183 14.0567C0.90183 14.02 0.905909 13.9833 0.905909 13.9466V13.918V13.9058C0.905909 13.9017 0.905909 13.9098 0.905909 13.9098V13.9058V13.8976L0.909988 13.8446C0.914067 13.7712 0.922225 13.7018 0.926304 13.6284L0.930383 13.5754L0.938541 13.5223C0.94262 13.4856 0.946699 13.4489 0.950778 13.4163C0.954857 13.3796 0.958936 13.3469 0.963015 13.3102L0.967094 13.2572L0.975252 13.2042C0.995647 13.0655 1.01604 12.9268 1.04052 12.7922C1.05275 12.7269 1.06499 12.6617 1.07723 12.5964C1.08946 12.5352 1.10578 12.47 1.11802 12.4129C1.14249 12.2905 1.17512 12.1804 1.19959 12.0784C1.20775 12.0539 1.21183 12.0254 1.21999 12.0009C1.22815 11.9764 1.23223 11.9519 1.24038 11.9315C1.25262 11.8867 1.26894 11.8418 1.2771 11.801C1.28933 11.7602 1.30157 11.7235 1.30973 11.6868C1.32196 11.6501 1.3342 11.6134 1.34236 11.5848C1.3546 11.5522 1.36275 11.5196 1.37091 11.4951C1.39131 11.438 1.35867 11.3768 1.29749 11.3605L0.58775 11.1688C0.534724 11.1484 0.473539 11.1851 0.461302 11.2422Z" fill="#EAB308" fill-opacity="0.24"/>
<path d="M8.40151 7.25998C8.36317 7.28827 8.33802 7.3346 8.34755 7.3945L9.38483 13.4561C9.4627 13.9165 9.89989 14.2248 10.3584 14.1447C10.4891 14.1224 10.6074 14.0715 10.7088 13.9981C10.9632 13.8157 11.1048 13.499 11.047 13.1711C11.0357 13.1068 11.0159 13.0439 10.9935 12.9871L8.61178 7.31635C8.5736 7.22229 8.46681 7.21294 8.40151 7.25998Z" fill="black"/>
<path d="M14.2315 7.9298L14.2968 7.99506C14.3212 8.01953 14.3416 8.04401 14.3702 8.07256C14.3947 8.10111 14.4232 8.12967 14.4518 8.15822C14.4803 8.19085 14.5089 8.22348 14.5415 8.25611C14.5701 8.29282 14.6068 8.32546 14.6353 8.36625C14.668 8.40296 14.7006 8.44375 14.7332 8.48454C14.7659 8.52533 14.8026 8.57019 14.8352 8.61098C14.8678 8.65585 14.9045 8.70072 14.9413 8.74559C14.9739 8.79046 15.0106 8.83941 15.0432 8.88835C15.0595 8.91283 15.0799 8.9373 15.0963 8.96177C15.1126 8.98625 15.1289 9.01072 15.1452 9.0352C15.1615 9.05967 15.1778 9.08414 15.1982 9.10862C15.2145 9.13309 15.2309 9.16164 15.2472 9.18612C15.2798 9.23914 15.3124 9.28809 15.3451 9.34112C15.3777 9.39414 15.4063 9.44717 15.4389 9.5002L15.4634 9.54099L15.4756 9.56138L18.9631 8.64362C18.959 8.63954 18.959 8.63546 18.955 8.63138C18.9346 8.59875 18.9142 8.56611 18.8978 8.5294C18.8775 8.49677 18.8571 8.46414 18.8367 8.42743C18.7959 8.35809 18.751 8.28875 18.7061 8.2194C18.6123 8.08072 18.5185 7.93795 18.4165 7.79927C18.3921 7.76256 18.3635 7.72993 18.339 7.69322L18.3023 7.64019L18.2615 7.58716C18.2085 7.51782 18.1555 7.44848 18.0984 7.37914C18.0453 7.30979 17.9882 7.24045 17.9311 7.17519C17.9026 7.14256 17.874 7.10585 17.8455 7.07321C17.8169 7.04058 17.7884 7.00795 17.7598 6.97532C17.7313 6.94269 17.7027 6.91006 17.6742 6.87742C17.6456 6.84479 17.6171 6.81216 17.5885 6.78361C17.5314 6.72242 17.4743 6.66124 17.4172 6.60005C17.3601 6.53887 17.303 6.48176 17.2459 6.42874C17.1888 6.37163 17.1357 6.31861 17.0786 6.26558C17.0215 6.21255 16.9685 6.1636 16.9195 6.11466C16.8665 6.06571 16.8135 6.02084 16.7645 5.97597C16.7156 5.9311 16.6667 5.89031 16.6218 5.8536C16.5769 5.81689 16.532 5.78018 16.4913 5.74347C16.4505 5.71084 16.4097 5.67821 16.377 5.64966C16.3403 5.6211 16.3077 5.59663 16.2751 5.57215C16.2302 5.53952 16.1935 5.51097 16.1649 5.4865C16.1201 5.45387 16.0548 5.45794 16.0181 5.50281L14.1785 7.72993C14.1418 7.77072 14.1459 7.8319 14.1866 7.87269C14.1948 7.89309 14.2111 7.9094 14.2315 7.9298Z" fill="#EAB308"/>
<path d="M15.1493 4.81395C15.1248 4.80171 15.1004 4.7854 15.0677 4.765C15.0555 4.75685 15.0392 4.74869 15.0229 4.74053C15.0066 4.73237 14.9862 4.72014 14.9698 4.71198C14.925 4.6875 14.8801 4.66303 14.8312 4.63448C14.7822 4.60592 14.7292 4.57737 14.6721 4.54882C14.6191 4.52027 14.562 4.49579 14.5048 4.46316C14.4477 4.43461 14.3866 4.40198 14.3213 4.37342C14.256 4.34487 14.1908 4.31224 14.1214 4.28369C14.0521 4.25105 13.9827 4.2225 13.9093 4.19395C13.8359 4.1654 13.7625 4.13276 13.6891 4.10421C13.6687 4.09605 13.6483 4.0879 13.6319 4.08382C12.5551 3.69631 11.674 3.54539 11.674 3.54539C11.6169 3.53724 11.5598 3.52908 11.5027 3.51684C11.466 3.51276 11.4252 3.5046 11.3885 3.50052C11.3518 3.49645 11.3151 3.49237 11.2784 3.48829C11.205 3.48013 11.1356 3.47197 11.0663 3.46381C10.9969 3.45973 10.9317 3.45158 10.8664 3.4475C10.8011 3.44342 10.74 3.43526 10.6829 3.43526C10.6258 3.43118 10.5686 3.43118 10.5156 3.4271C10.4626 3.42302 10.4136 3.42302 10.3688 3.41895C10.3239 3.41895 10.2831 3.41895 10.2464 3.41895C10.1934 3.41895 10.1485 3.41895 10.1118 3.41895C10.0547 3.41895 10.0098 3.46381 10.0057 3.52092L9.8997 5.73172C9.89562 5.78474 9.93641 5.83369 9.98943 5.84185C10.0139 5.84593 10.0384 5.85001 10.071 5.85409C10.0996 5.85817 10.1281 5.86224 10.1648 5.86632C10.1975 5.8704 10.2342 5.87856 10.275 5.88672C10.3117 5.89488 10.3565 5.89896 10.3973 5.90711C10.434 5.91527 10.4748 5.92343 10.5156 5.93159C10.5156 5.93159 12.1594 6.28238 12.9834 6.93093C13.0201 6.95541 13.0527 6.97988 13.0854 7.00028C13.1262 7.02475 13.1629 7.04922 13.1955 7.0737C13.2281 7.09817 13.2567 7.11857 13.2852 7.13896C13.3138 7.15936 13.3383 7.17567 13.3627 7.19607C13.375 7.20422 13.3913 7.21646 13.4035 7.2287C13.4198 7.24093 13.4321 7.24909 13.4443 7.26133C13.4729 7.28172 13.4973 7.30212 13.5218 7.31843C13.5708 7.35515 13.6401 7.34291 13.6727 7.28988L15.1901 4.97711C15.2187 4.91185 15.2023 4.8425 15.1493 4.81395Z" fill="#EAB308" fill-opacity="0.88"/>
</svg>
